<?xml version="1.0" encoding="utf-8"?>
<svg xmlns="http://www.w3.org/2000/svg" xmlns:xlink="http://www.w3.org/1999/xlink" width="700" height="350" viewBox="0 0 2800 1400">
<defs>
  <clipPath id="clip830">
    <rect x="0" y="0" width="2800" height="1400"/>
  </clipPath>
</defs>
<path clip-path="url(#clip830)" d="M0 1400 L2800 1400 L2800 0 L0 0  Z" fill="#ffffff" fill-rule="evenodd" fill-opacity="1"/>
<defs>
  <clipPath id="clip831">
    <rect x="560" y="0" width="1961" height="1400"/>
  </clipPath>
</defs>
<path clip-path="url(#clip830)" d="M285.914 1157.77 L1352.76 1157.77 L1352.76 90.925 L285.914 90.925  Z" fill="#ffffff" fill-rule="evenodd" fill-opacity="1"/>
<defs>
  <clipPath id="clip832">
    <rect x="285" y="90" width="1068" height="1068"/>
  </clipPath>
</defs>
<polyline clip-path="url(#clip832)" style="stroke:#000000; stroke-linecap:round; stroke-linejoin:round; stroke-width:2; stroke-opacity:0.1; fill:none" points="374.817,1157.77 374.817,90.925 "/>
<polyline clip-path="url(#clip832)" style="stroke:#000000; stroke-linecap:round; stroke-linejoin:round; stroke-width:2; stroke-opacity:0.1; fill:none" points="597.076,1157.77 597.076,90.925 "/>
<polyline clip-path="url(#clip832)" style="stroke:#000000; stroke-linecap:round; stroke-linejoin:round; stroke-width:2; stroke-opacity:0.1; fill:none" points="819.335,1157.77 819.335,90.925 "/>
<polyline clip-path="url(#clip832)" style="stroke:#000000; stroke-linecap:round; stroke-linejoin:round; stroke-width:2; stroke-opacity:0.1; fill:none" points="1041.59,1157.77 1041.59,90.925 "/>
<polyline clip-path="url(#clip832)" style="stroke:#000000; stroke-linecap:round; stroke-linejoin:round; stroke-width:2; stroke-opacity:0.1; fill:none" points="1263.85,1157.77 1263.85,90.925 "/>
<polyline clip-path="url(#clip832)" style="stroke:#000000; stroke-linecap:round; stroke-linejoin:round; stroke-width:2; stroke-opacity:0.1; fill:none" points="285.914,1068.86 1352.76,1068.86 "/>
<polyline clip-path="url(#clip832)" style="stroke:#000000; stroke-linecap:round; stroke-linejoin:round; stroke-width:2; stroke-opacity:0.1; fill:none" points="285.914,846.605 1352.76,846.605 "/>
<polyline clip-path="url(#clip832)" style="stroke:#000000; stroke-linecap:round; stroke-linejoin:round; stroke-width:2; stroke-opacity:0.1; fill:none" points="285.914,624.346 1352.76,624.346 "/>
<polyline clip-path="url(#clip832)" style="stroke:#000000; stroke-linecap:round; stroke-linejoin:round; stroke-width:2; stroke-opacity:0.1; fill:none" points="285.914,402.087 1352.76,402.087 "/>
<polyline clip-path="url(#clip832)" style="stroke:#000000; stroke-linecap:round; stroke-linejoin:round; stroke-width:2; stroke-opacity:0.1; fill:none" points="285.914,179.829 1352.76,179.829 "/>
<polyline clip-path="url(#clip830)" style="stroke:#000000; stroke-linecap:round; stroke-linejoin:round; stroke-width:4; stroke-opacity:1; fill:none" points="285.914,1157.77 1352.76,1157.77 "/>
<polyline clip-path="url(#clip830)" style="stroke:#000000; stroke-linecap:round; stroke-linejoin:round; stroke-width:4; stroke-opacity:1; fill:none" points="374.817,1157.77 374.817,1140.3 "/>
<polyline clip-path="url(#clip830)" style="stroke:#000000; stroke-linecap:round; stroke-linejoin:round; stroke-width:4; stroke-opacity:1; fill:none" points="597.076,1157.77 597.076,1140.3 "/>
<polyline clip-path="url(#clip830)" style="stroke:#000000; stroke-linecap:round; stroke-linejoin:round; stroke-width:4; stroke-opacity:1; fill:none" points="819.335,1157.77 819.335,1140.3 "/>
<polyline clip-path="url(#clip830)" style="stroke:#000000; stroke-linecap:round; stroke-linejoin:round; stroke-width:4; stroke-opacity:1; fill:none" points="1041.59,1157.77 1041.59,1140.3 "/>
<polyline clip-path="url(#clip830)" style="stroke:#000000; stroke-linecap:round; stroke-linejoin:round; stroke-width:4; stroke-opacity:1; fill:none" points="1263.85,1157.77 1263.85,1140.3 "/>
<path clip-path="url(#clip830)" d="M306.265 1206.54 L335.94 1206.54 L335.94 1210.47 L306.265 1210.47 L306.265 1206.54 Z" fill="#000000" fill-rule="nonzero" fill-opacity="1" /><path clip-path="url(#clip830)" d="M346.843 1219.43 L354.482 1219.43 L354.482 1193.07 L346.172 1194.73 L346.172 1190.47 L354.436 1188.81 L359.112 1188.81 L359.112 1219.43 L366.75 1219.43 L366.75 1223.37 L346.843 1223.37 L346.843 1219.43 Z" fill="#000000" fill-rule="nonzero" fill-opacity="1" /><path clip-path="url(#clip830)" d="M376.195 1217.49 L381.079 1217.49 L381.079 1223.37 L376.195 1223.37 L376.195 1217.49 Z" fill="#000000" fill-rule="nonzero" fill-opacity="1" /><path clip-path="url(#clip830)" d="M401.264 1191.89 Q397.653 1191.89 395.824 1195.45 Q394.019 1198.99 394.019 1206.12 Q394.019 1213.23 395.824 1216.79 Q397.653 1220.33 401.264 1220.33 Q404.898 1220.33 406.704 1216.79 Q408.533 1213.23 408.533 1206.12 Q408.533 1198.99 406.704 1195.45 Q404.898 1191.89 401.264 1191.89 M401.264 1188.18 Q407.074 1188.18 410.13 1192.79 Q413.208 1197.37 413.208 1206.12 Q413.208 1214.85 410.13 1219.45 Q407.074 1224.04 401.264 1224.04 Q395.454 1224.04 392.375 1219.45 Q389.32 1214.85 389.32 1206.12 Q389.32 1197.37 392.375 1192.79 Q395.454 1188.18 401.264 1188.18 Z" fill="#000000" fill-rule="nonzero" fill-opacity="1" /><path clip-path="url(#clip830)" d="M431.426 1191.89 Q427.815 1191.89 425.986 1195.45 Q424.181 1198.99 424.181 1206.12 Q424.181 1213.23 425.986 1216.79 Q427.815 1220.33 431.426 1220.33 Q435.06 1220.33 436.866 1216.79 Q438.694 1213.23 438.694 1206.12 Q438.694 1198.99 436.866 1195.45 Q435.06 1191.89 431.426 1191.89 M431.426 1188.18 Q437.236 1188.18 440.292 1192.79 Q443.37 1197.37 443.37 1206.12 Q443.37 1214.85 440.292 1219.45 Q437.236 1224.04 431.426 1224.04 Q425.616 1224.04 422.537 1219.45 Q419.482 1214.85 419.482 1206.12 Q419.482 1197.37 422.537 1192.79 Q425.616 1188.18 431.426 1188.18 Z" fill="#000000" fill-rule="nonzero" fill-opacity="1" /><path clip-path="url(#clip830)" d="M529.021 1206.54 L558.697 1206.54 L558.697 1210.47 L529.021 1210.47 L529.021 1206.54 Z" fill="#000000" fill-rule="nonzero" fill-opacity="1" /><path clip-path="url(#clip830)" d="M578.789 1191.89 Q575.178 1191.89 573.349 1195.45 Q571.544 1198.99 571.544 1206.12 Q571.544 1213.23 573.349 1216.79 Q575.178 1220.33 578.789 1220.33 Q582.424 1220.33 584.229 1216.79 Q586.058 1213.23 586.058 1206.12 Q586.058 1198.99 584.229 1195.45 Q582.424 1191.89 578.789 1191.89 M578.789 1188.18 Q584.599 1188.18 587.655 1192.79 Q590.734 1197.37 590.734 1206.12 Q590.734 1214.85 587.655 1219.45 Q584.599 1224.04 578.789 1224.04 Q572.979 1224.04 569.9 1219.45 Q566.845 1214.85 566.845 1206.12 Q566.845 1197.37 569.9 1192.79 Q572.979 1188.18 578.789 1188.18 Z" fill="#000000" fill-rule="nonzero" fill-opacity="1" /><path clip-path="url(#clip830)" d="M598.951 1217.49 L603.835 1217.49 L603.835 1223.37 L598.951 1223.37 L598.951 1217.49 Z" fill="#000000" fill-rule="nonzero" fill-opacity="1" /><path clip-path="url(#clip830)" d="M612.84 1188.81 L635.062 1188.81 L635.062 1190.8 L622.516 1223.37 L617.632 1223.37 L629.437 1192.74 L612.84 1192.74 L612.84 1188.81 Z" fill="#000000" fill-rule="nonzero" fill-opacity="1" /><path clip-path="url(#clip830)" d="M644.229 1188.81 L662.585 1188.81 L662.585 1192.74 L648.511 1192.74 L648.511 1201.21 Q649.53 1200.87 650.548 1200.71 Q651.567 1200.52 652.585 1200.52 Q658.372 1200.52 661.752 1203.69 Q665.131 1206.86 665.131 1212.28 Q665.131 1217.86 661.659 1220.96 Q658.187 1224.04 651.868 1224.04 Q649.692 1224.04 647.423 1223.67 Q645.178 1223.3 642.77 1222.56 L642.77 1217.86 Q644.854 1218.99 647.076 1219.55 Q649.298 1220.1 651.775 1220.1 Q655.78 1220.1 658.118 1218 Q660.456 1215.89 660.456 1212.28 Q660.456 1208.67 658.118 1206.56 Q655.78 1204.46 651.775 1204.46 Q649.9 1204.46 648.025 1204.87 Q646.173 1205.29 644.229 1206.17 L644.229 1188.81 Z" fill="#000000" fill-rule="nonzero" fill-opacity="1" /><path clip-path="url(#clip830)" d="M750.782 1206.54 L780.458 1206.54 L780.458 1210.47 L750.782 1210.47 L750.782 1206.54 Z" fill="#000000" fill-rule="nonzero" fill-opacity="1" /><path clip-path="url(#clip830)" d="M800.55 1191.89 Q796.939 1191.89 795.111 1195.45 Q793.305 1198.99 793.305 1206.12 Q793.305 1213.23 795.111 1216.79 Q796.939 1220.33 800.55 1220.33 Q804.185 1220.33 805.99 1216.79 Q807.819 1213.23 807.819 1206.12 Q807.819 1198.99 805.99 1195.45 Q804.185 1191.89 800.55 1191.89 M800.55 1188.18 Q806.36 1188.18 809.416 1192.79 Q812.495 1197.37 812.495 1206.12 Q812.495 1214.85 809.416 1219.45 Q806.36 1224.04 800.55 1224.04 Q794.74 1224.04 791.661 1219.45 Q788.606 1214.85 788.606 1206.12 Q788.606 1197.37 791.661 1192.79 Q794.74 1188.18 800.55 1188.18 Z" fill="#000000" fill-rule="nonzero" fill-opacity="1" /><path clip-path="url(#clip830)" d="M820.712 1217.49 L825.596 1217.49 L825.596 1223.37 L820.712 1223.37 L820.712 1217.49 Z" fill="#000000" fill-rule="nonzero" fill-opacity="1" /><path clip-path="url(#clip830)" d="M835.828 1188.81 L854.184 1188.81 L854.184 1192.74 L840.11 1192.74 L840.11 1201.21 Q841.129 1200.87 842.147 1200.71 Q843.166 1200.52 844.184 1200.52 Q849.971 1200.52 853.351 1203.69 Q856.731 1206.86 856.731 1212.28 Q856.731 1217.86 853.258 1220.96 Q849.786 1224.04 843.467 1224.04 Q841.291 1224.04 839.022 1223.67 Q836.777 1223.3 834.37 1222.56 L834.37 1217.86 Q836.453 1218.99 838.675 1219.55 Q840.897 1220.1 843.374 1220.1 Q847.379 1220.1 849.717 1218 Q852.055 1215.89 852.055 1212.28 Q852.055 1208.67 849.717 1206.56 Q847.379 1204.46 843.374 1204.46 Q841.499 1204.46 839.624 1204.87 Q837.772 1205.29 835.828 1206.17 L835.828 1188.81 Z" fill="#000000" fill-rule="nonzero" fill-opacity="1" /><path clip-path="url(#clip830)" d="M875.943 1191.89 Q872.332 1191.89 870.504 1195.45 Q868.698 1198.99 868.698 1206.12 Q868.698 1213.23 870.504 1216.79 Q872.332 1220.33 875.943 1220.33 Q879.578 1220.33 881.383 1216.79 Q883.212 1213.23 883.212 1206.12 Q883.212 1198.99 881.383 1195.45 Q879.578 1191.89 875.943 1191.89 M875.943 1188.18 Q881.754 1188.18 884.809 1192.79 Q887.888 1197.37 887.888 1206.12 Q887.888 1214.85 884.809 1219.45 Q881.754 1224.04 875.943 1224.04 Q870.133 1224.04 867.055 1219.45 Q863.999 1214.85 863.999 1206.12 Q863.999 1197.37 867.055 1192.79 Q870.133 1188.18 875.943 1188.18 Z" fill="#000000" fill-rule="nonzero" fill-opacity="1" /><path clip-path="url(#clip830)" d="M973.538 1206.54 L1003.21 1206.54 L1003.21 1210.47 L973.538 1210.47 L973.538 1206.54 Z" fill="#000000" fill-rule="nonzero" fill-opacity="1" /><path clip-path="url(#clip830)" d="M1023.31 1191.89 Q1019.7 1191.89 1017.87 1195.45 Q1016.06 1198.99 1016.06 1206.12 Q1016.06 1213.23 1017.87 1216.79 Q1019.7 1220.33 1023.31 1220.33 Q1026.94 1220.33 1028.75 1216.79 Q1030.58 1213.23 1030.58 1206.12 Q1030.58 1198.99 1028.75 1195.45 Q1026.94 1191.89 1023.31 1191.89 M1023.31 1188.18 Q1029.12 1188.18 1032.17 1192.79 Q1035.25 1197.37 1035.25 1206.12 Q1035.25 1214.85 1032.17 1219.45 Q1029.12 1224.04 1023.31 1224.04 Q1017.5 1224.04 1014.42 1219.45 Q1011.36 1214.85 1011.36 1206.12 Q1011.36 1197.37 1014.42 1192.79 Q1017.5 1188.18 1023.31 1188.18 Z" fill="#000000" fill-rule="nonzero" fill-opacity="1" /><path clip-path="url(#clip830)" d="M1043.47 1217.49 L1048.35 1217.49 L1048.35 1223.37 L1043.47 1223.37 L1043.47 1217.49 Z" fill="#000000" fill-rule="nonzero" fill-opacity="1" /><path clip-path="url(#clip830)" d="M1062.57 1219.43 L1078.89 1219.43 L1078.89 1223.37 L1056.94 1223.37 L1056.94 1219.43 Q1059.6 1216.68 1064.19 1212.05 Q1068.79 1207.39 1069.97 1206.05 Q1072.22 1203.53 1073.1 1201.79 Q1074 1200.03 1074 1198.34 Q1074 1195.59 1072.06 1193.85 Q1070.14 1192.12 1067.03 1192.12 Q1064.83 1192.12 1062.38 1192.88 Q1059.95 1193.64 1057.17 1195.2 L1057.17 1190.47 Q1060 1189.34 1062.45 1188.76 Q1064.9 1188.18 1066.94 1188.18 Q1072.31 1188.18 1075.51 1190.87 Q1078.7 1193.55 1078.7 1198.04 Q1078.7 1200.17 1077.89 1202.09 Q1077.1 1203.99 1075 1206.58 Q1074.42 1207.26 1071.32 1210.47 Q1068.21 1213.67 1062.57 1219.43 Z" fill="#000000" fill-rule="nonzero" fill-opacity="1" /><path clip-path="url(#clip830)" d="M1088.75 1188.81 L1107.1 1188.81 L1107.1 1192.74 L1093.03 1192.74 L1093.03 1201.21 Q1094.05 1200.87 1095.07 1200.71 Q1096.08 1200.52 1097.1 1200.52 Q1102.89 1200.52 1106.27 1203.69 Q1109.65 1206.86 1109.65 1212.28 Q1109.65 1217.86 1106.18 1220.96 Q1102.7 1224.04 1096.39 1224.04 Q1094.21 1224.04 1091.94 1223.67 Q1089.7 1223.3 1087.29 1222.56 L1087.29 1217.86 Q1089.37 1218.99 1091.59 1219.55 Q1093.82 1220.1 1096.29 1220.1 Q1100.3 1220.1 1102.64 1218 Q1104.97 1215.89 1104.97 1212.28 Q1104.97 1208.67 1102.64 1206.56 Q1100.3 1204.46 1096.29 1204.46 Q1094.42 1204.46 1092.54 1204.87 Q1090.69 1205.29 1088.75 1206.17 L1088.75 1188.81 Z" fill="#000000" fill-rule="nonzero" fill-opacity="1" /><path clip-path="url(#clip830)" d="M1226.16 1191.89 Q1222.54 1191.89 1220.72 1195.45 Q1218.91 1198.99 1218.91 1206.12 Q1218.91 1213.23 1220.72 1216.79 Q1222.54 1220.33 1226.16 1220.33 Q1229.79 1220.33 1231.6 1216.79 Q1233.42 1213.23 1233.42 1206.12 Q1233.42 1198.99 1231.6 1195.45 Q1229.79 1191.89 1226.16 1191.89 M1226.16 1188.18 Q1231.97 1188.18 1235.02 1192.79 Q1238.1 1197.37 1238.1 1206.12 Q1238.1 1214.85 1235.02 1219.45 Q1231.97 1224.04 1226.16 1224.04 Q1220.35 1224.04 1217.27 1219.45 Q1214.21 1214.85 1214.21 1206.12 Q1214.21 1197.37 1217.27 1192.79 Q1220.35 1188.18 1226.16 1188.18 Z" fill="#000000" fill-rule="nonzero" fill-opacity="1" /><path clip-path="url(#clip830)" d="M1246.32 1217.49 L1251.2 1217.49 L1251.2 1223.37 L1246.32 1223.37 L1246.32 1217.49 Z" fill="#000000" fill-rule="nonzero" fill-opacity="1" /><path clip-path="url(#clip830)" d="M1271.39 1191.89 Q1267.78 1191.89 1265.95 1195.45 Q1264.14 1198.99 1264.14 1206.12 Q1264.14 1213.23 1265.95 1216.79 Q1267.78 1220.33 1271.39 1220.33 Q1275.02 1220.33 1276.83 1216.79 Q1278.66 1213.23 1278.66 1206.12 Q1278.66 1198.99 1276.83 1195.45 Q1275.02 1191.89 1271.39 1191.89 M1271.39 1188.18 Q1277.2 1188.18 1280.25 1192.79 Q1283.33 1197.37 1283.33 1206.12 Q1283.33 1214.85 1280.25 1219.45 Q1277.2 1224.04 1271.39 1224.04 Q1265.58 1224.04 1262.5 1219.45 Q1259.44 1214.85 1259.44 1206.12 Q1259.44 1197.37 1262.5 1192.79 Q1265.58 1188.18 1271.39 1188.18 Z" fill="#000000" fill-rule="nonzero" fill-opacity="1" /><path clip-path="url(#clip830)" d="M1301.55 1191.89 Q1297.94 1191.89 1296.11 1195.45 Q1294.3 1198.99 1294.3 1206.12 Q1294.3 1213.23 1296.11 1216.79 Q1297.94 1220.33 1301.55 1220.33 Q1305.18 1220.33 1306.99 1216.79 Q1308.82 1213.23 1308.82 1206.12 Q1308.82 1198.99 1306.99 1195.45 Q1305.18 1191.89 1301.55 1191.89 M1301.55 1188.18 Q1307.36 1188.18 1310.41 1192.79 Q1313.49 1197.37 1313.49 1206.12 Q1313.49 1214.85 1310.41 1219.45 Q1307.36 1224.04 1301.55 1224.04 Q1295.74 1224.04 1292.66 1219.45 Q1289.6 1214.85 1289.6 1206.12 Q1289.6 1197.37 1292.66 1192.79 Q1295.74 1188.18 1301.55 1188.18 Z" fill="#000000" fill-rule="nonzero" fill-opacity="1" /><path clip-path="url(#clip830)" d="M821.022 1311.94 Q818.539 1318.31 816.184 1320.25 Q813.829 1322.19 809.882 1322.19 L805.203 1322.19 L805.203 1317.29 L808.641 1317.29 Q811.06 1317.29 812.396 1316.14 Q813.733 1315 815.356 1310.73 L816.407 1308.06 L801.988 1272.98 L808.195 1272.98 L819.335 1300.86 L830.475 1272.98 L836.682 1272.98 L821.022 1311.94 Z" fill="#000000" fill-rule="nonzero" fill-opacity="1" /><polyline clip-path="url(#clip830)" style="stroke:#000000; stroke-linecap:round; stroke-linejoin:round; stroke-width:4; stroke-opacity:1; fill:none" points="285.914,1157.77 285.914,90.925 "/>
<polyline clip-path="url(#clip830)" style="stroke:#000000; stroke-linecap:round; stroke-linejoin:round; stroke-width:4; stroke-opacity:1; fill:none" points="285.914,1068.86 304.812,1068.86 "/>
<polyline clip-path="url(#clip830)" style="stroke:#000000; stroke-linecap:round; stroke-linejoin:round; stroke-width:4; stroke-opacity:1; fill:none" points="285.914,846.605 304.812,846.605 "/>
<polyline clip-path="url(#clip830)" style="stroke:#000000; stroke-linecap:round; stroke-linejoin:round; stroke-width:4; stroke-opacity:1; fill:none" points="285.914,624.346 304.812,624.346 "/>
<polyline clip-path="url(#clip830)" style="stroke:#000000; stroke-linecap:round; stroke-linejoin:round; stroke-width:4; stroke-opacity:1; fill:none" points="285.914,402.087 304.812,402.087 "/>
<polyline clip-path="url(#clip830)" style="stroke:#000000; stroke-linecap:round; stroke-linejoin:round; stroke-width:4; stroke-opacity:1; fill:none" points="285.914,179.829 304.812,179.829 "/>
<path clip-path="url(#clip830)" d="M156.577 1054.66 Q152.965 1054.66 151.137 1058.23 Q149.331 1061.77 149.331 1068.9 Q149.331 1076 151.137 1079.57 Q152.965 1083.11 156.577 1083.11 Q160.211 1083.11 162.016 1079.57 Q163.845 1076 163.845 1068.9 Q163.845 1061.77 162.016 1058.23 Q160.211 1054.66 156.577 1054.66 M156.577 1050.96 Q162.387 1050.96 165.442 1055.56 Q168.521 1060.15 168.521 1068.9 Q168.521 1077.62 165.442 1082.23 Q162.387 1086.81 156.577 1086.81 Q150.766 1086.81 147.688 1082.23 Q144.632 1077.62 144.632 1068.9 Q144.632 1060.15 147.688 1055.56 Q150.766 1050.96 156.577 1050.96 Z" fill="#000000" fill-rule="nonzero" fill-opacity="1" /><path clip-path="url(#clip830)" d="M176.738 1080.26 L181.623 1080.26 L181.623 1086.14 L176.738 1086.14 L176.738 1080.26 Z" fill="#000000" fill-rule="nonzero" fill-opacity="1" /><path clip-path="url(#clip830)" d="M201.808 1054.66 Q198.197 1054.66 196.368 1058.23 Q194.562 1061.77 194.562 1068.9 Q194.562 1076 196.368 1079.57 Q198.197 1083.11 201.808 1083.11 Q205.442 1083.11 207.248 1079.57 Q209.076 1076 209.076 1068.9 Q209.076 1061.77 207.248 1058.23 Q205.442 1054.66 201.808 1054.66 M201.808 1050.96 Q207.618 1050.96 210.673 1055.56 Q213.752 1060.15 213.752 1068.9 Q213.752 1077.62 210.673 1082.23 Q207.618 1086.81 201.808 1086.81 Q195.998 1086.81 192.919 1082.23 Q189.863 1077.62 189.863 1068.9 Q189.863 1060.15 192.919 1055.56 Q195.998 1050.96 201.808 1050.96 Z" fill="#000000" fill-rule="nonzero" fill-opacity="1" /><path clip-path="url(#clip830)" d="M231.97 1054.66 Q228.359 1054.66 226.53 1058.23 Q224.724 1061.77 224.724 1068.9 Q224.724 1076 226.53 1079.57 Q228.359 1083.11 231.97 1083.11 Q235.604 1083.11 237.409 1079.57 Q239.238 1076 239.238 1068.9 Q239.238 1061.77 237.409 1058.23 Q235.604 1054.66 231.97 1054.66 M231.97 1050.96 Q237.78 1050.96 240.835 1055.56 Q243.914 1060.15 243.914 1068.9 Q243.914 1077.62 240.835 1082.23 Q237.78 1086.81 231.97 1086.81 Q226.159 1086.81 223.081 1082.23 Q220.025 1077.62 220.025 1068.9 Q220.025 1060.15 223.081 1055.56 Q226.159 1050.96 231.97 1050.96 Z" fill="#000000" fill-rule="nonzero" fill-opacity="1" /><path clip-path="url(#clip830)" d="M157.572 832.403 Q153.961 832.403 152.132 835.968 Q150.327 839.51 150.327 846.639 Q150.327 853.746 152.132 857.311 Q153.961 860.852 157.572 860.852 Q161.206 860.852 163.012 857.311 Q164.84 853.746 164.84 846.639 Q164.84 839.51 163.012 835.968 Q161.206 832.403 157.572 832.403 M157.572 828.7 Q163.382 828.7 166.438 833.306 Q169.516 837.889 169.516 846.639 Q169.516 855.366 166.438 859.973 Q163.382 864.556 157.572 864.556 Q151.762 864.556 148.683 859.973 Q145.627 855.366 145.627 846.639 Q145.627 837.889 148.683 833.306 Q151.762 828.7 157.572 828.7 Z" fill="#000000" fill-rule="nonzero" fill-opacity="1" /><path clip-path="url(#clip830)" d="M177.734 858.005 L182.618 858.005 L182.618 863.885 L177.734 863.885 L177.734 858.005 Z" fill="#000000" fill-rule="nonzero" fill-opacity="1" /><path clip-path="url(#clip830)" d="M196.831 859.95 L213.15 859.95 L213.15 863.885 L191.206 863.885 L191.206 859.95 Q193.868 857.195 198.451 852.565 Q203.058 847.913 204.238 846.57 Q206.484 844.047 207.363 842.311 Q208.266 840.552 208.266 838.862 Q208.266 836.107 206.322 834.371 Q204.4 832.635 201.298 832.635 Q199.099 832.635 196.646 833.399 Q194.215 834.163 191.437 835.714 L191.437 830.991 Q194.261 829.857 196.715 829.278 Q199.169 828.7 201.206 828.7 Q206.576 828.7 209.771 831.385 Q212.965 834.07 212.965 838.561 Q212.965 840.69 212.155 842.612 Q211.368 844.51 209.261 847.102 Q208.683 847.774 205.581 850.991 Q202.479 854.186 196.831 859.95 Z" fill="#000000" fill-rule="nonzero" fill-opacity="1" /><path clip-path="url(#clip830)" d="M223.011 829.325 L241.368 829.325 L241.368 833.26 L227.294 833.26 L227.294 841.732 Q228.312 841.385 229.331 841.223 Q230.349 841.038 231.368 841.038 Q237.155 841.038 240.534 844.209 Q243.914 847.38 243.914 852.797 Q243.914 858.375 240.442 861.477 Q236.97 864.556 230.65 864.556 Q228.474 864.556 226.206 864.186 Q223.96 863.815 221.553 863.075 L221.553 858.375 Q223.636 859.51 225.859 860.065 Q228.081 860.621 230.558 860.621 Q234.562 860.621 236.9 858.514 Q239.238 856.408 239.238 852.797 Q239.238 849.186 236.9 847.079 Q234.562 844.973 230.558 844.973 Q228.683 844.973 226.808 845.389 Q224.956 845.806 223.011 846.686 L223.011 829.325 Z" fill="#000000" fill-rule="nonzero" fill-opacity="1" /><path clip-path="url(#clip830)" d="M156.577 610.145 Q152.965 610.145 151.137 613.709 Q149.331 617.251 149.331 624.381 Q149.331 631.487 151.137 635.052 Q152.965 638.594 156.577 638.594 Q160.211 638.594 162.016 635.052 Q163.845 631.487 163.845 624.381 Q163.845 617.251 162.016 613.709 Q160.211 610.145 156.577 610.145 M156.577 606.441 Q162.387 606.441 165.442 611.047 Q168.521 615.631 168.521 624.381 Q168.521 633.108 165.442 637.714 Q162.387 642.297 156.577 642.297 Q150.766 642.297 147.688 637.714 Q144.632 633.108 144.632 624.381 Q144.632 615.631 147.688 611.047 Q150.766 606.441 156.577 606.441 Z" fill="#000000" fill-rule="nonzero" fill-opacity="1" /><path clip-path="url(#clip830)" d="M176.738 635.746 L181.623 635.746 L181.623 641.626 L176.738 641.626 L176.738 635.746 Z" fill="#000000" fill-rule="nonzero" fill-opacity="1" /><path clip-path="url(#clip830)" d="M191.854 607.066 L210.21 607.066 L210.21 611.001 L196.136 611.001 L196.136 619.473 Q197.155 619.126 198.174 618.964 Q199.192 618.779 200.211 618.779 Q205.998 618.779 209.377 621.95 Q212.757 625.121 212.757 630.538 Q212.757 636.117 209.285 639.219 Q205.812 642.297 199.493 642.297 Q197.317 642.297 195.049 641.927 Q192.803 641.557 190.396 640.816 L190.396 636.117 Q192.479 637.251 194.701 637.807 Q196.924 638.362 199.4 638.362 Q203.405 638.362 205.743 636.256 Q208.081 634.149 208.081 630.538 Q208.081 626.927 205.743 624.821 Q203.405 622.714 199.4 622.714 Q197.525 622.714 195.65 623.131 Q193.799 623.547 191.854 624.427 L191.854 607.066 Z" fill="#000000" fill-rule="nonzero" fill-opacity="1" /><path clip-path="url(#clip830)" d="M231.97 610.145 Q228.359 610.145 226.53 613.709 Q224.724 617.251 224.724 624.381 Q224.724 631.487 226.53 635.052 Q228.359 638.594 231.97 638.594 Q235.604 638.594 237.409 635.052 Q239.238 631.487 239.238 624.381 Q239.238 617.251 237.409 613.709 Q235.604 610.145 231.97 610.145 M231.97 606.441 Q237.78 606.441 240.835 611.047 Q243.914 615.631 243.914 624.381 Q243.914 633.108 240.835 637.714 Q237.78 642.297 231.97 642.297 Q226.159 642.297 223.081 637.714 Q220.025 633.108 220.025 624.381 Q220.025 615.631 223.081 611.047 Q226.159 606.441 231.97 606.441 Z" fill="#000000" fill-rule="nonzero" fill-opacity="1" /><path clip-path="url(#clip830)" d="M157.572 387.886 Q153.961 387.886 152.132 391.451 Q150.327 394.992 150.327 402.122 Q150.327 409.228 152.132 412.793 Q153.961 416.335 157.572 416.335 Q161.206 416.335 163.012 412.793 Q164.84 409.228 164.84 402.122 Q164.84 394.992 163.012 391.451 Q161.206 387.886 157.572 387.886 M157.572 384.182 Q163.382 384.182 166.438 388.789 Q169.516 393.372 169.516 402.122 Q169.516 410.849 166.438 415.455 Q163.382 420.039 157.572 420.039 Q151.762 420.039 148.683 415.455 Q145.627 410.849 145.627 402.122 Q145.627 393.372 148.683 388.789 Q151.762 384.182 157.572 384.182 Z" fill="#000000" fill-rule="nonzero" fill-opacity="1" /><path clip-path="url(#clip830)" d="M177.734 413.488 L182.618 413.488 L182.618 419.367 L177.734 419.367 L177.734 413.488 Z" fill="#000000" fill-rule="nonzero" fill-opacity="1" /><path clip-path="url(#clip830)" d="M191.623 384.807 L213.845 384.807 L213.845 386.798 L201.298 419.367 L196.414 419.367 L208.22 388.742 L191.623 388.742 L191.623 384.807 Z" fill="#000000" fill-rule="nonzero" fill-opacity="1" /><path clip-path="url(#clip830)" d="M223.011 384.807 L241.368 384.807 L241.368 388.742 L227.294 388.742 L227.294 397.215 Q228.312 396.867 229.331 396.705 Q230.349 396.52 231.368 396.52 Q237.155 396.52 240.534 399.691 Q243.914 402.863 243.914 408.279 Q243.914 413.858 240.442 416.96 Q236.97 420.039 230.65 420.039 Q228.474 420.039 226.206 419.668 Q223.96 419.298 221.553 418.557 L221.553 413.858 Q223.636 414.992 225.859 415.548 Q228.081 416.103 230.558 416.103 Q234.562 416.103 236.9 413.997 Q239.238 411.89 239.238 408.279 Q239.238 404.668 236.9 402.562 Q234.562 400.455 230.558 400.455 Q228.683 400.455 226.808 400.872 Q224.956 401.289 223.011 402.168 L223.011 384.807 Z" fill="#000000" fill-rule="nonzero" fill-opacity="1" /><path clip-path="url(#clip830)" d="M147.387 193.173 L155.026 193.173 L155.026 166.808 L146.715 168.474 L146.715 164.215 L154.979 162.549 L159.655 162.549 L159.655 193.173 L167.294 193.173 L167.294 197.109 L147.387 197.109 L147.387 193.173 Z" fill="#000000" fill-rule="nonzero" fill-opacity="1" /><path clip-path="url(#clip830)" d="M176.738 191.229 L181.623 191.229 L181.623 197.109 L176.738 197.109 L176.738 191.229 Z" fill="#000000" fill-rule="nonzero" fill-opacity="1" /><path clip-path="url(#clip830)" d="M201.808 165.627 Q198.197 165.627 196.368 169.192 Q194.562 172.734 194.562 179.863 Q194.562 186.97 196.368 190.534 Q198.197 194.076 201.808 194.076 Q205.442 194.076 207.248 190.534 Q209.076 186.97 209.076 179.863 Q209.076 172.734 207.248 169.192 Q205.442 165.627 201.808 165.627 M201.808 161.924 Q207.618 161.924 210.673 166.53 Q213.752 171.113 213.752 179.863 Q213.752 188.59 210.673 193.197 Q207.618 197.78 201.808 197.78 Q195.998 197.78 192.919 193.197 Q189.863 188.59 189.863 179.863 Q189.863 171.113 192.919 166.53 Q195.998 161.924 201.808 161.924 Z" fill="#000000" fill-rule="nonzero" fill-opacity="1" /><path clip-path="url(#clip830)" d="M231.97 165.627 Q228.359 165.627 226.53 169.192 Q224.724 172.734 224.724 179.863 Q224.724 186.97 226.53 190.534 Q228.359 194.076 231.97 194.076 Q235.604 194.076 237.409 190.534 Q239.238 186.97 239.238 179.863 Q239.238 172.734 237.409 169.192 Q235.604 165.627 231.97 165.627 M231.97 161.924 Q237.78 161.924 240.835 166.53 Q243.914 171.113 243.914 179.863 Q243.914 188.59 240.835 193.197 Q237.78 197.78 231.97 197.78 Q226.159 197.78 223.081 193.197 Q220.025 188.59 220.025 179.863 Q220.025 171.113 223.081 166.53 Q226.159 161.924 231.97 161.924 Z" fill="#000000" fill-rule="nonzero" fill-opacity="1" /><path clip-path="url(#clip830)" d="M52.7282 637.857 L52.7282 610.039 L58.0754 610.039 L83.6973 632.064 L83.6973 610.039 L88.3761 610.039 L88.3761 638.653 L83.0289 638.653 L57.407 616.628 L57.407 637.857 L52.7282 637.857 Z" fill="#000000" fill-rule="nonzero" fill-opacity="1" /><path clip-path="url(#clip832)" d="M2152.89 1068.86 L2151.1 1012.48 L2145.73 956.318 L2136.82 900.612 L2124.39 845.584 L2108.5 791.455 L2089.2 738.443 L2066.59 686.761 L2040.74 636.618 L2011.76 588.215 L1979.77 541.748 L1944.89 497.403 L1907.28 455.359 L1867.07 415.786 L1824.44 378.842 L1779.54 344.677 L1732.57 313.428 L1683.72 285.221 L1633.17 260.169 L1581.14 238.373 L1527.82 219.922 L1473.45 204.889 L1418.23 193.335 L1362.39 185.306 L1306.15 180.835 L1249.75 179.94 L1193.4 182.625 L1137.33 188.878 L1081.77 198.674 L1026.95 211.974 L973.078 228.725 L920.378 248.858 L869.062 272.294 L819.335 298.937 L771.398 328.68 L725.444 361.403 L681.658 396.976 L640.217 435.253 L601.286 476.083 L565.024 519.299 L531.575 564.727 L501.075 612.186 L473.647 661.484 L449.4 712.422 L428.433 764.796 L410.83 818.393 L396.661 873 L385.985 928.395 L378.843 984.355 L375.265 1040.66 L375.265 1097.07 L378.843 1153.37 L385.985 1209.33 L396.661 1264.73 L410.83 1319.33 L428.433 1372.93 L449.4 1425.3 L473.647 1476.24 L501.075 1525.54 L531.575 1573 L565.024 1618.43 L601.286 1661.64 L640.217 1702.47 L681.658 1740.75 L725.444 1776.32 L771.398 1809.05 L819.335 1838.79 L869.062 1865.43 L920.378 1888.87 L973.078 1909 L1026.95 1925.75 L1081.77 1939.05 L1137.33 1948.85 L1193.4 1955.1 L1249.75 1957.79 L1306.15 1956.89 L1362.39 1952.42 L1418.23 1944.39 L1473.45 1932.84 L1527.82 1917.8 L1581.14 1899.35 L1633.17 1877.56 L1683.72 1852.51 L1732.57 1824.3 L1779.54 1793.05 L1824.44 1758.88 L1867.07 1721.94 L1907.28 1682.37 L1944.89 1640.32 L1979.77 1595.98 L2011.76 1549.51 L2040.74 1501.11 L2066.59 1450.97 L2089.2 1399.28 L2108.5 1346.27 L2124.39 1292.14 L2136.82 1237.11 L2145.73 1181.41 L2151.1 1125.25 L2152.89 1068.86 L2152.89 1068.86  Z" fill="#808080" fill-rule="evenodd" fill-opacity="0.1"/>
<polyline clip-path="url(#clip832)" style="stroke:#000000; stroke-linecap:round; stroke-linejoin:round; stroke-width:4; stroke-opacity:1; fill:none" points="2152.89,1068.86 2151.1,1012.48 2145.73,956.318 2136.82,900.612 2124.39,845.584 2108.5,791.455 2089.2,738.443 2066.59,686.761 2040.74,636.618 2011.76,588.215 1979.77,541.748 1944.89,497.403 1907.28,455.359 1867.07,415.786 1824.44,378.842 1779.54,344.677 1732.57,313.428 1683.72,285.221 1633.17,260.169 1581.14,238.373 1527.82,219.922 1473.45,204.889 1418.23,193.335 1362.39,185.306 1306.15,180.835 1249.75,179.94 1193.4,182.625 1137.33,188.878 1081.77,198.674 1026.95,211.974 973.078,228.725 920.378,248.858 869.062,272.294 819.335,298.937 771.398,328.68 725.444,361.403 681.658,396.976 640.217,435.253 601.286,476.083 565.024,519.299 531.575,564.727 501.075,612.186 473.647,661.484 449.4,712.422 428.433,764.796 410.83,818.393 396.661,873 385.985,928.395 378.843,984.355 375.265,1040.66 375.265,1097.07 378.843,1153.37 385.985,1209.33 396.661,1264.73 410.83,1319.33 428.433,1372.93 449.4,1425.3 473.647,1476.24 501.075,1525.54 531.575,1573 565.024,1618.43 601.286,1661.64 640.217,1702.47 681.658,1740.75 725.444,1776.32 771.398,1809.05 819.335,1838.79 869.062,1865.43 920.378,1888.87 973.078,1909 1026.95,1925.75 1081.77,1939.05 1137.33,1948.85 1193.4,1955.1 1249.75,1957.79 1306.15,1956.89 1362.39,1952.42 1418.23,1944.39 1473.45,1932.84 1527.82,1917.8 1581.14,1899.35 1633.17,1877.56 1683.72,1852.51 1732.57,1824.3 1779.54,1793.05 1824.44,1758.88 1867.07,1721.94 1907.28,1682.37 1944.89,1640.32 1979.77,1595.98 2011.76,1549.51 2040.74,1501.11 2066.59,1450.97 2089.2,1399.28 2108.5,1346.27 2124.39,1292.14 2136.82,1237.11 2145.73,1181.41 2151.1,1125.25 2152.89,1068.86 2152.89,1068.86 "/>
<polyline clip-path="url(#clip832)" style="stroke:#000000; stroke-linecap:round; stroke-linejoin:round; stroke-width:2; stroke-opacity:1; fill:none" points="374.817,1068.86 2152.89,1068.86 "/>
<polyline clip-path="url(#clip832)" style="stroke:#000000; stroke-linecap:round; stroke-linejoin:round; stroke-width:2; stroke-opacity:1; fill:none" points="1263.85,1957.9 1263.85,179.829 "/>
<polyline clip-path="url(#clip832)" style="stroke:#000000; stroke-linecap:round; stroke-linejoin:round; stroke-width:2; stroke-opacity:1; fill:none" stroke-dasharray="8, 5" points="374.982,1085.96 2152.72,1085.96 "/>
<polyline clip-path="url(#clip832)" style="stroke:#009af9; stroke-linecap:round; stroke-linejoin:round; stroke-width:8; stroke-opacity:1; fill:none" points="1263.85,179.829 1225.97,180.638 1188.32,183.061 1150.96,187.086 1113.96,192.698 1077.39,199.881 1041.32,208.614 1005.8,218.874 970.897,230.638 936.676,243.875 903.194,258.557 870.509,274.649 838.676,292.117 807.75,310.923 777.784,331.026 748.827,352.385 720.929,374.955 694.134,398.689 668.488,423.54 644.032,449.457 620.805,476.388 598.844,504.28 578.183,533.078 558.855,562.726 540.89,593.165 524.313,624.338 509.149,656.183 495.419,688.641 483.142,721.649 472.335,755.145 463.01,789.066 455.177,823.348 448.846,857.927 444.02,892.739 440.702,927.72 438.892,962.804 438.585,997.928 439.777,1033.03 442.458,1068.04 446.202,1090.74 449.5,1084.68 452.957,1086.3 456.357,1085.87 459.754,1085.98 463.134,1085.95 466.501,1085.96 469.853,1085.96 473.191,1085.96 476.515,1085.96 479.826,1085.96 483.122,1085.96 486.405,1085.96 489.673,1085.96 492.928,1085.96 496.17,1085.96 499.398,1085.96 502.612,1085.96 505.813,1085.96 509,1085.96 512.174,1085.96 515.335,1085.96 518.482,1085.96 521.616,1085.96 524.737,1085.96 527.845,1085.96 530.94,1085.96 534.022,1085.96 537.091,1085.96 540.147,1085.96 543.19,1085.96 546.221,1085.96 549.238,1085.96 552.244,1085.96 555.236,1085.96 558.216,1085.96 561.183,1085.96 564.138,1085.96 567.081,1085.96 570.011,1085.96 572.929,1085.96 575.835,1085.96 578.729,1085.96 581.61,1085.96 584.479,1085.96 587.336,1085.96 590.182,1085.96 593.015,1085.96 595.837,1085.96 598.646,1085.96 601.444,1085.96 604.23,1085.96 607.004,1085.96 609.767,1085.96 612.518,1085.96 615.258,1085.96 617.986,1085.96 620.703,1085.96 623.408,1085.96 626.102,1085.96 628.785,1085.96 631.456,1085.96 634.116,1085.96 636.765,1085.96 639.403,1085.96 642.03,1085.96 644.646,1085.96 647.251,1085.96 649.845,1085.96 652.428,1085.96 655,1085.96 657.562,1085.96 660.112,1085.96 662.652,1085.96 665.182,1085.96 667.701,1085.96 670.209,1085.96 672.706,1085.96 675.194,1085.96 677.67,1085.96 680.137,1085.96 682.593,1085.96 685.039,1085.96 687.474,1085.96 689.899,1085.96 692.314,1085.96 694.719,1085.96 697.114,1085.96 699.499,1085.96 701.874,1085.96 704.239,1085.96 706.594,1085.96 708.939,1085.96 711.274,1085.96 713.6,1085.96 715.915,1085.96 718.221,1085.96 720.518,1085.96 722.804,1085.96 725.082,1085.96 727.349,1085.96 729.607,1085.96 731.856,1085.96 734.095,1085.96 736.325,1085.96 738.545,1085.96 740.757,1085.96 742.958,1085.96 745.151,1085.96 747.335,1085.96 749.509,1085.96 751.674,1085.96 753.83,1085.96 755.977,1085.96 758.115,1085.96 760.244,1085.96 762.365,1085.96 764.476,1085.96 766.578,1085.96 768.672,1085.96 770.757,1085.96 772.833,1085.96 774.901,1085.96 776.959,1085.96 779.009,1085.96 781.051,1085.96 783.084,1085.96 785.109,1085.96 787.125,1085.96 789.132,1085.96 791.131,1085.96 793.122,1085.96 795.104,1085.96 797.079,1085.96 799.044,1085.96 801.002,1085.96 802.952,1085.96 804.893,1085.96 806.826,1085.96 808.751,1085.96 810.668,1085.96 812.577,1085.96 814.478,1085.96 816.371,1085.96 818.256,1085.96 820.133,1085.96 822.002,1085.96 823.864,1085.96 825.717,1085.96 827.563,1085.96 829.401,1085.96 831.232,1085.96 833.055,1085.96 834.87,1085.96 836.677,1085.96 838.477,1085.96 840.27,1085.96 842.055,1085.96 843.832,1085.96 845.602,1085.96 847.365,1085.96 849.12,1085.96 850.868,1085.96 852.609,1085.96 854.342,1085.96 856.068,1085.96 857.787,1085.96 859.499,1085.96 861.203,1085.96 862.9,1085.96 864.591,1085.96 866.274,1085.96 867.95,1085.96 869.619,1085.96 871.281,1085.96 872.936,1085.96 874.584,1085.96 876.226,1085.96 877.86,1085.96 879.488,1085.96 881.109,1085.96 882.723,1085.96 884.33,1085.96 885.93,1085.96 887.524,1085.96 889.112,1085.96 890.692,1085.96 892.266,1085.96 893.833,1085.96 895.394,1085.96 896.948,1085.96 898.496,1085.96 900.037,1085.96 901.572,1085.96 903.101,1085.96 904.623,1085.96 906.138,1085.96 907.648,1085.96 909.151,1085.96 910.648,1085.96 912.138,1085.96 913.622,1085.96 915.1,1085.96 916.572,1085.96 918.038,1085.96 919.497,1085.96 920.951,1085.96 922.398,1085.96 923.84,1085.96 925.275,1085.96 926.704,1085.96 928.128,1085.96 929.545,1085.96 930.957,1085.96 932.362,1085.96 933.762,1085.96 935.156,1085.96 936.544,1085.96 937.926,1085.96 939.302,1085.96 940.673,1085.96 942.038,1085.96 943.397,1085.96 944.751,1085.96 946.099,1085.96 947.441,1085.96 948.778,1085.96 950.109,1085.96 951.435,1085.96 952.755,1085.96 954.069,1085.96 955.378,1085.96 956.682,1085.96 957.98,1085.96 959.273,1085.96 960.56,1085.96 961.842,1085.96 963.119,1085.96 964.39,1085.96 965.656,1085.96 966.917,1085.96 968.172,1085.96 969.422,1085.96 970.667,1085.96 971.907,1085.96 973.141,1085.96 974.371,1085.96 975.595,1085.96 976.814,1085.96 978.029,1085.96 979.238,1085.96 980.442,1085.96 981.641,1085.96 982.835,1085.96 984.024,1085.96 985.208,1085.96 986.387,1085.96 987.561,1085.96 988.73,1085.96 989.895,1085.96 991.054,1085.96 992.209,1085.96 993.359,1085.96 994.504,1085.96 995.644,1085.96 996.78,1085.96 997.911,1085.96 999.037,1085.96 1000.16,1085.96 1001.28,1085.96 1002.39,1085.96 1003.5,1085.96 1004.6,1085.96 1005.7,1085.96 1006.79,1085.96 1007.88,1085.96 1008.96,1085.96 1010.04,1085.96 1011.12,1085.96 1012.19,1085.96 1013.26,1085.96 1014.32,1085.96 1015.38,1085.96 1016.43,1085.96 1017.48,1085.96 1018.52,1085.96 1019.57,1085.96 1020.6,1085.96 1021.63,1085.96 1022.66,1085.96 1023.68,1085.96 1024.7,1085.96 1025.72,1085.96 1026.73,1085.96 1027.73,1085.96 1028.74,1085.96 1029.73,1085.96 1030.73,1085.96 1031.72,1085.96 1032.7,1085.96 1033.68,1085.96 1034.66,1085.96 1035.63,1085.96 1036.6,1085.96 1037.57,1085.96 1038.53,1085.96 1039.49,1085.96 1040.44,1085.96 1041.39,1085.96 1042.33,1085.96 1043.28,1085.96 1044.21,1085.96 1045.15,1085.96 1046.08,1085.96 1047,1085.96 1047.92,1085.96 1048.84,1085.96 1049.76,1085.96 1050.67,1085.96 1051.57,1085.96 1052.48,1085.96 1053.38,1085.96 1054.27,1085.96 1055.16,1085.96 1056.05,1085.96 1056.94,1085.96 1057.82,1085.96 1058.7,1085.96 1059.57,1085.96 1060.44,1085.96 1061.31,1085.96 1062.17,1085.96 1063.03,1085.96 1063.88,1085.96 1064.73,1085.96 1065.58,1085.96 1066.43,1085.96 1067.27,1085.96 1068.11,1085.96 1068.94,1085.96 1069.77,1085.96 1070.6,1085.96 1071.43,1085.96 1072.25,1085.96 1073.06,1085.96 1073.88,1085.96 1074.69,1085.96 1075.5,1085.96 1076.3,1085.96 1077.1,1085.96 1077.9,1085.96 1078.69,1085.96 1079.48,1085.96 1080.27,1085.96 1081.05,1085.96 1081.84,1085.96 1082.61,1085.96 1083.39,1085.96 1084.16,1085.96 1084.93,1085.96 1085.69,1085.96 1086.45,1085.96 1087.21,1085.96 1087.97,1085.96 1088.72,1085.96 1089.47,1085.96 1090.22,1085.96 1090.96,1085.96 1091.7,1085.96 1092.44,1085.96 1093.17,1085.96 1093.9,1085.96 1094.63,1085.96 1095.36,1085.96 1096.08,1085.96 1096.8,1085.96 1097.51,1085.96 1098.23,1085.96 1098.94,1085.96 1099.64,1085.96 1100.35,1085.96 1101.05,1085.96 1101.75,1085.96 1102.45,1085.96 1103.14,1085.96 1103.83,1085.96 1104.52,1085.96 1105.2,1085.96 1105.88,1085.96 1106.56,1085.96 1107.24,1085.96 1107.91,1085.96 1108.58,1085.96 1109.25,1085.96 1109.91,1085.96 1110.58,1085.96 1111.24,1085.96 1111.89,1085.96 1112.55,1085.96 1113.2,1085.96 1113.85,1085.96 1114.49,1085.96 1115.14,1085.96 1115.78,1085.96 1116.42,1085.96 1117.05,1085.96 1117.68,1085.96 1118.31,1085.96 1118.94,1085.96 1119.57,1085.96 1120.19,1085.96 1120.81,1085.96 1121.43,1085.96 1122.04,1085.96 1122.66,1085.96 1123.27,1085.96 1123.87,1085.96 1124.48,1085.96 1125.08,1085.96 1125.68,1085.96 1126.28,1085.96 1126.88,1085.96 1127.47,1085.96 1128.06,1085.96 1128.65,1085.96 1129.23,1085.96 1129.82,1085.96 1130.4,1085.96 1130.98,1085.96 1131.55,1085.96 1132.13,1085.96 1132.7,1085.96 1133.27,1085.96 1133.84,1085.96 1134.4,1085.96 1134.96,1085.96 1135.52,1085.96 1136.08,1085.96 1136.64,1085.96 1137.19,1085.96 1137.74,1085.96 1138.29,1085.96 1138.84,1085.96 1139.38,1085.96 1139.92,1085.96 1140.46,1085.96 1141,1085.96 1141.54,1085.96 1142.07,1085.96 1142.6,1085.96 1143.13,1085.96 1143.66,1085.96 1144.18,1085.96 1144.71,1085.96 1145.23,1085.96 1145.74,1085.96 1146.26,1085.96 1146.78,1085.96 1147.29,1085.96 1147.8,1085.96 1148.31,1085.96 1148.81,1085.96 1149.32,1085.96 1149.82,1085.96 1150.32,1085.96 1150.82,1085.96 1151.31,1085.96 1151.81,1085.96 1152.3,1085.96 1152.79,1085.96 1153.28,1085.96 1153.77,1085.96 1154.25,1085.96 1154.73,1085.96 1155.21,1085.96 1155.69,1085.96 1156.17,1085.96 1156.64,1085.96 1157.12,1085.96 1157.59,1085.96 1158.06,1085.96 1158.52,1085.96 1158.99,1085.96 1159.45,1085.96 1159.91,1085.96 1160.37,1085.96 1160.83,1085.96 1161.29,1085.96 1161.74,1085.96 1162.19,1085.96 1162.65,1085.96 1163.09,1085.96 1163.54,1085.96 1163.99,1085.96 1164.43,1085.96 1164.87,1085.96 1165.31,1085.96 1165.75,1085.96 1166.19,1085.96 1166.62,1085.96 1167.06,1085.96 1167.49,1085.96 1167.92,1085.96 1168.35,1085.96 1168.77,1085.96 1169.2,1085.96 1169.62,1085.96 1170.04,1085.96 1170.46,1085.96 1170.88,1085.96 1171.3,1085.96 1171.71,1085.96 1172.12,1085.96 1172.54,1085.96 1172.95,1085.96 1173.35,1085.96 1173.76,1085.96 1174.17,1085.96 1174.57,1085.96 1174.97,1085.96 1175.37,1085.96 1175.77,1085.96 1176.17,1085.96 1176.56,1085.96 1176.96,1085.96 1177.35,1085.96 1177.74,1085.96 1178.13,1085.96 1178.52,1085.96 1178.91,1085.96 1179.29,1085.96 1179.68,1085.96 1180.06,1085.96 1180.44,1085.96 1180.82,1085.96 1181.2,1085.96 1181.57,1085.96 1181.95,1085.96 1182.32,1085.96 1182.69,1085.96 1183.06,1085.96 1183.43,1085.96 1183.8,1085.96 1184.17,1085.96 1184.53,1085.96 1184.9,1085.96 1185.26,1085.96 1185.62,1085.96 1185.98,1085.96 1186.34,1085.96 1186.69,1085.96 1187.05,1085.96 1187.4,1085.96 1187.76,1085.96 1188.11,1085.96 1188.46,1085.96 1188.81,1085.96 1189.15,1085.96 1189.5,1085.96 1189.85,1085.96 1190.19,1085.96 1190.53,1085.96 1190.87,1085.96 1191.21,1085.96 1191.55,1085.96 1191.89,1085.96 1192.22,1085.96 1192.56,1085.96 1192.89,1085.96 1193.22,1085.96 1193.55,1085.96 1193.88,1085.96 1194.21,1085.96 1194.54,1085.96 1194.87,1085.96 1195.19,1085.96 1195.51,1085.96 1195.84,1085.96 1196.16,1085.96 1196.48,1085.96 1196.8,1085.96 1197.11,1085.96 1197.43,1085.96 1197.75,1085.96 1198.06,1085.96 1198.37,1085.96 1198.68,1085.96 1199,1085.96 1199.31,1085.96 1199.61,1085.96 1199.92,1085.96 1200.23,1085.96 1200.53,1085.96 1200.84,1085.96 1201.14,1085.96 1201.44,1085.96 1201.74,1085.96 1202.04,1085.96 1202.34,1085.96 1202.64,1085.96 1202.94,1085.96 1203.23,1085.96 1203.53,1085.96 1203.82,1085.96 1204.11,1085.96 1204.4,1085.96 1204.69,1085.96 1204.98,1085.96 1205.27,1085.96 1205.56,1085.96 1205.84,1085.96 1206.13,1085.96 1206.41,1085.96 1206.7,1085.96 1206.98,1085.96 1207.26,1085.96 1207.54,1085.96 1207.82,1085.96 1208.1,1085.96 1208.38,1085.96 1208.65,1085.96 1208.93,1085.96 1209.2,1085.96 1209.48,1085.96 1209.75,1085.96 1210.02,1085.96 1210.29,1085.96 1210.56,1085.96 1210.83,1085.96 1211.1,1085.96 1211.37,1085.96 1211.64,1085.96 1211.9,1085.96 1212.17,1085.96 1212.43,1085.96 1212.69,1085.96 1212.95,1085.96 1213.22,1085.96 1213.48,1085.96 1213.74,1085.96 1213.99,1085.96 1214.25,1085.96 1214.51,1085.96 1214.77,1085.96 1215.02,1085.96 1215.28,1085.96 1215.53,1085.96 1215.78,1085.96 1216.03,1085.96 1216.29,1085.96 1216.54,1085.96 1216.79,1085.96 1217.04,1085.96 1217.28,1085.96 1217.53,1085.96 1217.78,1085.96 1218.02,1085.96 1218.27,1085.96 1218.51,1085.96 1218.76,1085.96 1219,1085.96 1219.24,1085.96 1219.48,1085.96 1219.73,1085.96 1219.97,1085.96 1220.2,1085.96 1220.44,1085.96 1220.68,1085.96 1220.92,1085.96 1221.16,1085.96 1221.39,1085.96 1221.63,1085.96 1221.86,1085.96 1222.1,1085.96 1222.33,1085.96 1222.56,1085.96 1222.79,1085.96 1223.02,1085.96 1223.25,1085.96 1223.49,1085.96 1223.71,1085.96 1223.94,1085.96 1224.17,1085.96 1224.4,1085.96 1224.63,1085.96 1224.85,1085.96 1225.08,1085.96 1225.3,1085.96 1225.53,1085.96 1225.75,1085.96 1225.98,1085.96 1226.2,1085.96 1226.42,1085.96 1226.64,1085.96 1226.86,1085.96 1227.08,1085.96 1227.3,1085.96 1227.52,1085.96 1227.74,1085.96 1227.96,1085.96 1228.18,1085.96 1228.4,1085.96 1228.62,1085.96 1228.83,1085.96 1229.05,1085.96 1229.26,1085.96 1229.48,1085.96 1229.69,1085.96 1229.91,1085.96 1230.12,1085.96 1230.33,1085.96 1230.55,1085.96 1230.76,1085.96 1230.97,1085.96 1231.18,1085.96 1231.4,1085.96 1231.61,1085.96 1231.82,1085.96 1232.03,1085.96 1232.24,1085.96 1232.45,1085.96 1232.65,1085.96 1232.86,1085.96 1233.07,1085.96 1233.28,1085.96 1233.49,1085.96 1233.69,1085.96 1233.9,1085.96 1234.11,1085.96 1234.31,1085.96 1234.52,1085.96 1234.73,1085.96 1234.93,1085.96 1235.14,1085.96 1235.34,1085.96 1235.55,1085.96 1235.75,1085.96 1235.95,1085.96 1236.16,1085.96 1236.36,1085.96 1236.56,1085.96 1236.77,1085.96 1236.97,1085.96 1237.17,1085.96 1237.38,1085.96 1237.58,1085.96 1237.78,1085.96 1237.98,1085.96 1238.19,1085.96 1238.39,1085.96 1238.59,1085.96 1238.79,1085.96 1238.99,1085.96 1239.2,1085.96 1239.4,1085.96 1239.6,1085.96 1239.8,1085.96 1240,1085.96 1240.2,1085.96 1240.41,1085.96 1240.61,1085.96 1240.81,1085.96 1241.01,1085.96 1241.21,1085.96 1241.42,1085.96 1241.62,1085.96 1241.82,1085.96 1242.02,1085.96 1242.22,1085.96 1242.43,1085.96 1242.63,1085.96 1242.83,1085.96 1243.04,1085.96 1243.24,1085.96 1243.45,1085.96 1243.65,1085.96 1243.85,1085.96 1244.06,1085.96 1244.27,1085.96 1244.47,1085.96 1244.68,1085.96 1244.88,1085.96 1245.09,1085.96 1245.3,1085.96 1245.51,1085.96 1245.72,1085.96 1245.93,1085.96 1246.14,1085.96 1246.35,1085.96 1246.56,1085.96 1246.77,1085.96 1246.99,1085.96 1247.2,1085.96 1247.42,1085.96 1247.63,1085.96 1247.85,1085.96 1248.07,1085.96 1248.29,1085.96 1248.51,1085.96 1248.74,1085.96 1248.96,1085.96 1249.19,1085.96 1249.41,1085.96 1249.64,1085.96 1249.87,1085.96 1250.1,1085.96 1250.34,1085.96 1250.58,1085.96 1250.81,1085.96 1251.06,1085.96 1251.3,1085.96 1251.55,1085.96 1251.8,1085.96 1252.05,1085.96 1252.31,1085.96 1252.56,1085.96 1252.83,1085.96 1253.1,1085.96 1253.37,1085.96 1253.64,1085.96 1253.93,1085.96 1254.22,1085.96 1254.51,1085.96 1254.81,1085.96 1255.12,1085.96 1255.44,1085.96 1255.77,1085.96 1256.1,1085.96 1256.45,1085.96 1256.82,1085.96 1257.2,1085.96 1257.6,1085.96 1258.03,1085.96 1258.48,1085.96 1258.97,1085.96 1259.55,1085.97 1260.29,1085.99 1261.04,1085.99 1261.78,1085.95 1262.52,1085.88 1263.24,1085.78 1263.97,1085.65 1263.83,1085.51 1263.86,1085.37 1263.85,1085.23 1263.85,1085.09 1263.85,1084.95 1263.85,1084.81 1263.85,1084.66 1263.85,1084.52 1263.85,1084.38 1263.85,1084.24 1263.85,1084.1 1263.85,1083.96 1263.85,1083.82 1263.85,1083.68 1263.85,1083.54 1263.85,1083.4 1263.85,1083.25 1263.85,1083.11 1263.85,1082.97 1263.85,1082.83 1263.85,1082.69 1263.85,1082.55 1263.85,1082.41 1263.85,1082.27 1263.85,1082.13 1263.85,1081.99 1263.85,1081.85 1263.85,1081.71 1263.85,1081.57 1263.85,1081.43 1263.85,1081.29 1263.85,1081.14 1263.85,1081 1263.85,1080.86 1263.85,1080.72 1263.85,1080.58 1263.85,1080.44 1263.85,1080.3 1263.85,1080.16 1263.85,1080.02 1263.85,1079.88 1263.85,1079.74 1263.85,1079.6 1263.85,1079.46 1263.85,1079.32 1263.85,1079.18 1263.85,1079.04 1263.85,1078.9 1263.85,1078.76 1263.85,1078.62 1263.85,1078.48 1263.85,1078.34 1263.85,1078.2 1263.85,1078.06 1263.85,1077.92 1263.85,1077.78 1263.85,1077.64 1263.85,1077.5 1263.85,1077.36 1263.85,1077.22 1263.85,1077.08 1263.85,1076.94 1263.85,1076.8 1263.85,1076.66 1263.85,1076.52 1263.85,1076.38 1263.85,1076.24 1263.85,1076.1 1263.85,1075.96 1263.85,1075.82 1263.85,1075.68 1263.85,1075.54 1263.85,1075.4 1263.85,1075.26 1263.85,1075.12 1263.85,1074.98 1263.85,1074.84 1263.85,1074.7 1263.85,1074.56 1263.85,1074.42 1263.85,1074.29 1263.85,1074.15 1263.85,1074.01 1263.85,1073.87 1263.85,1073.73 1263.85,1073.59 1263.85,1073.45 1263.85,1073.31 1263.85,1073.17 1263.85,1073.03 1263.85,1072.89 1263.85,1072.75 1263.85,1072.61 1263.85,1072.47 1263.85,1072.34 1263.85,1072.2 1263.85,1072.06 1263.85,1071.92 1263.85,1071.78 1263.85,1071.64 1263.85,1071.5 1263.85,1071.36 1263.85,1071.22 1263.85,1071.08 1263.85,1070.94 1263.85,1070.81 1263.85,1070.67 1263.85,1070.53 1263.85,1070.39 1263.85,1070.25 1263.85,1070.11 1263.85,1069.97 1263.85,1069.83 1263.85,1069.7 1263.85,1069.56 1263.85,1069.42 1263.85,1069.28 1263.85,1069.14 1263.85,1069 1263.85,1068.86 "/>
<circle clip-path="url(#clip832)" cx="1263.85" cy="179.829" r="14.4" fill="#009af9" fill-rule="evenodd" fill-opacity="1" stroke="#000000" stroke-opacity="1" stroke-width="2.8"/>
<path clip-path="url(#clip830)" d="M1685.91 1201.45 L2752.76 1201.45 L2752.76 47.2441 L1685.91 47.2441  Z" fill="#ffffff" fill-rule="evenodd" fill-opacity="1"/>
<defs>
  <clipPath id="clip833">
    <rect x="1685" y="47" width="1068" height="1155"/>
  </clipPath>
</defs>
<polyline clip-path="url(#clip833)" style="stroke:#000000; stroke-linecap:round; stroke-linejoin:round; stroke-width:2; stroke-opacity:0.1; fill:none" points="1716.11,1201.45 1716.11,47.2441 "/>
<polyline clip-path="url(#clip833)" style="stroke:#000000; stroke-linecap:round; stroke-linejoin:round; stroke-width:2; stroke-opacity:0.1; fill:none" points="1951.74,1201.45 1951.74,47.2441 "/>
<polyline clip-path="url(#clip833)" style="stroke:#000000; stroke-linecap:round; stroke-linejoin:round; stroke-width:2; stroke-opacity:0.1; fill:none" points="2187.36,1201.45 2187.36,47.2441 "/>
<polyline clip-path="url(#clip833)" style="stroke:#000000; stroke-linecap:round; stroke-linejoin:round; stroke-width:2; stroke-opacity:0.1; fill:none" points="2422.99,1201.45 2422.99,47.2441 "/>
<polyline clip-path="url(#clip833)" style="stroke:#000000; stroke-linecap:round; stroke-linejoin:round; stroke-width:2; stroke-opacity:0.1; fill:none" points="2658.62,1201.45 2658.62,47.2441 "/>
<polyline clip-path="url(#clip833)" style="stroke:#000000; stroke-linecap:round; stroke-linejoin:round; stroke-width:2; stroke-opacity:0.1; fill:none" points="1685.91,1105.26 2752.76,1105.26 "/>
<polyline clip-path="url(#clip833)" style="stroke:#000000; stroke-linecap:round; stroke-linejoin:round; stroke-width:2; stroke-opacity:0.1; fill:none" points="1685.91,864.805 2752.76,864.805 "/>
<polyline clip-path="url(#clip833)" style="stroke:#000000; stroke-linecap:round; stroke-linejoin:round; stroke-width:2; stroke-opacity:0.1; fill:none" points="1685.91,624.346 2752.76,624.346 "/>
<polyline clip-path="url(#clip833)" style="stroke:#000000; stroke-linecap:round; stroke-linejoin:round; stroke-width:2; stroke-opacity:0.1; fill:none" points="1685.91,383.887 2752.76,383.887 "/>
<polyline clip-path="url(#clip833)" style="stroke:#000000; stroke-linecap:round; stroke-linejoin:round; stroke-width:2; stroke-opacity:0.1; fill:none" points="1685.91,143.428 2752.76,143.428 "/>
<polyline clip-path="url(#clip830)" style="stroke:#000000; stroke-linecap:round; stroke-linejoin:round; stroke-width:4; stroke-opacity:1; fill:none" points="1685.91,1201.45 2752.76,1201.45 "/>
<polyline clip-path="url(#clip830)" style="stroke:#000000; stroke-linecap:round; stroke-linejoin:round; stroke-width:4; stroke-opacity:1; fill:none" points="1716.11,1201.45 1716.11,1182.55 "/>
<polyline clip-path="url(#clip830)" style="stroke:#000000; stroke-linecap:round; stroke-linejoin:round; stroke-width:4; stroke-opacity:1; fill:none" points="1951.74,1201.45 1951.74,1182.55 "/>
<polyline clip-path="url(#clip830)" style="stroke:#000000; stroke-linecap:round; stroke-linejoin:round; stroke-width:4; stroke-opacity:1; fill:none" points="2187.36,1201.45 2187.36,1182.55 "/>
<polyline clip-path="url(#clip830)" style="stroke:#000000; stroke-linecap:round; stroke-linejoin:round; stroke-width:4; stroke-opacity:1; fill:none" points="2422.99,1201.45 2422.99,1182.55 "/>
<polyline clip-path="url(#clip830)" style="stroke:#000000; stroke-linecap:round; stroke-linejoin:round; stroke-width:4; stroke-opacity:1; fill:none" points="2658.62,1201.45 2658.62,1182.55 "/>
<path clip-path="url(#clip830)" d="M1716.11 1235.57 Q1712.5 1235.57 1710.67 1239.13 Q1708.86 1242.67 1708.86 1249.8 Q1708.86 1256.91 1710.67 1260.47 Q1712.5 1264.02 1716.11 1264.02 Q1719.74 1264.02 1721.55 1260.47 Q1723.38 1256.91 1723.38 1249.8 Q1723.38 1242.67 1721.55 1239.13 Q1719.74 1235.57 1716.11 1235.57 M1716.11 1231.86 Q1721.92 1231.86 1724.97 1236.47 Q1728.05 1241.05 1728.05 1249.8 Q1728.05 1258.53 1724.97 1263.14 Q1721.92 1267.72 1716.11 1267.72 Q1710.3 1267.72 1707.22 1263.14 Q1704.16 1258.53 1704.16 1249.8 Q1704.16 1241.05 1707.22 1236.47 Q1710.3 1231.86 1716.11 1231.86 Z" fill="#000000" fill-rule="nonzero" fill-opacity="1" /><path clip-path="url(#clip830)" d="M1926.42 1263.11 L1934.06 1263.11 L1934.06 1236.75 L1925.75 1238.41 L1925.75 1234.15 L1934.02 1232.49 L1938.69 1232.49 L1938.69 1263.11 L1946.33 1263.11 L1946.33 1267.05 L1926.42 1267.05 L1926.42 1263.11 Z" fill="#000000" fill-rule="nonzero" fill-opacity="1" /><path clip-path="url(#clip830)" d="M1965.77 1235.57 Q1962.16 1235.57 1960.34 1239.13 Q1958.53 1242.67 1958.53 1249.8 Q1958.53 1256.91 1960.34 1260.47 Q1962.16 1264.02 1965.77 1264.02 Q1969.41 1264.02 1971.21 1260.47 Q1973.04 1256.91 1973.04 1249.8 Q1973.04 1242.67 1971.21 1239.13 Q1969.41 1235.57 1965.77 1235.57 M1965.77 1231.86 Q1971.59 1231.86 1974.64 1236.47 Q1977.72 1241.05 1977.72 1249.8 Q1977.72 1258.53 1974.64 1263.14 Q1971.59 1267.72 1965.77 1267.72 Q1959.96 1267.72 1956.89 1263.14 Q1953.83 1258.53 1953.83 1249.8 Q1953.83 1241.05 1956.89 1236.47 Q1959.96 1231.86 1965.77 1231.86 Z" fill="#000000" fill-rule="nonzero" fill-opacity="1" /><path clip-path="url(#clip830)" d="M2166.14 1263.11 L2182.46 1263.11 L2182.46 1267.05 L2160.51 1267.05 L2160.51 1263.11 Q2163.17 1260.36 2167.76 1255.73 Q2172.36 1251.08 2173.54 1249.73 Q2175.79 1247.21 2176.67 1245.47 Q2177.57 1243.71 2177.57 1242.02 Q2177.57 1239.27 2175.63 1237.53 Q2173.71 1235.8 2170.6 1235.8 Q2168.41 1235.8 2165.95 1236.56 Q2163.52 1237.33 2160.74 1238.88 L2160.74 1234.15 Q2163.57 1233.02 2166.02 1232.44 Q2168.47 1231.86 2170.51 1231.86 Q2175.88 1231.86 2179.08 1234.55 Q2182.27 1237.23 2182.27 1241.72 Q2182.27 1243.85 2181.46 1245.77 Q2180.67 1247.67 2178.57 1250.27 Q2177.99 1250.94 2174.89 1254.15 Q2171.79 1257.35 2166.14 1263.11 Z" fill="#000000" fill-rule="nonzero" fill-opacity="1" /><path clip-path="url(#clip830)" d="M2202.27 1235.57 Q2198.66 1235.57 2196.83 1239.13 Q2195.03 1242.67 2195.03 1249.8 Q2195.03 1256.91 2196.83 1260.47 Q2198.66 1264.02 2202.27 1264.02 Q2205.91 1264.02 2207.71 1260.47 Q2209.54 1256.91 2209.54 1249.8 Q2209.54 1242.67 2207.71 1239.13 Q2205.91 1235.57 2202.27 1235.57 M2202.27 1231.86 Q2208.08 1231.86 2211.14 1236.47 Q2214.22 1241.05 2214.22 1249.8 Q2214.22 1258.53 2211.14 1263.14 Q2208.08 1267.72 2202.27 1267.72 Q2196.46 1267.72 2193.38 1263.14 Q2190.33 1258.53 2190.33 1249.8 Q2190.33 1241.05 2193.38 1236.47 Q2196.46 1231.86 2202.27 1231.86 Z" fill="#000000" fill-rule="nonzero" fill-opacity="1" /><path clip-path="url(#clip830)" d="M2411.83 1248.41 Q2415.19 1249.13 2417.07 1251.4 Q2418.96 1253.67 2418.96 1257 Q2418.96 1262.12 2415.45 1264.92 Q2411.93 1267.72 2405.45 1267.72 Q2403.27 1267.72 2400.95 1267.28 Q2398.66 1266.86 2396.21 1266.01 L2396.21 1261.49 Q2398.15 1262.63 2400.47 1263.21 Q2402.78 1263.78 2405.31 1263.78 Q2409.7 1263.78 2412 1262.05 Q2414.31 1260.31 2414.31 1257 Q2414.31 1253.95 2412.16 1252.23 Q2410.03 1250.5 2406.21 1250.5 L2402.18 1250.5 L2402.18 1246.65 L2406.39 1246.65 Q2409.84 1246.65 2411.67 1245.29 Q2413.5 1243.9 2413.5 1241.31 Q2413.5 1238.65 2411.6 1237.23 Q2409.73 1235.8 2406.21 1235.8 Q2404.29 1235.8 2402.09 1236.21 Q2399.89 1236.63 2397.25 1237.51 L2397.25 1233.34 Q2399.91 1232.6 2402.23 1232.23 Q2404.57 1231.86 2406.63 1231.86 Q2411.95 1231.86 2415.05 1234.29 Q2418.15 1236.7 2418.15 1240.82 Q2418.15 1243.69 2416.51 1245.68 Q2414.87 1247.65 2411.83 1248.41 Z" fill="#000000" fill-rule="nonzero" fill-opacity="1" /><path clip-path="url(#clip830)" d="M2437.83 1235.57 Q2434.22 1235.57 2432.39 1239.13 Q2430.58 1242.67 2430.58 1249.8 Q2430.58 1256.91 2432.39 1260.47 Q2434.22 1264.02 2437.83 1264.02 Q2441.46 1264.02 2443.27 1260.47 Q2445.1 1256.91 2445.1 1249.8 Q2445.1 1242.67 2443.27 1239.13 Q2441.46 1235.57 2437.83 1235.57 M2437.83 1231.86 Q2443.64 1231.86 2446.7 1236.47 Q2449.77 1241.05 2449.77 1249.8 Q2449.77 1258.53 2446.7 1263.14 Q2443.64 1267.72 2437.83 1267.72 Q2432.02 1267.72 2428.94 1263.14 Q2425.89 1258.53 2425.89 1249.8 Q2425.89 1241.05 2428.94 1236.47 Q2432.02 1231.86 2437.83 1231.86 Z" fill="#000000" fill-rule="nonzero" fill-opacity="1" /><path clip-path="url(#clip830)" d="M2646.79 1236.56 L2634.99 1255.01 L2646.79 1255.01 L2646.79 1236.56 M2645.56 1232.49 L2651.44 1232.49 L2651.44 1255.01 L2656.37 1255.01 L2656.37 1258.9 L2651.44 1258.9 L2651.44 1267.05 L2646.79 1267.05 L2646.79 1258.9 L2631.19 1258.9 L2631.19 1254.39 L2645.56 1232.49 Z" fill="#000000" fill-rule="nonzero" fill-opacity="1" /><path clip-path="url(#clip830)" d="M2674.11 1235.57 Q2670.49 1235.57 2668.67 1239.13 Q2666.86 1242.67 2666.86 1249.8 Q2666.86 1256.91 2668.67 1260.47 Q2670.49 1264.02 2674.11 1264.02 Q2677.74 1264.02 2679.55 1260.47 Q2681.37 1256.91 2681.37 1249.8 Q2681.37 1242.67 2679.55 1239.13 Q2677.74 1235.57 2674.11 1235.57 M2674.11 1231.86 Q2679.92 1231.86 2682.97 1236.47 Q2686.05 1241.05 2686.05 1249.8 Q2686.05 1258.53 2682.97 1263.14 Q2679.92 1267.72 2674.11 1267.72 Q2668.3 1267.72 2665.22 1263.14 Q2662.16 1258.53 2662.16 1249.8 Q2662.16 1241.05 2665.22 1236.47 Q2668.3 1231.86 2674.11 1231.86 Z" fill="#000000" fill-rule="nonzero" fill-opacity="1" /><path clip-path="url(#clip830)" d="M2218.4 1306.54 L2218.4 1316.66 L2230.46 1316.66 L2230.46 1321.22 L2218.4 1321.22 L2218.4 1340.57 Q2218.4 1344.93 2219.57 1346.17 Q2220.78 1347.41 2224.44 1347.41 L2230.46 1347.41 L2230.46 1352.31 L2224.44 1352.31 Q2217.66 1352.31 2215.09 1349.8 Q2212.51 1347.25 2212.51 1340.57 L2212.51 1321.22 L2208.21 1321.22 L2208.21 1316.66 L2212.51 1316.66 L2212.51 1306.54 L2218.4 1306.54 Z" fill="#000000" fill-rule="nonzero" fill-opacity="1" /><polyline clip-path="url(#clip830)" style="stroke:#000000; stroke-linecap:round; stroke-linejoin:round; stroke-width:4; stroke-opacity:1; fill:none" points="1685.91,1201.45 1685.91,47.2441 "/>
<polyline clip-path="url(#clip830)" style="stroke:#000000; stroke-linecap:round; stroke-linejoin:round; stroke-width:4; stroke-opacity:1; fill:none" points="1685.91,1105.26 1704.81,1105.26 "/>
<polyline clip-path="url(#clip830)" style="stroke:#000000; stroke-linecap:round; stroke-linejoin:round; stroke-width:4; stroke-opacity:1; fill:none" points="1685.91,864.805 1704.81,864.805 "/>
<polyline clip-path="url(#clip830)" style="stroke:#000000; stroke-linecap:round; stroke-linejoin:round; stroke-width:4; stroke-opacity:1; fill:none" points="1685.91,624.346 1704.81,624.346 "/>
<polyline clip-path="url(#clip830)" style="stroke:#000000; stroke-linecap:round; stroke-linejoin:round; stroke-width:4; stroke-opacity:1; fill:none" points="1685.91,383.887 1704.81,383.887 "/>
<polyline clip-path="url(#clip830)" style="stroke:#000000; stroke-linecap:round; stroke-linejoin:round; stroke-width:4; stroke-opacity:1; fill:none" points="1685.91,143.428 1704.81,143.428 "/>
<path clip-path="url(#clip830)" d="M1556.58 1091.06 Q1552.97 1091.06 1551.14 1094.63 Q1549.33 1098.17 1549.33 1105.3 Q1549.33 1112.41 1551.14 1115.97 Q1552.97 1119.51 1556.58 1119.51 Q1560.21 1119.51 1562.02 1115.97 Q1563.84 1112.41 1563.84 1105.3 Q1563.84 1098.17 1562.02 1094.63 Q1560.21 1091.06 1556.58 1091.06 M1556.58 1087.36 Q1562.39 1087.36 1565.44 1091.97 Q1568.52 1096.55 1568.52 1105.3 Q1568.52 1114.03 1565.44 1118.63 Q1562.39 1123.22 1556.58 1123.22 Q1550.77 1123.22 1547.69 1118.63 Q1544.63 1114.03 1544.63 1105.3 Q1544.63 1096.55 1547.69 1091.97 Q1550.77 1087.36 1556.58 1087.36 Z" fill="#000000" fill-rule="nonzero" fill-opacity="1" /><path clip-path="url(#clip830)" d="M1576.74 1116.66 L1581.62 1116.66 L1581.62 1122.54 L1576.74 1122.54 L1576.74 1116.66 Z" fill="#000000" fill-rule="nonzero" fill-opacity="1" /><path clip-path="url(#clip830)" d="M1601.81 1091.06 Q1598.2 1091.06 1596.37 1094.63 Q1594.56 1098.17 1594.56 1105.3 Q1594.56 1112.41 1596.37 1115.97 Q1598.2 1119.51 1601.81 1119.51 Q1605.44 1119.51 1607.25 1115.97 Q1609.08 1112.41 1609.08 1105.3 Q1609.08 1098.17 1607.25 1094.63 Q1605.44 1091.06 1601.81 1091.06 M1601.81 1087.36 Q1607.62 1087.36 1610.67 1091.97 Q1613.75 1096.55 1613.75 1105.3 Q1613.75 1114.03 1610.67 1118.63 Q1607.62 1123.22 1601.81 1123.22 Q1596 1123.22 1592.92 1118.63 Q1589.86 1114.03 1589.86 1105.3 Q1589.86 1096.55 1592.92 1091.97 Q1596 1087.36 1601.81 1087.36 Z" fill="#000000" fill-rule="nonzero" fill-opacity="1" /><path clip-path="url(#clip830)" d="M1631.97 1091.06 Q1628.36 1091.06 1626.53 1094.63 Q1624.72 1098.17 1624.72 1105.3 Q1624.72 1112.41 1626.53 1115.97 Q1628.36 1119.51 1631.97 1119.51 Q1635.6 1119.51 1637.41 1115.97 Q1639.24 1112.41 1639.24 1105.3 Q1639.24 1098.17 1637.41 1094.63 Q1635.6 1091.06 1631.97 1091.06 M1631.97 1087.36 Q1637.78 1087.36 1640.84 1091.97 Q1643.91 1096.55 1643.91 1105.3 Q1643.91 1114.03 1640.84 1118.63 Q1637.78 1123.22 1631.97 1123.22 Q1626.16 1123.22 1623.08 1118.63 Q1620.03 1114.03 1620.03 1105.3 Q1620.03 1096.55 1623.08 1091.97 Q1626.16 1087.36 1631.97 1087.36 Z" fill="#000000" fill-rule="nonzero" fill-opacity="1" /><path clip-path="url(#clip830)" d="M1557.57 850.604 Q1553.96 850.604 1552.13 854.169 Q1550.33 857.71 1550.33 864.84 Q1550.33 871.946 1552.13 875.511 Q1553.96 879.053 1557.57 879.053 Q1561.21 879.053 1563.01 875.511 Q1564.84 871.946 1564.84 864.84 Q1564.84 857.71 1563.01 854.169 Q1561.21 850.604 1557.57 850.604 M1557.57 846.9 Q1563.38 846.9 1566.44 851.507 Q1569.52 856.09 1569.52 864.84 Q1569.52 873.567 1566.44 878.173 Q1563.38 882.756 1557.57 882.756 Q1551.76 882.756 1548.68 878.173 Q1545.63 873.567 1545.63 864.84 Q1545.63 856.09 1548.68 851.507 Q1551.76 846.9 1557.57 846.9 Z" fill="#000000" fill-rule="nonzero" fill-opacity="1" /><path clip-path="url(#clip830)" d="M1577.73 876.206 L1582.62 876.206 L1582.62 882.085 L1577.73 882.085 L1577.73 876.206 Z" fill="#000000" fill-rule="nonzero" fill-opacity="1" /><path clip-path="url(#clip830)" d="M1596.83 878.15 L1613.15 878.15 L1613.15 882.085 L1591.21 882.085 L1591.21 878.15 Q1593.87 875.395 1598.45 870.766 Q1603.06 866.113 1604.24 864.77 Q1606.48 862.247 1607.36 860.511 Q1608.27 858.752 1608.27 857.062 Q1608.27 854.307 1606.32 852.571 Q1604.4 850.835 1601.3 850.835 Q1599.1 850.835 1596.65 851.599 Q1594.22 852.363 1591.44 853.914 L1591.44 849.192 Q1594.26 848.058 1596.72 847.479 Q1599.17 846.9 1601.21 846.9 Q1606.58 846.9 1609.77 849.585 Q1612.97 852.27 1612.97 856.761 Q1612.97 858.891 1612.15 860.812 Q1611.37 862.71 1609.26 865.303 Q1608.68 865.974 1605.58 869.192 Q1602.48 872.386 1596.83 878.15 Z" fill="#000000" fill-rule="nonzero" fill-opacity="1" /><path clip-path="url(#clip830)" d="M1623.01 847.525 L1641.37 847.525 L1641.37 851.46 L1627.29 851.46 L1627.29 859.932 Q1628.31 859.585 1629.33 859.423 Q1630.35 859.238 1631.37 859.238 Q1637.15 859.238 1640.53 862.409 Q1643.91 865.581 1643.91 870.997 Q1643.91 876.576 1640.44 879.678 Q1636.97 882.756 1630.65 882.756 Q1628.47 882.756 1626.21 882.386 Q1623.96 882.016 1621.55 881.275 L1621.55 876.576 Q1623.64 877.71 1625.86 878.266 Q1628.08 878.821 1630.56 878.821 Q1634.56 878.821 1636.9 876.715 Q1639.24 874.608 1639.24 870.997 Q1639.24 867.386 1636.9 865.28 Q1634.56 863.173 1630.56 863.173 Q1628.68 863.173 1626.81 863.59 Q1624.96 864.006 1623.01 864.886 L1623.01 847.525 Z" fill="#000000" fill-rule="nonzero" fill-opacity="1" /><path clip-path="url(#clip830)" d="M1556.58 610.145 Q1552.97 610.145 1551.14 613.709 Q1549.33 617.251 1549.33 624.381 Q1549.33 631.487 1551.14 635.052 Q1552.97 638.594 1556.58 638.594 Q1560.21 638.594 1562.02 635.052 Q1563.84 631.487 1563.84 624.381 Q1563.84 617.251 1562.02 613.709 Q1560.21 610.145 1556.58 610.145 M1556.58 606.441 Q1562.39 606.441 1565.44 611.047 Q1568.52 615.631 1568.52 624.381 Q1568.52 633.108 1565.44 637.714 Q1562.39 642.297 1556.58 642.297 Q1550.77 642.297 1547.69 637.714 Q1544.63 633.108 1544.63 624.381 Q1544.63 615.631 1547.69 611.047 Q1550.77 606.441 1556.58 606.441 Z" fill="#000000" fill-rule="nonzero" fill-opacity="1" /><path clip-path="url(#clip830)" d="M1576.74 635.746 L1581.62 635.746 L1581.62 641.626 L1576.74 641.626 L1576.74 635.746 Z" fill="#000000" fill-rule="nonzero" fill-opacity="1" /><path clip-path="url(#clip830)" d="M1591.85 607.066 L1610.21 607.066 L1610.21 611.001 L1596.14 611.001 L1596.14 619.473 Q1597.15 619.126 1598.17 618.964 Q1599.19 618.779 1600.21 618.779 Q1606 618.779 1609.38 621.95 Q1612.76 625.121 1612.76 630.538 Q1612.76 636.117 1609.28 639.219 Q1605.81 642.297 1599.49 642.297 Q1597.32 642.297 1595.05 641.927 Q1592.8 641.557 1590.4 640.816 L1590.4 636.117 Q1592.48 637.251 1594.7 637.807 Q1596.92 638.362 1599.4 638.362 Q1603.4 638.362 1605.74 636.256 Q1608.08 634.149 1608.08 630.538 Q1608.08 626.927 1605.74 624.821 Q1603.4 622.714 1599.4 622.714 Q1597.53 622.714 1595.65 623.131 Q1593.8 623.547 1591.85 624.427 L1591.85 607.066 Z" fill="#000000" fill-rule="nonzero" fill-opacity="1" /><path clip-path="url(#clip830)" d="M1631.97 610.145 Q1628.36 610.145 1626.53 613.709 Q1624.72 617.251 1624.72 624.381 Q1624.72 631.487 1626.53 635.052 Q1628.36 638.594 1631.97 638.594 Q1635.6 638.594 1637.41 635.052 Q1639.24 631.487 1639.24 624.381 Q1639.24 617.251 1637.41 613.709 Q1635.6 610.145 1631.97 610.145 M1631.97 606.441 Q1637.78 606.441 1640.84 611.047 Q1643.91 615.631 1643.91 624.381 Q1643.91 633.108 1640.84 637.714 Q1637.78 642.297 1631.97 642.297 Q1626.16 642.297 1623.08 637.714 Q1620.03 633.108 1620.03 624.381 Q1620.03 615.631 1623.08 611.047 Q1626.16 606.441 1631.97 606.441 Z" fill="#000000" fill-rule="nonzero" fill-opacity="1" /><path clip-path="url(#clip830)" d="M1557.57 369.686 Q1553.96 369.686 1552.13 373.25 Q1550.33 376.792 1550.33 383.922 Q1550.33 391.028 1552.13 394.593 Q1553.96 398.134 1557.57 398.134 Q1561.21 398.134 1563.01 394.593 Q1564.84 391.028 1564.84 383.922 Q1564.84 376.792 1563.01 373.25 Q1561.21 369.686 1557.57 369.686 M1557.57 365.982 Q1563.38 365.982 1566.44 370.588 Q1569.52 375.172 1569.52 383.922 Q1569.52 392.648 1566.44 397.255 Q1563.38 401.838 1557.57 401.838 Q1551.76 401.838 1548.68 397.255 Q1545.63 392.648 1545.63 383.922 Q1545.63 375.172 1548.68 370.588 Q1551.76 365.982 1557.57 365.982 Z" fill="#000000" fill-rule="nonzero" fill-opacity="1" /><path clip-path="url(#clip830)" d="M1577.73 395.287 L1582.62 395.287 L1582.62 401.167 L1577.73 401.167 L1577.73 395.287 Z" fill="#000000" fill-rule="nonzero" fill-opacity="1" /><path clip-path="url(#clip830)" d="M1591.62 366.607 L1613.84 366.607 L1613.84 368.598 L1601.3 401.167 L1596.41 401.167 L1608.22 370.542 L1591.62 370.542 L1591.62 366.607 Z" fill="#000000" fill-rule="nonzero" fill-opacity="1" /><path clip-path="url(#clip830)" d="M1623.01 366.607 L1641.37 366.607 L1641.37 370.542 L1627.29 370.542 L1627.29 379.014 Q1628.31 378.667 1629.33 378.505 Q1630.35 378.32 1631.37 378.32 Q1637.15 378.32 1640.53 381.491 Q1643.91 384.662 1643.91 390.079 Q1643.91 395.658 1640.44 398.759 Q1636.97 401.838 1630.65 401.838 Q1628.47 401.838 1626.21 401.468 Q1623.96 401.097 1621.55 400.357 L1621.55 395.658 Q1623.64 396.792 1625.86 397.347 Q1628.08 397.903 1630.56 397.903 Q1634.56 397.903 1636.9 395.797 Q1639.24 393.69 1639.24 390.079 Q1639.24 386.468 1636.9 384.361 Q1634.56 382.255 1630.56 382.255 Q1628.68 382.255 1626.81 382.672 Q1624.96 383.088 1623.01 383.968 L1623.01 366.607 Z" fill="#000000" fill-rule="nonzero" fill-opacity="1" /><path clip-path="url(#clip830)" d="M1547.39 156.773 L1555.03 156.773 L1555.03 130.407 L1546.72 132.074 L1546.72 127.814 L1554.98 126.148 L1559.66 126.148 L1559.66 156.773 L1567.29 156.773 L1567.29 160.708 L1547.39 160.708 L1547.39 156.773 Z" fill="#000000" fill-rule="nonzero" fill-opacity="1" /><path clip-path="url(#clip830)" d="M1576.74 154.828 L1581.62 154.828 L1581.62 160.708 L1576.74 160.708 L1576.74 154.828 Z" fill="#000000" fill-rule="nonzero" fill-opacity="1" /><path clip-path="url(#clip830)" d="M1601.81 129.226 Q1598.2 129.226 1596.37 132.791 Q1594.56 136.333 1594.56 143.462 Q1594.56 150.569 1596.37 154.134 Q1598.2 157.675 1601.81 157.675 Q1605.44 157.675 1607.25 154.134 Q1609.08 150.569 1609.08 143.462 Q1609.08 136.333 1607.25 132.791 Q1605.44 129.226 1601.81 129.226 M1601.81 125.523 Q1607.62 125.523 1610.67 130.129 Q1613.75 134.713 1613.75 143.462 Q1613.75 152.189 1610.67 156.796 Q1607.62 161.379 1601.81 161.379 Q1596 161.379 1592.92 156.796 Q1589.86 152.189 1589.86 143.462 Q1589.86 134.713 1592.92 130.129 Q1596 125.523 1601.81 125.523 Z" fill="#000000" fill-rule="nonzero" fill-opacity="1" /><path clip-path="url(#clip830)" d="M1631.97 129.226 Q1628.36 129.226 1626.53 132.791 Q1624.72 136.333 1624.72 143.462 Q1624.72 150.569 1626.53 154.134 Q1628.36 157.675 1631.97 157.675 Q1635.6 157.675 1637.41 154.134 Q1639.24 150.569 1639.24 143.462 Q1639.24 136.333 1637.41 132.791 Q1635.6 129.226 1631.97 129.226 M1631.97 125.523 Q1637.78 125.523 1640.84 130.129 Q1643.91 134.713 1643.91 143.462 Q1643.91 152.189 1640.84 156.796 Q1637.78 161.379 1631.97 161.379 Q1626.16 161.379 1623.08 156.796 Q1620.03 152.189 1620.03 143.462 Q1620.03 134.713 1623.08 130.129 Q1626.16 125.523 1631.97 125.523 Z" fill="#000000" fill-rule="nonzero" fill-opacity="1" /><path clip-path="url(#clip830)" d="M1474.31 639.274 L1452.73 639.274 L1452.73 633.417 L1474.09 633.417 Q1479.15 633.417 1481.69 631.444 Q1484.21 629.47 1484.21 625.524 Q1484.21 620.781 1481.18 618.044 Q1478.16 615.275 1472.94 615.275 L1452.73 615.275 L1452.73 609.418 L1488.38 609.418 L1488.38 615.275 L1482.9 615.275 Q1486.15 617.407 1487.74 620.24 Q1489.3 623.041 1489.3 626.765 Q1489.3 632.908 1485.48 636.091 Q1481.66 639.274 1474.31 639.274 M1451.87 624.537 L1451.87 624.537 Z" fill="#000000" fill-rule="nonzero" fill-opacity="1" /><polyline clip-path="url(#clip833)" style="stroke:#000000; stroke-linecap:round; stroke-linejoin:round; stroke-width:2; stroke-opacity:1; fill:none" stroke-dasharray="8, 5" points="1716.11,143.428 2722.56,143.428 "/>
<polyline clip-path="url(#clip833)" style="stroke:#000000; stroke-linecap:round; stroke-linejoin:round; stroke-width:2; stroke-opacity:1; fill:none" stroke-dasharray="8, 5" points="1716.11,1105.26 2722.56,1105.26 "/>
<polyline clip-path="url(#clip833)" style="stroke:#000000; stroke-linecap:round; stroke-linejoin:round; stroke-width:2; stroke-opacity:1; fill:none" points="1716.11,1201.45 1716.11,47.2441 "/>
<polyline clip-path="url(#clip833)" style="stroke:#000000; stroke-linecap:round; stroke-linejoin:round; stroke-width:2; stroke-opacity:1; fill:none" points="2722.56,1201.45 2722.56,47.2441 "/>
<polyline clip-path="url(#clip833)" style="stroke:#009af9; stroke-linecap:round; stroke-linejoin:round; stroke-width:8; stroke-opacity:1; fill:none" points="1716.11,143.428 1717.11,143.428 1718.12,143.428 1719.13,143.428 1720.13,143.428 1721.14,143.428 1722.15,143.428 1723.15,143.428 1724.16,143.428 1725.17,143.428 1726.17,143.428 1727.18,143.428 1728.19,143.428 1729.19,143.428 1730.2,143.428 1731.2,143.428 1732.21,143.428 1733.22,143.428 1734.22,143.428 1735.23,143.428 1736.24,143.428 1737.24,143.428 1738.25,143.428 1739.26,143.428 1740.26,143.428 1741.27,143.428 1742.28,143.428 1743.28,143.428 1744.29,143.428 1745.29,143.428 1746.3,143.428 1747.31,143.428 1748.31,143.428 1749.32,143.428 1750.33,143.428 1751.33,143.428 1752.34,143.428 1753.35,143.428 1754.35,477.661 1755.36,1268.51 1756.37,1056.57 1757.37,1113.33 1758.38,1098.1 1759.39,1102.16 1760.39,1101.05 1761.4,1101.33 1762.4,1101.23 1763.41,1101.24 1764.42,1101.21 1765.42,1101.2 1766.43,1101.18 1767.44,1101.16 1768.44,1101.15 1769.45,1101.13 1770.46,1101.11 1771.46,1101.09 1772.47,1101.08 1773.48,1101.06 1774.48,1101.04 1775.49,1101.02 1776.49,1101.01 1777.5,1100.99 1778.51,1100.97 1779.51,1100.95 1780.52,1100.93 1781.53,1100.91 1782.53,1100.9 1783.54,1100.88 1784.55,1100.86 1785.55,1100.84 1786.56,1100.82 1787.57,1100.8 1788.57,1100.78 1789.58,1100.77 1790.59,1100.75 1791.59,1100.73 1792.6,1100.71 1793.6,1100.69 1794.61,1100.67 1795.62,1100.65 1796.62,1100.63 1797.63,1100.61 1798.64,1100.59 1799.64,1100.57 1800.65,1100.55 1801.66,1100.53 1802.66,1100.51 1803.67,1100.49 1804.68,1100.47 1805.68,1100.45 1806.69,1100.43 1807.7,1100.41 1808.7,1100.39 1809.71,1100.37 1810.71,1100.35 1811.72,1100.33 1812.73,1100.31 1813.73,1100.29 1814.74,1100.27 1815.75,1100.24 1816.75,1100.22 1817.76,1100.2 1818.77,1100.18 1819.77,1100.16 1820.78,1100.14 1821.79,1100.12 1822.79,1100.09 1823.8,1100.07 1824.8,1100.05 1825.81,1100.03 1826.82,1100.01 1827.82,1099.98 1828.83,1099.96 1829.84,1099.94 1830.84,1099.92 1831.85,1099.89 1832.86,1099.87 1833.86,1099.85 1834.87,1099.83 1835.88,1099.8 1836.88,1099.78 1837.89,1099.76 1838.9,1099.73 1839.9,1099.71 1840.91,1099.69 1841.91,1099.66 1842.92,1099.64 1843.93,1099.62 1844.93,1099.59 1845.94,1099.57 1846.95,1099.54 1847.95,1099.52 1848.96,1099.5 1849.97,1099.47 1850.97,1099.45 1851.98,1099.42 1852.99,1099.4 1853.99,1099.37 1855,1099.35 1856,1099.32 1857.01,1099.3 1858.02,1099.27 1859.02,1099.25 1860.03,1099.22 1861.04,1099.2 1862.04,1099.17 1863.05,1099.14 1864.06,1099.12 1865.06,1099.09 1866.07,1099.07 1867.08,1099.04 1868.08,1099.01 1869.09,1098.99 1870.1,1098.96 1871.1,1098.93 1872.11,1098.91 1873.11,1098.88 1874.12,1098.85 1875.13,1098.83 1876.13,1098.8 1877.14,1098.77 1878.15,1098.74 1879.15,1098.72 1880.16,1098.69 1881.17,1098.66 1882.17,1098.63 1883.18,1098.61 1884.19,1098.58 1885.19,1098.55 1886.2,1098.52 1887.2,1098.49 1888.21,1098.46 1889.22,1098.43 1890.22,1098.41 1891.23,1098.38 1892.24,1098.35 1893.24,1098.32 1894.25,1098.29 1895.26,1098.26 1896.26,1098.23 1897.27,1098.2 1898.28,1098.17 1899.28,1098.14 1900.29,1098.11 1901.3,1098.08 1902.3,1098.05 1903.31,1098.02 1904.31,1097.99 1905.32,1097.96 1906.33,1097.93 1907.33,1097.9 1908.34,1097.86 1909.35,1097.83 1910.35,1097.8 1911.36,1097.77 1912.37,1097.74 1913.37,1097.71 1914.38,1097.67 1915.39,1097.64 1916.39,1097.61 1917.4,1097.58 1918.41,1097.55 1919.41,1097.51 1920.42,1097.48 1921.42,1097.45 1922.43,1097.41 1923.44,1097.38 1924.44,1097.35 1925.45,1097.31 1926.46,1097.28 1927.46,1097.25 1928.47,1097.21 1929.48,1097.18 1930.48,1097.14 1931.49,1097.11 1932.5,1097.07 1933.5,1097.04 1934.51,1097.01 1935.51,1096.97 1936.52,1096.94 1937.53,1096.9 1938.53,1096.86 1939.54,1096.83 1940.55,1096.79 1941.55,1096.76 1942.56,1096.72 1943.57,1096.69 1944.57,1096.65 1945.58,1096.61 1946.59,1096.58 1947.59,1096.54 1948.6,1096.5 1949.61,1096.46 1950.61,1096.43 1951.62,1096.39 1952.62,1096.35 1953.63,1096.31 1954.64,1096.28 1955.64,1096.24 1956.65,1096.2 1957.66,1096.16 1958.66,1096.12 1959.67,1096.08 1960.68,1096.05 1961.68,1096.01 1962.69,1095.97 1963.7,1095.93 1964.7,1095.89 1965.71,1095.85 1966.71,1095.81 1967.72,1095.77 1968.73,1095.73 1969.73,1095.69 1970.74,1095.65 1971.75,1095.61 1972.75,1095.57 1973.76,1095.52 1974.77,1095.48 1975.77,1095.44 1976.78,1095.4 1977.79,1095.36 1978.79,1095.32 1979.8,1095.27 1980.81,1095.23 1981.81,1095.19 1982.82,1095.15 1983.82,1095.1 1984.83,1095.06 1985.84,1095.02 1986.84,1094.97 1987.85,1094.93 1988.86,1094.89 1989.86,1094.84 1990.87,1094.8 1991.88,1094.75 1992.88,1094.71 1993.89,1094.66 1994.9,1094.62 1995.9,1094.57 1996.91,1094.53 1997.91,1094.48 1998.92,1094.44 1999.93,1094.39 2000.93,1094.34 2001.94,1094.3 2002.95,1094.25 2003.95,1094.21 2004.96,1094.16 2005.97,1094.11 2006.97,1094.06 2007.98,1094.02 2008.99,1093.97 2009.99,1093.92 2011,1093.87 2012.01,1093.82 2013.01,1093.78 2014.02,1093.73 2015.02,1093.68 2016.03,1093.63 2017.04,1093.58 2018.04,1093.53 2019.05,1093.48 2020.06,1093.43 2021.06,1093.38 2022.07,1093.33 2023.08,1093.28 2024.08,1093.23 2025.09,1093.18 2026.1,1093.12 2027.1,1093.07 2028.11,1093.02 2029.12,1092.97 2030.12,1092.92 2031.13,1092.86 2032.13,1092.81 2033.14,1092.76 2034.15,1092.7 2035.15,1092.65 2036.16,1092.6 2037.17,1092.54 2038.17,1092.49 2039.18,1092.43 2040.19,1092.38 2041.19,1092.33 2042.2,1092.27 2043.21,1092.21 2044.21,1092.16 2045.22,1092.1 2046.22,1092.05 2047.23,1091.99 2048.24,1091.93 2049.24,1091.88 2050.25,1091.82 2051.26,1091.76 2052.26,1091.71 2053.27,1091.65 2054.28,1091.59 2055.28,1091.53 2056.29,1091.47 2057.3,1091.41 2058.3,1091.36 2059.31,1091.3 2060.32,1091.24 2061.32,1091.18 2062.33,1091.12 2063.33,1091.06 2064.34,1091 2065.35,1090.93 2066.35,1090.87 2067.36,1090.81 2068.37,1090.75 2069.37,1090.69 2070.38,1090.63 2071.39,1090.56 2072.39,1090.5 2073.4,1090.44 2074.41,1090.37 2075.41,1090.31 2076.42,1090.25 2077.42,1090.18 2078.43,1090.12 2079.44,1090.05 2080.44,1089.99 2081.45,1089.92 2082.46,1089.86 2083.46,1089.79 2084.47,1089.73 2085.48,1089.66 2086.48,1089.59 2087.49,1089.53 2088.5,1089.46 2089.5,1089.39 2090.51,1089.32 2091.52,1089.25 2092.52,1089.19 2093.53,1089.12 2094.53,1089.05 2095.54,1088.98 2096.55,1088.91 2097.55,1088.84 2098.56,1088.77 2099.57,1088.7 2100.57,1088.63 2101.58,1088.56 2102.59,1088.48 2103.59,1088.41 2104.6,1088.34 2105.61,1088.27 2106.61,1088.19 2107.62,1088.12 2108.62,1088.05 2109.63,1087.97 2110.64,1087.9 2111.64,1087.82 2112.65,1087.75 2113.66,1087.67 2114.66,1087.6 2115.67,1087.52 2116.68,1087.45 2117.68,1087.37 2118.69,1087.29 2119.7,1087.22 2120.7,1087.14 2121.71,1087.06 2122.72,1086.98 2123.72,1086.9 2124.73,1086.83 2125.73,1086.75 2126.74,1086.67 2127.75,1086.59 2128.75,1086.51 2129.76,1086.43 2130.77,1086.34 2131.77,1086.26 2132.78,1086.18 2133.79,1086.1 2134.79,1086.02 2135.8,1085.93 2136.81,1085.85 2137.81,1085.77 2138.82,1085.68 2139.83,1085.6 2140.83,1085.51 2141.84,1085.43 2142.84,1085.34 2143.85,1085.26 2144.86,1085.17 2145.86,1085.08 2146.87,1085 2147.88,1084.91 2148.88,1084.82 2149.89,1084.73 2150.9,1084.64 2151.9,1084.56 2152.91,1084.47 2153.92,1084.38 2154.92,1084.29 2155.93,1084.19 2156.93,1084.1 2157.94,1084.01 2158.95,1083.92 2159.95,1083.83 2160.96,1083.73 2161.97,1083.64 2162.97,1083.55 2163.98,1083.45 2164.99,1083.36 2165.99,1083.26 2167,1083.17 2168.01,1083.07 2169.01,1082.98 2170.02,1082.88 2171.03,1082.78 2172.03,1082.69 2173.04,1082.59 2174.04,1082.49 2175.05,1082.39 2176.06,1082.29 2177.06,1082.19 2178.07,1082.09 2179.08,1081.99 2180.08,1081.89 2181.09,1081.79 2182.1,1081.69 2183.1,1081.58 2184.11,1081.48 2185.12,1081.38 2186.12,1081.27 2187.13,1081.17 2188.13,1081.06 2189.14,1080.96 2190.15,1080.85 2191.15,1080.74 2192.16,1080.64 2193.17,1080.53 2194.17,1080.42 2195.18,1080.31 2196.19,1080.2 2197.19,1080.09 2198.2,1079.98 2199.21,1079.87 2200.21,1079.76 2201.22,1079.65 2202.23,1079.54 2203.23,1079.43 2204.24,1079.31 2205.24,1079.2 2206.25,1079.09 2207.26,1078.97 2208.26,1078.86 2209.27,1078.74 2210.28,1078.62 2211.28,1078.51 2212.29,1078.39 2213.3,1078.27 2214.3,1078.15 2215.31,1078.03 2216.32,1077.91 2217.32,1077.79 2218.33,1077.67 2219.33,1077.55 2220.34,1077.43 2221.35,1077.31 2222.35,1077.18 2223.36,1077.06 2224.37,1076.94 2225.37,1076.81 2226.38,1076.68 2227.39,1076.56 2228.39,1076.43 2229.4,1076.3 2230.41,1076.18 2231.41,1076.05 2232.42,1075.92 2233.43,1075.79 2234.43,1075.66 2235.44,1075.53 2236.44,1075.4 2237.45,1075.26 2238.46,1075.13 2239.46,1075 2240.47,1074.86 2241.48,1074.73 2242.48,1074.59 2243.49,1074.45 2244.5,1074.32 2245.5,1074.18 2246.51,1074.04 2247.52,1073.9 2248.52,1073.76 2249.53,1073.62 2250.54,1073.48 2251.54,1073.34 2252.55,1073.2 2253.55,1073.05 2254.56,1072.91 2255.57,1072.77 2256.57,1072.62 2257.58,1072.47 2258.59,1072.33 2259.59,1072.18 2260.6,1072.03 2261.61,1071.88 2262.61,1071.73 2263.62,1071.58 2264.63,1071.43 2265.63,1071.28 2266.64,1071.13 2267.64,1070.97 2268.65,1070.82 2269.66,1070.66 2270.66,1070.51 2271.67,1070.35 2272.68,1070.19 2273.68,1070.03 2274.69,1069.88 2275.7,1069.72 2276.7,1069.55 2277.71,1069.39 2278.72,1069.23 2279.72,1069.07 2280.73,1068.9 2281.74,1068.74 2282.74,1068.57 2283.75,1068.41 2284.75,1068.24 2285.76,1068.07 2286.77,1067.9 2287.77,1067.73 2288.78,1067.56 2289.79,1067.39 2290.79,1067.21 2291.8,1067.04 2292.81,1066.87 2293.81,1066.69 2294.82,1066.51 2295.83,1066.34 2296.83,1066.16 2297.84,1065.98 2298.84,1065.8 2299.85,1065.62 2300.86,1065.43 2301.86,1065.25 2302.87,1065.07 2303.88,1064.88 2304.88,1064.7 2305.89,1064.51 2306.9,1064.32 2307.9,1064.13 2308.91,1063.94 2309.92,1063.75 2310.92,1063.56 2311.93,1063.36 2312.94,1063.17 2313.94,1062.97 2314.95,1062.78 2315.95,1062.58 2316.96,1062.38 2317.97,1062.18 2318.97,1061.98 2319.98,1061.78 2320.99,1061.57 2321.99,1061.37 2323,1061.16 2324.01,1060.96 2325.01,1060.75 2326.02,1060.54 2327.03,1060.33 2328.03,1060.12 2329.04,1059.91 2330.04,1059.69 2331.05,1059.48 2332.06,1059.26 2333.06,1059.04 2334.07,1058.83 2335.08,1058.61 2336.08,1058.38 2337.09,1058.16 2338.1,1057.94 2339.1,1057.71 2340.11,1057.49 2341.12,1057.26 2342.12,1057.03 2343.13,1056.8 2344.14,1056.57 2345.14,1056.33 2346.15,1056.1 2347.15,1055.86 2348.16,1055.63 2349.17,1055.39 2350.17,1055.15 2351.18,1054.9 2352.19,1054.66 2353.19,1054.42 2354.2,1054.17 2355.21,1053.92 2356.21,1053.67 2357.22,1053.42 2358.23,1053.17 2359.23,1052.92 2360.24,1052.66 2361.25,1052.4 2362.25,1052.15 2363.26,1051.89 2364.26,1051.62 2365.27,1051.36 2366.28,1051.1 2367.28,1050.83 2368.29,1050.56 2369.3,1050.29 2370.3,1050.02 2371.31,1049.74 2372.32,1049.47 2373.32,1049.19 2374.33,1048.91 2375.34,1048.63 2376.34,1048.35 2377.35,1048.06 2378.35,1047.78 2379.36,1047.49 2380.37,1047.2 2381.37,1046.91 2382.38,1046.61 2383.39,1046.32 2384.39,1046.02 2385.4,1045.72 2386.41,1045.42 2387.41,1045.11 2388.42,1044.81 2389.43,1044.5 2390.43,1044.19 2391.44,1043.88 2392.45,1043.56 2393.45,1043.24 2394.46,1042.93 2395.46,1042.6 2396.47,1042.28 2397.48,1041.95 2398.48,1041.63 2399.49,1041.3 2400.5,1040.96 2401.5,1040.63 2402.51,1040.29 2403.52,1039.95 2404.52,1039.61 2405.53,1039.26 2406.54,1038.91 2407.54,1038.56 2408.55,1038.21 2409.55,1037.86 2410.56,1037.5 2411.57,1037.14 2412.57,1036.77 2413.58,1036.41 2414.59,1036.04 2415.59,1035.66 2416.6,1035.29 2417.61,1034.91 2418.61,1034.53 2419.62,1034.15 2420.63,1033.76 2421.63,1033.37 2422.64,1032.98 2423.65,1032.58 2424.65,1032.18 2425.66,1031.78 2426.66,1031.38 2427.67,1030.97 2428.68,1030.55 2429.68,1030.14 2430.69,1029.72 2431.7,1029.3 2432.7,1028.87 2433.71,1028.44 2434.72,1028.01 2435.72,1027.57 2436.73,1027.13 2437.74,1026.68 2438.74,1026.24 2439.75,1025.78 2440.75,1025.33 2441.76,1024.87 2442.77,1024.4 2443.77,1023.93 2444.78,1023.46 2445.79,1022.98 2446.79,1022.5 2447.8,1022.02 2448.81,1021.53 2449.81,1021.03 2450.82,1020.53 2451.83,1020.03 2452.83,1019.52 2453.84,1019 2454.85,1018.49 2455.85,1017.96 2456.86,1017.43 2457.86,1016.9 2458.87,1016.36 2459.88,1015.82 2460.88,1015.26 2461.89,1014.71 2462.9,1014.15 2463.9,1013.58 2464.91,1013.01 2465.92,1012.43 2466.92,1011.84 2467.93,1011.25 2468.94,1010.66 2469.94,1010.05 2470.95,1009.44 2471.96,1008.83 2472.96,1008.2 2473.97,1007.57 2474.97,1006.94 2475.98,1006.29 2476.99,1005.64 2477.99,1004.98 2479,1004.31 2480.01,1003.64 2481.01,1002.96 2482.02,1002.27 2483.03,1001.57 2484.03,1000.86 2485.04,1000.15 2486.05,999.422 2487.05,998.689 2488.06,997.947 2489.06,997.196 2490.07,996.435 2491.08,995.664 2492.08,994.884 2493.09,994.093 2494.1,993.292 2495.1,992.48 2496.11,991.657 2497.12,990.824 2498.12,989.978 2499.13,989.121 2500.14,988.253 2501.14,987.372 2502.15,986.478 2503.16,985.571 2504.16,984.652 2505.17,983.718 2506.17,982.771 2507.18,981.81 2508.19,980.833 2509.19,979.842 2510.2,978.836 2511.21,977.813 2512.21,976.774 2513.22,975.719 2514.23,974.646 2515.23,973.555 2516.24,972.446 2517.25,971.318 2518.25,970.171 2519.26,969.004 2520.26,967.816 2521.27,966.607 2522.28,965.376 2523.28,964.123 2524.29,962.846 2525.3,961.544 2526.3,960.218 2527.31,958.866 2528.32,957.488 2529.32,956.082 2530.33,954.647 2531.34,953.182 2532.34,951.687 2533.35,950.16 2534.36,948.6 2535.36,947.005 2536.37,945.375 2537.37,943.707 2538.38,942.001 2539.39,940.255 2540.39,938.467 2541.4,936.635 2542.41,934.758 2543.41,932.833 2544.42,930.858 2545.43,928.832 2546.43,926.751 2547.44,924.613 2548.45,922.415 2549.45,920.154 2550.46,917.828 2551.46,915.432 2552.47,912.963 2553.48,910.417 2554.48,907.79 2555.49,905.077 2556.5,902.274 2557.5,899.374 2558.51,896.372 2559.52,893.262 2560.52,890.037 2561.53,886.689 2562.54,883.21 2563.54,879.59 2564.55,875.82 2565.56,871.889 2566.56,867.784 2567.57,863.492 2568.57,858.998 2569.58,854.285 2570.59,849.333 2571.59,844.121 2572.6,838.625 2573.61,832.818 2574.61,826.668 2575.62,820.14 2576.63,813.19 2577.63,805.771 2578.64,797.827 2579.65,789.291 2580.65,780.083 2581.66,770.108 2582.67,759.252 2583.67,747.374 2584.68,734.299 2585.68,719.808 2586.69,703.62 2587.7,685.377 2588.7,664.569 2589.71,640.625 2590.72,612.26 2591.72,579.512 2592.73,534.717 2593.74,497.047 2594.74,367.675 2595.75,143.43 2596.76,143.428 2597.76,143.428 2598.77,143.428 2599.77,143.429 2600.78,143.464 2601.79,1291.99 2602.79,1062.7 2603.8,1115.36 2604.81,1102.81 2605.81,1105.87 2606.82,1105.11 2607.83,1105.3 2608.83,1105.25 2609.84,1105.27 2610.85,1105.26 2611.85,1105.26 2612.86,1105.26 2613.87,1105.26 2614.87,1105.26 2615.88,1105.26 2616.88,1105.26 2617.89,1105.26 2618.9,1105.26 2619.9,1105.26 2620.91,1105.26 2621.92,1105.26 2622.92,1105.26 2623.93,1105.26 2624.94,1105.26 2625.94,1105.26 2626.95,1105.26 2627.96,1105.26 2628.96,1105.26 2629.97,1105.26 2630.97,1105.26 2631.98,1105.26 2632.99,1105.26 2633.99,1105.26 2635,1105.26 2636.01,1105.26 2637.01,1105.26 2638.02,1105.26 2639.03,1105.26 2640.03,1105.26 2641.04,1105.26 2642.05,1105.26 2643.05,1105.26 2644.06,1105.26 2645.07,1105.26 2646.07,1105.26 2647.08,1105.26 2648.08,1105.26 2649.09,1105.26 2650.1,1105.26 2651.1,1105.26 2652.11,1105.26 2653.12,1105.26 2654.12,1105.26 2655.13,1105.26 2656.14,1105.26 2657.14,1105.26 2658.15,1105.26 2659.16,1105.26 2660.16,1105.26 2661.17,1105.26 2662.17,1105.26 2663.18,1105.26 2664.19,1105.26 2665.19,1105.26 2666.2,1105.26 2667.21,1105.26 2668.21,1105.26 2669.22,1105.26 2670.23,1105.26 2671.23,1105.26 2672.24,1105.26 2673.25,1105.26 2674.25,1105.26 2675.26,1105.26 2676.27,1105.26 2677.27,1105.26 2678.28,1105.26 2679.28,1105.26 2680.29,1105.26 2681.3,1105.26 2682.3,1105.26 2683.31,1105.26 2684.32,1105.26 2685.32,1105.26 2686.33,1105.26 2687.34,1105.26 2688.34,1105.26 2689.35,1105.26 2690.36,1105.26 2691.36,1105.26 2692.37,1105.26 2693.38,1105.26 2694.38,1105.26 2695.39,1105.26 2696.39,1105.26 2697.4,1105.26 2698.41,1105.26 2699.41,1105.26 2700.42,1105.26 2701.43,1105.26 2702.43,1105.26 2703.44,1105.26 2704.45,1105.26 2705.45,1105.26 2706.46,1105.26 2707.47,1105.26 2708.47,1105.26 2709.48,1105.26 2710.48,1105.26 2711.49,1105.26 2712.5,1105.26 2713.5,1105.26 2714.51,1105.26 2715.52,1105.26 2716.52,1105.26 2717.53,1105.26 2718.54,1105.26 2719.54,1105.26 2720.55,1105.26 2721.56,1105.26 2722.56,1105.26 "/>
</svg>
