<?xml version="1.0" encoding="utf-8"?>
<svg xmlns="http://www.w3.org/2000/svg" xmlns:xlink="http://www.w3.org/1999/xlink" width="800" height="400" viewBox="0 0 3200 1600">
<defs>
  <clipPath id="clip920">
    <rect x="0" y="0" width="3200" height="1600"/>
  </clipPath>
</defs>
<path clip-path="url(#clip920)" d="M0 1600 L3200 1600 L3200 0 L0 0  Z" fill="#ffffff" fill-rule="evenodd" fill-opacity="1"/>
<defs>
  <clipPath id="clip921">
    <rect x="640" y="0" width="2241" height="1600"/>
  </clipPath>
</defs>
<path clip-path="url(#clip920)" d="M289.914 1354.77 L1552.76 1354.77 L1552.76 91.925 L289.914 91.925  Z" fill="#ffffff" fill-rule="evenodd" fill-opacity="1"/>
<defs>
  <clipPath id="clip922">
    <rect x="289" y="91" width="1264" height="1264"/>
  </clipPath>
</defs>
<polyline clip-path="url(#clip922)" style="stroke:#000000; stroke-linecap:round; stroke-linejoin:round; stroke-width:2; stroke-opacity:0.1; fill:none" points="395.151,1354.77 395.151,91.925 "/>
<polyline clip-path="url(#clip922)" style="stroke:#000000; stroke-linecap:round; stroke-linejoin:round; stroke-width:2; stroke-opacity:0.1; fill:none" points="658.243,1354.77 658.243,91.925 "/>
<polyline clip-path="url(#clip922)" style="stroke:#000000; stroke-linecap:round; stroke-linejoin:round; stroke-width:2; stroke-opacity:0.1; fill:none" points="921.335,1354.77 921.335,91.925 "/>
<polyline clip-path="url(#clip922)" style="stroke:#000000; stroke-linecap:round; stroke-linejoin:round; stroke-width:2; stroke-opacity:0.1; fill:none" points="1184.43,1354.77 1184.43,91.925 "/>
<polyline clip-path="url(#clip922)" style="stroke:#000000; stroke-linecap:round; stroke-linejoin:round; stroke-width:2; stroke-opacity:0.1; fill:none" points="1447.52,1354.77 1447.52,91.925 "/>
<polyline clip-path="url(#clip922)" style="stroke:#000000; stroke-linecap:round; stroke-linejoin:round; stroke-width:2; stroke-opacity:0.1; fill:none" points="289.914,1249.53 1552.76,1249.53 "/>
<polyline clip-path="url(#clip922)" style="stroke:#000000; stroke-linecap:round; stroke-linejoin:round; stroke-width:2; stroke-opacity:0.1; fill:none" points="289.914,986.438 1552.76,986.438 "/>
<polyline clip-path="url(#clip922)" style="stroke:#000000; stroke-linecap:round; stroke-linejoin:round; stroke-width:2; stroke-opacity:0.1; fill:none" points="289.914,723.346 1552.76,723.346 "/>
<polyline clip-path="url(#clip922)" style="stroke:#000000; stroke-linecap:round; stroke-linejoin:round; stroke-width:2; stroke-opacity:0.1; fill:none" points="289.914,460.254 1552.76,460.254 "/>
<polyline clip-path="url(#clip922)" style="stroke:#000000; stroke-linecap:round; stroke-linejoin:round; stroke-width:2; stroke-opacity:0.1; fill:none" points="289.914,197.162 1552.76,197.162 "/>
<polyline clip-path="url(#clip920)" style="stroke:#000000; stroke-linecap:round; stroke-linejoin:round; stroke-width:4; stroke-opacity:1; fill:none" points="289.914,1354.77 1552.76,1354.77 "/>
<polyline clip-path="url(#clip920)" style="stroke:#000000; stroke-linecap:round; stroke-linejoin:round; stroke-width:4; stroke-opacity:1; fill:none" points="395.151,1354.77 395.151,1337.12 "/>
<polyline clip-path="url(#clip920)" style="stroke:#000000; stroke-linecap:round; stroke-linejoin:round; stroke-width:4; stroke-opacity:1; fill:none" points="658.243,1354.77 658.243,1337.12 "/>
<polyline clip-path="url(#clip920)" style="stroke:#000000; stroke-linecap:round; stroke-linejoin:round; stroke-width:4; stroke-opacity:1; fill:none" points="921.335,1354.77 921.335,1337.12 "/>
<polyline clip-path="url(#clip920)" style="stroke:#000000; stroke-linecap:round; stroke-linejoin:round; stroke-width:4; stroke-opacity:1; fill:none" points="1184.43,1354.77 1184.43,1337.12 "/>
<polyline clip-path="url(#clip920)" style="stroke:#000000; stroke-linecap:round; stroke-linejoin:round; stroke-width:4; stroke-opacity:1; fill:none" points="1447.52,1354.77 1447.52,1337.12 "/>
<path clip-path="url(#clip920)" d="M326.598 1406.74 L356.274 1406.74 L356.274 1410.67 L326.598 1410.67 L326.598 1406.74 Z" fill="#000000" fill-rule="nonzero" fill-opacity="1" /><path clip-path="url(#clip920)" d="M367.176 1419.63 L374.815 1419.63 L374.815 1393.27 L366.505 1394.93 L366.505 1390.67 L374.769 1389.01 L379.445 1389.01 L379.445 1419.63 L387.084 1419.63 L387.084 1423.57 L367.176 1423.57 L367.176 1419.63 Z" fill="#000000" fill-rule="nonzero" fill-opacity="1" /><path clip-path="url(#clip920)" d="M396.528 1417.69 L401.412 1417.69 L401.412 1423.57 L396.528 1423.57 L396.528 1417.69 Z" fill="#000000" fill-rule="nonzero" fill-opacity="1" /><path clip-path="url(#clip920)" d="M421.597 1392.09 Q417.986 1392.09 416.158 1395.65 Q414.352 1399.19 414.352 1406.32 Q414.352 1413.43 416.158 1416.99 Q417.986 1420.53 421.597 1420.53 Q425.232 1420.53 427.037 1416.99 Q428.866 1413.43 428.866 1406.32 Q428.866 1399.19 427.037 1395.65 Q425.232 1392.09 421.597 1392.09 M421.597 1388.38 Q427.408 1388.38 430.463 1392.99 Q433.542 1397.57 433.542 1406.32 Q433.542 1415.05 430.463 1419.65 Q427.408 1424.24 421.597 1424.24 Q415.787 1424.24 412.709 1419.65 Q409.653 1415.05 409.653 1406.32 Q409.653 1397.57 412.709 1392.99 Q415.787 1388.38 421.597 1388.38 Z" fill="#000000" fill-rule="nonzero" fill-opacity="1" /><path clip-path="url(#clip920)" d="M451.759 1392.09 Q448.148 1392.09 446.32 1395.65 Q444.514 1399.19 444.514 1406.32 Q444.514 1413.43 446.32 1416.99 Q448.148 1420.53 451.759 1420.53 Q455.394 1420.53 457.199 1416.99 Q459.028 1413.43 459.028 1406.32 Q459.028 1399.19 457.199 1395.65 Q455.394 1392.09 451.759 1392.09 M451.759 1388.38 Q457.569 1388.38 460.625 1392.99 Q463.704 1397.57 463.704 1406.32 Q463.704 1415.05 460.625 1419.65 Q457.569 1424.24 451.759 1424.24 Q445.949 1424.24 442.87 1419.65 Q439.815 1415.05 439.815 1406.32 Q439.815 1397.57 442.87 1392.99 Q445.949 1388.38 451.759 1388.38 Z" fill="#000000" fill-rule="nonzero" fill-opacity="1" /><path clip-path="url(#clip920)" d="M590.188 1406.74 L619.863 1406.74 L619.863 1410.67 L590.188 1410.67 L590.188 1406.74 Z" fill="#000000" fill-rule="nonzero" fill-opacity="1" /><path clip-path="url(#clip920)" d="M639.956 1392.09 Q636.345 1392.09 634.516 1395.65 Q632.711 1399.19 632.711 1406.32 Q632.711 1413.43 634.516 1416.99 Q636.345 1420.53 639.956 1420.53 Q643.59 1420.53 645.396 1416.99 Q647.224 1413.43 647.224 1406.32 Q647.224 1399.19 645.396 1395.65 Q643.59 1392.09 639.956 1392.09 M639.956 1388.38 Q645.766 1388.38 648.822 1392.99 Q651.9 1397.57 651.9 1406.32 Q651.9 1415.05 648.822 1419.65 Q645.766 1424.24 639.956 1424.24 Q634.146 1424.24 631.067 1419.65 Q628.012 1415.05 628.012 1406.32 Q628.012 1397.57 631.067 1392.99 Q634.146 1388.38 639.956 1388.38 Z" fill="#000000" fill-rule="nonzero" fill-opacity="1" /><path clip-path="url(#clip920)" d="M660.118 1417.69 L665.002 1417.69 L665.002 1423.57 L660.118 1423.57 L660.118 1417.69 Z" fill="#000000" fill-rule="nonzero" fill-opacity="1" /><path clip-path="url(#clip920)" d="M674.007 1389.01 L696.229 1389.01 L696.229 1391 L683.683 1423.57 L678.798 1423.57 L690.604 1392.94 L674.007 1392.94 L674.007 1389.01 Z" fill="#000000" fill-rule="nonzero" fill-opacity="1" /><path clip-path="url(#clip920)" d="M705.395 1389.01 L723.752 1389.01 L723.752 1392.94 L709.678 1392.94 L709.678 1401.41 Q710.696 1401.07 711.715 1400.91 Q712.733 1400.72 713.752 1400.72 Q719.539 1400.72 722.918 1403.89 Q726.298 1407.06 726.298 1412.48 Q726.298 1418.06 722.826 1421.16 Q719.354 1424.24 713.034 1424.24 Q710.858 1424.24 708.59 1423.87 Q706.344 1423.5 703.937 1422.76 L703.937 1418.06 Q706.02 1419.19 708.243 1419.75 Q710.465 1420.3 712.942 1420.3 Q716.946 1420.3 719.284 1418.2 Q721.622 1416.09 721.622 1412.48 Q721.622 1408.87 719.284 1406.76 Q716.946 1404.66 712.942 1404.66 Q711.067 1404.66 709.192 1405.07 Q707.34 1405.49 705.395 1406.37 L705.395 1389.01 Z" fill="#000000" fill-rule="nonzero" fill-opacity="1" /><path clip-path="url(#clip920)" d="M852.782 1406.74 L882.458 1406.74 L882.458 1410.67 L852.782 1410.67 L852.782 1406.74 Z" fill="#000000" fill-rule="nonzero" fill-opacity="1" /><path clip-path="url(#clip920)" d="M902.55 1392.09 Q898.939 1392.09 897.111 1395.65 Q895.305 1399.19 895.305 1406.32 Q895.305 1413.43 897.111 1416.99 Q898.939 1420.53 902.55 1420.53 Q906.185 1420.53 907.99 1416.99 Q909.819 1413.43 909.819 1406.32 Q909.819 1399.19 907.99 1395.65 Q906.185 1392.09 902.55 1392.09 M902.55 1388.38 Q908.36 1388.38 911.416 1392.99 Q914.495 1397.57 914.495 1406.32 Q914.495 1415.05 911.416 1419.65 Q908.36 1424.24 902.55 1424.24 Q896.74 1424.24 893.661 1419.65 Q890.606 1415.05 890.606 1406.32 Q890.606 1397.57 893.661 1392.99 Q896.74 1388.38 902.55 1388.38 Z" fill="#000000" fill-rule="nonzero" fill-opacity="1" /><path clip-path="url(#clip920)" d="M922.712 1417.69 L927.596 1417.69 L927.596 1423.57 L922.712 1423.57 L922.712 1417.69 Z" fill="#000000" fill-rule="nonzero" fill-opacity="1" /><path clip-path="url(#clip920)" d="M937.828 1389.01 L956.184 1389.01 L956.184 1392.94 L942.11 1392.94 L942.11 1401.41 Q943.129 1401.07 944.147 1400.91 Q945.166 1400.72 946.184 1400.72 Q951.971 1400.72 955.351 1403.89 Q958.731 1407.06 958.731 1412.48 Q958.731 1418.06 955.258 1421.16 Q951.786 1424.24 945.467 1424.24 Q943.291 1424.24 941.022 1423.87 Q938.777 1423.5 936.37 1422.76 L936.37 1418.06 Q938.453 1419.19 940.675 1419.75 Q942.897 1420.3 945.374 1420.3 Q949.379 1420.3 951.717 1418.2 Q954.055 1416.09 954.055 1412.48 Q954.055 1408.87 951.717 1406.76 Q949.379 1404.66 945.374 1404.66 Q943.499 1404.66 941.624 1405.07 Q939.772 1405.49 937.828 1406.37 L937.828 1389.01 Z" fill="#000000" fill-rule="nonzero" fill-opacity="1" /><path clip-path="url(#clip920)" d="M977.943 1392.09 Q974.332 1392.09 972.504 1395.65 Q970.698 1399.19 970.698 1406.32 Q970.698 1413.43 972.504 1416.99 Q974.332 1420.53 977.943 1420.53 Q981.578 1420.53 983.383 1416.99 Q985.212 1413.43 985.212 1406.32 Q985.212 1399.19 983.383 1395.65 Q981.578 1392.09 977.943 1392.09 M977.943 1388.38 Q983.754 1388.38 986.809 1392.99 Q989.888 1397.57 989.888 1406.32 Q989.888 1415.05 986.809 1419.65 Q983.754 1424.24 977.943 1424.24 Q972.133 1424.24 969.055 1419.65 Q965.999 1415.05 965.999 1406.32 Q965.999 1397.57 969.055 1392.99 Q972.133 1388.38 977.943 1388.38 Z" fill="#000000" fill-rule="nonzero" fill-opacity="1" /><path clip-path="url(#clip920)" d="M1116.37 1406.74 L1146.05 1406.74 L1146.05 1410.67 L1116.37 1410.67 L1116.37 1406.74 Z" fill="#000000" fill-rule="nonzero" fill-opacity="1" /><path clip-path="url(#clip920)" d="M1166.14 1392.09 Q1162.53 1392.09 1160.7 1395.65 Q1158.89 1399.19 1158.89 1406.32 Q1158.89 1413.43 1160.7 1416.99 Q1162.53 1420.53 1166.14 1420.53 Q1169.77 1420.53 1171.58 1416.99 Q1173.41 1413.43 1173.41 1406.32 Q1173.41 1399.19 1171.58 1395.65 Q1169.77 1392.09 1166.14 1392.09 M1166.14 1388.38 Q1171.95 1388.38 1175.01 1392.99 Q1178.08 1397.57 1178.08 1406.32 Q1178.08 1415.05 1175.01 1419.65 Q1171.95 1424.24 1166.14 1424.24 Q1160.33 1424.24 1157.25 1419.65 Q1154.2 1415.05 1154.2 1406.32 Q1154.2 1397.57 1157.25 1392.99 Q1160.33 1388.38 1166.14 1388.38 Z" fill="#000000" fill-rule="nonzero" fill-opacity="1" /><path clip-path="url(#clip920)" d="M1186.3 1417.69 L1191.19 1417.69 L1191.19 1423.57 L1186.3 1423.57 L1186.3 1417.69 Z" fill="#000000" fill-rule="nonzero" fill-opacity="1" /><path clip-path="url(#clip920)" d="M1205.4 1419.63 L1221.72 1419.63 L1221.72 1423.57 L1199.77 1423.57 L1199.77 1419.63 Q1202.44 1416.88 1207.02 1412.25 Q1211.63 1407.59 1212.81 1406.25 Q1215.05 1403.73 1215.93 1401.99 Q1216.83 1400.23 1216.83 1398.54 Q1216.83 1395.79 1214.89 1394.05 Q1212.97 1392.32 1209.87 1392.32 Q1207.67 1392.32 1205.21 1393.08 Q1202.78 1393.84 1200.01 1395.4 L1200.01 1390.67 Q1202.83 1389.54 1205.28 1388.96 Q1207.74 1388.38 1209.77 1388.38 Q1215.14 1388.38 1218.34 1391.07 Q1221.53 1393.75 1221.53 1398.24 Q1221.53 1400.37 1220.72 1402.29 Q1219.94 1404.19 1217.83 1406.78 Q1217.25 1407.46 1214.15 1410.67 Q1211.05 1413.87 1205.4 1419.63 Z" fill="#000000" fill-rule="nonzero" fill-opacity="1" /><path clip-path="url(#clip920)" d="M1231.58 1389.01 L1249.94 1389.01 L1249.94 1392.94 L1235.86 1392.94 L1235.86 1401.41 Q1236.88 1401.07 1237.9 1400.91 Q1238.92 1400.72 1239.94 1400.72 Q1245.72 1400.72 1249.1 1403.89 Q1252.48 1407.06 1252.48 1412.48 Q1252.48 1418.06 1249.01 1421.16 Q1245.54 1424.24 1239.22 1424.24 Q1237.04 1424.24 1234.77 1423.87 Q1232.53 1423.5 1230.12 1422.76 L1230.12 1418.06 Q1232.2 1419.19 1234.43 1419.75 Q1236.65 1420.3 1239.13 1420.3 Q1243.13 1420.3 1245.47 1418.2 Q1247.81 1416.09 1247.81 1412.48 Q1247.81 1408.87 1245.47 1406.76 Q1243.13 1404.66 1239.13 1404.66 Q1237.25 1404.66 1235.38 1405.07 Q1233.52 1405.49 1231.58 1406.37 L1231.58 1389.01 Z" fill="#000000" fill-rule="nonzero" fill-opacity="1" /><path clip-path="url(#clip920)" d="M1409.82 1392.09 Q1406.21 1392.09 1404.38 1395.65 Q1402.58 1399.19 1402.58 1406.32 Q1402.58 1413.43 1404.38 1416.99 Q1406.21 1420.53 1409.82 1420.53 Q1413.46 1420.53 1415.26 1416.99 Q1417.09 1413.43 1417.09 1406.32 Q1417.09 1399.19 1415.26 1395.65 Q1413.46 1392.09 1409.82 1392.09 M1409.82 1388.38 Q1415.63 1388.38 1418.69 1392.99 Q1421.77 1397.57 1421.77 1406.32 Q1421.77 1415.05 1418.69 1419.65 Q1415.63 1424.24 1409.82 1424.24 Q1404.01 1424.24 1400.93 1419.65 Q1397.88 1415.05 1397.88 1406.32 Q1397.88 1397.57 1400.93 1392.99 Q1404.01 1388.38 1409.82 1388.38 Z" fill="#000000" fill-rule="nonzero" fill-opacity="1" /><path clip-path="url(#clip920)" d="M1429.98 1417.69 L1434.87 1417.69 L1434.87 1423.57 L1429.98 1423.57 L1429.98 1417.69 Z" fill="#000000" fill-rule="nonzero" fill-opacity="1" /><path clip-path="url(#clip920)" d="M1455.05 1392.09 Q1451.44 1392.09 1449.61 1395.65 Q1447.81 1399.19 1447.81 1406.32 Q1447.81 1413.43 1449.61 1416.99 Q1451.44 1420.53 1455.05 1420.53 Q1458.69 1420.53 1460.49 1416.99 Q1462.32 1413.43 1462.32 1406.32 Q1462.32 1399.19 1460.49 1395.65 Q1458.69 1392.09 1455.05 1392.09 M1455.05 1388.38 Q1460.86 1388.38 1463.92 1392.99 Q1467 1397.57 1467 1406.32 Q1467 1415.05 1463.92 1419.65 Q1460.86 1424.24 1455.05 1424.24 Q1449.24 1424.24 1446.16 1419.65 Q1443.11 1415.05 1443.11 1406.32 Q1443.11 1397.57 1446.16 1392.99 Q1449.24 1388.38 1455.05 1388.38 Z" fill="#000000" fill-rule="nonzero" fill-opacity="1" /><path clip-path="url(#clip920)" d="M1485.22 1392.09 Q1481.6 1392.09 1479.78 1395.65 Q1477.97 1399.19 1477.97 1406.32 Q1477.97 1413.43 1479.78 1416.99 Q1481.6 1420.53 1485.22 1420.53 Q1488.85 1420.53 1490.66 1416.99 Q1492.48 1413.43 1492.48 1406.32 Q1492.48 1399.19 1490.66 1395.65 Q1488.85 1392.09 1485.22 1392.09 M1485.22 1388.38 Q1491.03 1388.38 1494.08 1392.99 Q1497.16 1397.57 1497.16 1406.32 Q1497.16 1415.05 1494.08 1419.65 Q1491.03 1424.24 1485.22 1424.24 Q1479.41 1424.24 1476.33 1419.65 Q1473.27 1415.05 1473.27 1406.32 Q1473.27 1397.57 1476.33 1392.99 Q1479.41 1388.38 1485.22 1388.38 Z" fill="#000000" fill-rule="nonzero" fill-opacity="1" /><path clip-path="url(#clip920)" d="M923.022 1514.94 Q920.539 1521.31 918.184 1523.25 Q915.829 1525.19 911.882 1525.19 L907.203 1525.19 L907.203 1520.29 L910.641 1520.29 Q913.06 1520.29 914.396 1519.14 Q915.733 1518 917.356 1513.73 L918.407 1511.06 L903.988 1475.98 L910.195 1475.98 L921.335 1503.86 L932.475 1475.98 L938.682 1475.98 L923.022 1514.94 Z" fill="#000000" fill-rule="nonzero" fill-opacity="1" /><polyline clip-path="url(#clip920)" style="stroke:#000000; stroke-linecap:round; stroke-linejoin:round; stroke-width:4; stroke-opacity:1; fill:none" points="289.914,1354.77 289.914,91.925 "/>
<polyline clip-path="url(#clip920)" style="stroke:#000000; stroke-linecap:round; stroke-linejoin:round; stroke-width:4; stroke-opacity:1; fill:none" points="289.914,1249.53 308.812,1249.53 "/>
<polyline clip-path="url(#clip920)" style="stroke:#000000; stroke-linecap:round; stroke-linejoin:round; stroke-width:4; stroke-opacity:1; fill:none" points="289.914,986.438 308.812,986.438 "/>
<polyline clip-path="url(#clip920)" style="stroke:#000000; stroke-linecap:round; stroke-linejoin:round; stroke-width:4; stroke-opacity:1; fill:none" points="289.914,723.346 308.812,723.346 "/>
<polyline clip-path="url(#clip920)" style="stroke:#000000; stroke-linecap:round; stroke-linejoin:round; stroke-width:4; stroke-opacity:1; fill:none" points="289.914,460.254 308.812,460.254 "/>
<polyline clip-path="url(#clip920)" style="stroke:#000000; stroke-linecap:round; stroke-linejoin:round; stroke-width:4; stroke-opacity:1; fill:none" points="289.914,197.162 308.812,197.162 "/>
<path clip-path="url(#clip920)" d="M154.577 1235.33 Q150.965 1235.33 149.137 1238.89 Q147.331 1242.44 147.331 1249.56 Q147.331 1256.67 149.137 1260.24 Q150.965 1263.78 154.577 1263.78 Q158.211 1263.78 160.016 1260.24 Q161.845 1256.67 161.845 1249.56 Q161.845 1242.44 160.016 1238.89 Q158.211 1235.33 154.577 1235.33 M154.577 1231.63 Q160.387 1231.63 163.442 1236.23 Q166.521 1240.81 166.521 1249.56 Q166.521 1258.29 163.442 1262.9 Q160.387 1267.48 154.577 1267.48 Q148.766 1267.48 145.688 1262.9 Q142.632 1258.29 142.632 1249.56 Q142.632 1240.81 145.688 1236.23 Q148.766 1231.63 154.577 1231.63 Z" fill="#000000" fill-rule="nonzero" fill-opacity="1" /><path clip-path="url(#clip920)" d="M174.738 1260.93 L179.623 1260.93 L179.623 1266.81 L174.738 1266.81 L174.738 1260.93 Z" fill="#000000" fill-rule="nonzero" fill-opacity="1" /><path clip-path="url(#clip920)" d="M199.808 1235.33 Q196.197 1235.33 194.368 1238.89 Q192.562 1242.44 192.562 1249.56 Q192.562 1256.67 194.368 1260.24 Q196.197 1263.78 199.808 1263.78 Q203.442 1263.78 205.248 1260.24 Q207.076 1256.67 207.076 1249.56 Q207.076 1242.44 205.248 1238.89 Q203.442 1235.33 199.808 1235.33 M199.808 1231.63 Q205.618 1231.63 208.673 1236.23 Q211.752 1240.81 211.752 1249.56 Q211.752 1258.29 208.673 1262.9 Q205.618 1267.48 199.808 1267.48 Q193.998 1267.48 190.919 1262.9 Q187.863 1258.29 187.863 1249.56 Q187.863 1240.81 190.919 1236.23 Q193.998 1231.63 199.808 1231.63 Z" fill="#000000" fill-rule="nonzero" fill-opacity="1" /><path clip-path="url(#clip920)" d="M229.97 1235.33 Q226.359 1235.33 224.53 1238.89 Q222.724 1242.44 222.724 1249.56 Q222.724 1256.67 224.53 1260.24 Q226.359 1263.78 229.97 1263.78 Q233.604 1263.78 235.409 1260.24 Q237.238 1256.67 237.238 1249.56 Q237.238 1242.44 235.409 1238.89 Q233.604 1235.33 229.97 1235.33 M229.97 1231.63 Q235.78 1231.63 238.835 1236.23 Q241.914 1240.81 241.914 1249.56 Q241.914 1258.29 238.835 1262.9 Q235.78 1267.48 229.97 1267.48 Q224.159 1267.48 221.081 1262.9 Q218.025 1258.29 218.025 1249.56 Q218.025 1240.81 221.081 1236.23 Q224.159 1231.63 229.97 1231.63 Z" fill="#000000" fill-rule="nonzero" fill-opacity="1" /><path clip-path="url(#clip920)" d="M155.572 972.237 Q151.961 972.237 150.132 975.802 Q148.327 979.343 148.327 986.473 Q148.327 993.579 150.132 997.144 Q151.961 1000.69 155.572 1000.69 Q159.206 1000.69 161.012 997.144 Q162.84 993.579 162.84 986.473 Q162.84 979.343 161.012 975.802 Q159.206 972.237 155.572 972.237 M155.572 968.533 Q161.382 968.533 164.438 973.14 Q167.516 977.723 167.516 986.473 Q167.516 995.2 164.438 999.806 Q161.382 1004.39 155.572 1004.39 Q149.762 1004.39 146.683 999.806 Q143.627 995.2 143.627 986.473 Q143.627 977.723 146.683 973.14 Q149.762 968.533 155.572 968.533 Z" fill="#000000" fill-rule="nonzero" fill-opacity="1" /><path clip-path="url(#clip920)" d="M175.734 997.838 L180.618 997.838 L180.618 1003.72 L175.734 1003.72 L175.734 997.838 Z" fill="#000000" fill-rule="nonzero" fill-opacity="1" /><path clip-path="url(#clip920)" d="M194.831 999.783 L211.15 999.783 L211.15 1003.72 L189.206 1003.72 L189.206 999.783 Q191.868 997.028 196.451 992.399 Q201.058 987.746 202.238 986.403 Q204.484 983.88 205.363 982.144 Q206.266 980.385 206.266 978.695 Q206.266 975.94 204.322 974.204 Q202.4 972.468 199.298 972.468 Q197.099 972.468 194.646 973.232 Q192.215 973.996 189.437 975.547 L189.437 970.825 Q192.261 969.69 194.715 969.112 Q197.169 968.533 199.206 968.533 Q204.576 968.533 207.771 971.218 Q210.965 973.903 210.965 978.394 Q210.965 980.524 210.155 982.445 Q209.368 984.343 207.261 986.936 Q206.683 987.607 203.581 990.825 Q200.479 994.019 194.831 999.783 Z" fill="#000000" fill-rule="nonzero" fill-opacity="1" /><path clip-path="url(#clip920)" d="M221.011 969.158 L239.368 969.158 L239.368 973.093 L225.294 973.093 L225.294 981.565 Q226.312 981.218 227.331 981.056 Q228.349 980.871 229.368 980.871 Q235.155 980.871 238.534 984.042 Q241.914 987.214 241.914 992.63 Q241.914 998.209 238.442 1001.31 Q234.97 1004.39 228.65 1004.39 Q226.474 1004.39 224.206 1004.02 Q221.96 1003.65 219.553 1002.91 L219.553 998.209 Q221.636 999.343 223.859 999.899 Q226.081 1000.45 228.558 1000.45 Q232.562 1000.45 234.9 998.348 Q237.238 996.241 237.238 992.63 Q237.238 989.019 234.9 986.913 Q232.562 984.806 228.558 984.806 Q226.683 984.806 224.808 985.223 Q222.956 985.639 221.011 986.519 L221.011 969.158 Z" fill="#000000" fill-rule="nonzero" fill-opacity="1" /><path clip-path="url(#clip920)" d="M154.577 709.145 Q150.965 709.145 149.137 712.709 Q147.331 716.251 147.331 723.381 Q147.331 730.487 149.137 734.052 Q150.965 737.594 154.577 737.594 Q158.211 737.594 160.016 734.052 Q161.845 730.487 161.845 723.381 Q161.845 716.251 160.016 712.709 Q158.211 709.145 154.577 709.145 M154.577 705.441 Q160.387 705.441 163.442 710.047 Q166.521 714.631 166.521 723.381 Q166.521 732.108 163.442 736.714 Q160.387 741.297 154.577 741.297 Q148.766 741.297 145.688 736.714 Q142.632 732.108 142.632 723.381 Q142.632 714.631 145.688 710.047 Q148.766 705.441 154.577 705.441 Z" fill="#000000" fill-rule="nonzero" fill-opacity="1" /><path clip-path="url(#clip920)" d="M174.738 734.746 L179.623 734.746 L179.623 740.626 L174.738 740.626 L174.738 734.746 Z" fill="#000000" fill-rule="nonzero" fill-opacity="1" /><path clip-path="url(#clip920)" d="M189.854 706.066 L208.21 706.066 L208.21 710.001 L194.136 710.001 L194.136 718.473 Q195.155 718.126 196.174 717.964 Q197.192 717.779 198.211 717.779 Q203.998 717.779 207.377 720.95 Q210.757 724.121 210.757 729.538 Q210.757 735.117 207.285 738.219 Q203.812 741.297 197.493 741.297 Q195.317 741.297 193.049 740.927 Q190.803 740.557 188.396 739.816 L188.396 735.117 Q190.479 736.251 192.701 736.807 Q194.924 737.362 197.4 737.362 Q201.405 737.362 203.743 735.256 Q206.081 733.149 206.081 729.538 Q206.081 725.927 203.743 723.821 Q201.405 721.714 197.4 721.714 Q195.525 721.714 193.65 722.131 Q191.799 722.547 189.854 723.427 L189.854 706.066 Z" fill="#000000" fill-rule="nonzero" fill-opacity="1" /><path clip-path="url(#clip920)" d="M229.97 709.145 Q226.359 709.145 224.53 712.709 Q222.724 716.251 222.724 723.381 Q222.724 730.487 224.53 734.052 Q226.359 737.594 229.97 737.594 Q233.604 737.594 235.409 734.052 Q237.238 730.487 237.238 723.381 Q237.238 716.251 235.409 712.709 Q233.604 709.145 229.97 709.145 M229.97 705.441 Q235.78 705.441 238.835 710.047 Q241.914 714.631 241.914 723.381 Q241.914 732.108 238.835 736.714 Q235.78 741.297 229.97 741.297 Q224.159 741.297 221.081 736.714 Q218.025 732.108 218.025 723.381 Q218.025 714.631 221.081 710.047 Q224.159 705.441 229.97 705.441 Z" fill="#000000" fill-rule="nonzero" fill-opacity="1" /><path clip-path="url(#clip920)" d="M155.572 446.053 Q151.961 446.053 150.132 449.617 Q148.327 453.159 148.327 460.289 Q148.327 467.395 150.132 470.96 Q151.961 474.502 155.572 474.502 Q159.206 474.502 161.012 470.96 Q162.84 467.395 162.84 460.289 Q162.84 453.159 161.012 449.617 Q159.206 446.053 155.572 446.053 M155.572 442.349 Q161.382 442.349 164.438 446.955 Q167.516 451.539 167.516 460.289 Q167.516 469.015 164.438 473.622 Q161.382 478.205 155.572 478.205 Q149.762 478.205 146.683 473.622 Q143.627 469.015 143.627 460.289 Q143.627 451.539 146.683 446.955 Q149.762 442.349 155.572 442.349 Z" fill="#000000" fill-rule="nonzero" fill-opacity="1" /><path clip-path="url(#clip920)" d="M175.734 471.654 L180.618 471.654 L180.618 477.534 L175.734 477.534 L175.734 471.654 Z" fill="#000000" fill-rule="nonzero" fill-opacity="1" /><path clip-path="url(#clip920)" d="M189.623 442.974 L211.845 442.974 L211.845 444.965 L199.298 477.534 L194.414 477.534 L206.22 446.909 L189.623 446.909 L189.623 442.974 Z" fill="#000000" fill-rule="nonzero" fill-opacity="1" /><path clip-path="url(#clip920)" d="M221.011 442.974 L239.368 442.974 L239.368 446.909 L225.294 446.909 L225.294 455.381 Q226.312 455.034 227.331 454.872 Q228.349 454.687 229.368 454.687 Q235.155 454.687 238.534 457.858 Q241.914 461.029 241.914 466.446 Q241.914 472.025 238.442 475.127 Q234.97 478.205 228.65 478.205 Q226.474 478.205 224.206 477.835 Q221.96 477.464 219.553 476.724 L219.553 472.025 Q221.636 473.159 223.859 473.714 Q226.081 474.27 228.558 474.27 Q232.562 474.27 234.9 472.164 Q237.238 470.057 237.238 466.446 Q237.238 462.835 234.9 460.728 Q232.562 458.622 228.558 458.622 Q226.683 458.622 224.808 459.039 Q222.956 459.455 221.011 460.335 L221.011 442.974 Z" fill="#000000" fill-rule="nonzero" fill-opacity="1" /><path clip-path="url(#clip920)" d="M145.387 210.507 L153.026 210.507 L153.026 184.141 L144.715 185.808 L144.715 181.549 L152.979 179.882 L157.655 179.882 L157.655 210.507 L165.294 210.507 L165.294 214.442 L145.387 214.442 L145.387 210.507 Z" fill="#000000" fill-rule="nonzero" fill-opacity="1" /><path clip-path="url(#clip920)" d="M174.738 208.562 L179.623 208.562 L179.623 214.442 L174.738 214.442 L174.738 208.562 Z" fill="#000000" fill-rule="nonzero" fill-opacity="1" /><path clip-path="url(#clip920)" d="M199.808 182.961 Q196.197 182.961 194.368 186.525 Q192.562 190.067 192.562 197.197 Q192.562 204.303 194.368 207.868 Q196.197 211.409 199.808 211.409 Q203.442 211.409 205.248 207.868 Q207.076 204.303 207.076 197.197 Q207.076 190.067 205.248 186.525 Q203.442 182.961 199.808 182.961 M199.808 179.257 Q205.618 179.257 208.673 183.863 Q211.752 188.447 211.752 197.197 Q211.752 205.923 208.673 210.53 Q205.618 215.113 199.808 215.113 Q193.998 215.113 190.919 210.53 Q187.863 205.923 187.863 197.197 Q187.863 188.447 190.919 183.863 Q193.998 179.257 199.808 179.257 Z" fill="#000000" fill-rule="nonzero" fill-opacity="1" /><path clip-path="url(#clip920)" d="M229.97 182.961 Q226.359 182.961 224.53 186.525 Q222.724 190.067 222.724 197.197 Q222.724 204.303 224.53 207.868 Q226.359 211.409 229.97 211.409 Q233.604 211.409 235.409 207.868 Q237.238 204.303 237.238 197.197 Q237.238 190.067 235.409 186.525 Q233.604 182.961 229.97 182.961 M229.97 179.257 Q235.78 179.257 238.835 183.863 Q241.914 188.447 241.914 197.197 Q241.914 205.923 238.835 210.53 Q235.78 215.113 229.97 215.113 Q224.159 215.113 221.081 210.53 Q218.025 205.923 218.025 197.197 Q218.025 188.447 221.081 183.863 Q224.159 179.257 229.97 179.257 Z" fill="#000000" fill-rule="nonzero" fill-opacity="1" /><path clip-path="url(#clip920)" d="M44.7282 736.857 L44.7282 709.039 L50.0754 709.039 L75.6973 731.064 L75.6973 709.039 L80.3761 709.039 L80.3761 737.653 L75.0289 737.653 L49.407 715.628 L49.407 736.857 L44.7282 736.857 Z" fill="#000000" fill-rule="nonzero" fill-opacity="1" /><path clip-path="url(#clip922)" d="M2499.89 1249.53 L2497.77 1182.78 L2491.42 1116.31 L2480.87 1050.37 L2466.16 985.23 L2447.34 921.156 L2424.5 858.404 L2397.73 797.228 L2367.13 737.872 L2332.83 680.577 L2294.96 625.573 L2253.68 573.081 L2209.15 523.313 L2161.56 476.469 L2111.09 432.738 L2057.95 392.296 L2002.35 355.306 L1944.52 321.917 L1884.69 292.262 L1823.09 266.463 L1759.99 244.621 L1695.62 226.826 L1630.26 213.15 L1564.16 203.646 L1497.59 198.354 L1430.82 197.294 L1364.12 200.472 L1297.75 207.873 L1231.99 219.469 L1167.09 235.213 L1103.32 255.041 L1040.94 278.874 L980.197 306.615 L921.335 338.152 L864.591 373.36 L810.195 412.096 L758.364 454.203 L709.309 499.513 L663.226 547.844 L620.302 598.999 L580.708 652.774 L544.605 708.952 L512.137 767.307 L483.436 827.604 L458.616 889.599 L437.779 953.044 L421.008 1017.68 L408.37 1083.25 L399.916 1149.5 L395.681 1216.14 L395.681 1282.92 L399.916 1349.56 L408.37 1415.81 L421.008 1481.38 L437.779 1546.02 L458.616 1609.46 L483.436 1671.46 L512.137 1731.75 L544.605 1790.11 L580.708 1846.29 L620.302 1900.06 L663.226 1951.22 L709.309 1999.55 L758.364 2044.86 L810.195 2086.96 L864.591 2125.7 L921.335 2160.91 L980.197 2192.45 L1040.94 2220.19 L1103.32 2244.02 L1167.09 2263.85 L1231.99 2279.59 L1297.75 2291.19 L1364.12 2298.59 L1430.82 2301.77 L1497.59 2300.71 L1564.16 2295.41 L1630.26 2285.91 L1695.62 2272.23 L1759.99 2254.44 L1823.09 2232.6 L1884.69 2206.8 L1944.52 2177.14 L2002.35 2143.75 L2057.95 2106.76 L2111.09 2066.32 L2161.56 2022.59 L2209.15 1975.75 L2253.68 1925.98 L2294.96 1873.49 L2332.83 1818.48 L2367.13 1761.19 L2397.73 1701.83 L2424.5 1640.66 L2447.34 1577.9 L2466.16 1513.83 L2480.87 1448.69 L2491.42 1382.75 L2497.77 1316.28 L2499.89 1249.53 L2499.89 1249.53  Z" fill="#808080" fill-rule="evenodd" fill-opacity="0.1"/>
<polyline clip-path="url(#clip922)" style="stroke:#000000; stroke-linecap:round; stroke-linejoin:round; stroke-width:4; stroke-opacity:1; fill:none" points="2499.89,1249.53 2497.77,1182.78 2491.42,1116.31 2480.87,1050.37 2466.16,985.23 2447.34,921.156 2424.5,858.404 2397.73,797.228 2367.13,737.872 2332.83,680.577 2294.96,625.573 2253.68,573.081 2209.15,523.313 2161.56,476.469 2111.09,432.738 2057.95,392.296 2002.35,355.306 1944.52,321.917 1884.69,292.262 1823.09,266.463 1759.99,244.621 1695.62,226.826 1630.26,213.15 1564.16,203.646 1497.59,198.354 1430.82,197.294 1364.12,200.472 1297.75,207.873 1231.99,219.469 1167.09,235.213 1103.32,255.041 1040.94,278.874 980.197,306.615 921.335,338.152 864.591,373.36 810.195,412.096 758.364,454.203 709.309,499.513 663.226,547.844 620.302,598.999 580.708,652.774 544.605,708.952 512.137,767.307 483.436,827.604 458.616,889.599 437.779,953.044 421.008,1017.68 408.37,1083.25 399.916,1149.5 395.681,1216.14 395.681,1282.92 399.916,1349.56 408.37,1415.81 421.008,1481.38 437.779,1546.02 458.616,1609.46 483.436,1671.46 512.137,1731.75 544.605,1790.11 580.708,1846.29 620.302,1900.06 663.226,1951.22 709.309,1999.55 758.364,2044.86 810.195,2086.96 864.591,2125.7 921.335,2160.91 980.197,2192.45 1040.94,2220.19 1103.32,2244.02 1167.09,2263.85 1231.99,2279.59 1297.75,2291.19 1364.12,2298.59 1430.82,2301.77 1497.59,2300.71 1564.16,2295.41 1630.26,2285.91 1695.62,2272.23 1759.99,2254.44 1823.09,2232.6 1884.69,2206.8 1944.52,2177.14 2002.35,2143.75 2057.95,2106.76 2111.09,2066.32 2161.56,2022.59 2209.15,1975.75 2253.68,1925.98 2294.96,1873.49 2332.83,1818.48 2367.13,1761.19 2397.73,1701.83 2424.5,1640.66 2447.34,1577.9 2466.16,1513.83 2480.87,1448.69 2491.42,1382.75 2497.77,1316.28 2499.89,1249.53 2499.89,1249.53 "/>
<polyline clip-path="url(#clip922)" style="stroke:#000000; stroke-linecap:round; stroke-linejoin:round; stroke-width:2; stroke-opacity:1; fill:none" points="395.151,1249.53 2499.89,1249.53 "/>
<polyline clip-path="url(#clip922)" style="stroke:#000000; stroke-linecap:round; stroke-linejoin:round; stroke-width:2; stroke-opacity:1; fill:none" points="1447.52,2301.9 1447.52,197.162 "/>
<polyline clip-path="url(#clip922)" style="stroke:#000000; stroke-linecap:round; stroke-linejoin:round; stroke-width:2; stroke-opacity:1; fill:none" stroke-dasharray="8, 5" points="395.345,1269.77 2499.69,1269.77 "/>
<polyline clip-path="url(#clip922)" style="stroke:#009af9; stroke-linecap:round; stroke-linejoin:round; stroke-width:8; stroke-opacity:1; fill:none" points="1447.52,197.162 1402.68,198.12 1358.1,200.988 1313.88,205.753 1270.09,212.396 1226.8,220.898 1184.1,231.235 1142.05,243.381 1100.74,257.306 1060.23,272.975 1020.6,290.354 981.91,309.403 944.229,330.08 907.622,352.341 872.15,376.138 837.874,401.421 804.85,428.137 773.132,456.231 742.775,485.648 713.825,516.326 686.331,548.205 660.335,581.221 635.879,615.31 613,650.405 591.734,686.437 572.111,723.336 554.161,761.033 537.909,799.454 523.377,838.526 510.584,878.176 499.546,918.329 490.274,958.909 482.78,999.841 477.067,1041.05 473.14,1082.46 470.997,1123.99 470.634,1165.56 472.045,1207.11 475.219,1248.55 479.65,1275.43 483.554,1268.26 487.646,1270.17 491.67,1269.66 495.692,1269.8 499.693,1269.76 503.678,1269.77 507.646,1269.77 511.598,1269.77 515.533,1269.77 519.451,1269.77 523.353,1269.77 527.239,1269.77 531.108,1269.77 534.961,1269.77 538.798,1269.77 542.619,1269.77 546.424,1269.77 550.212,1269.77 553.985,1269.77 557.742,1269.77 561.484,1269.77 565.209,1269.77 568.919,1269.77 572.614,1269.77 576.293,1269.77 579.956,1269.77 583.604,1269.77 587.237,1269.77 590.855,1269.77 594.457,1269.77 598.044,1269.77 601.616,1269.77 605.174,1269.77 608.716,1269.77 612.243,1269.77 615.756,1269.77 619.254,1269.77 622.737,1269.77 626.206,1269.77 629.66,1269.77 633.099,1269.77 636.524,1269.77 639.935,1269.77 643.332,1269.77 646.714,1269.77 650.082,1269.77 653.436,1269.77 656.775,1269.77 660.101,1269.77 663.413,1269.77 666.711,1269.77 669.995,1269.77 673.266,1269.77 676.522,1269.77 679.765,1269.77 682.994,1269.77 686.21,1269.77 689.413,1269.77 692.602,1269.77 695.777,1269.77 698.939,1269.77 702.088,1269.77 705.224,1269.77 708.346,1269.77 711.456,1269.77 714.552,1269.77 717.636,1269.77 720.706,1269.77 723.764,1269.77 726.809,1269.77 729.841,1269.77 732.86,1269.77 735.867,1269.77 738.861,1269.77 741.842,1269.77 744.811,1269.77 747.768,1269.77 750.712,1269.77 753.644,1269.77 756.563,1269.77 759.471,1269.77 762.366,1269.77 765.249,1269.77 768.119,1269.77 770.978,1269.77 773.825,1269.77 776.66,1269.77 779.483,1269.77 782.294,1269.77 785.093,1269.77 787.881,1269.77 790.657,1269.77 793.421,1269.77 796.174,1269.77 798.915,1269.77 801.645,1269.77 804.363,1269.77 807.07,1269.77 809.765,1269.77 812.45,1269.77 815.123,1269.77 817.784,1269.77 820.435,1269.77 823.074,1269.77 825.703,1269.77 828.32,1269.77 830.927,1269.77 833.522,1269.77 836.107,1269.77 838.68,1269.77 841.243,1269.77 843.796,1269.77 846.337,1269.77 848.868,1269.77 851.388,1269.77 853.898,1269.77 856.397,1269.77 858.886,1269.77 861.364,1269.77 863.832,1269.77 866.29,1269.77 868.737,1269.77 871.174,1269.77 873.601,1269.77 876.018,1269.77 878.424,1269.77 880.82,1269.77 883.207,1269.77 885.583,1269.77 887.95,1269.77 890.306,1269.77 892.653,1269.77 894.99,1269.77 897.317,1269.77 899.634,1269.77 901.942,1269.77 904.239,1269.77 906.528,1269.77 908.806,1269.77 911.076,1269.77 913.335,1269.77 915.585,1269.77 917.826,1269.77 920.058,1269.77 922.28,1269.77 924.492,1269.77 926.696,1269.77 928.89,1269.77 931.075,1269.77 933.251,1269.77 935.418,1269.77 937.575,1269.77 939.724,1269.77 941.864,1269.77 943.994,1269.77 946.116,1269.77 948.229,1269.77 950.333,1269.77 952.428,1269.77 954.515,1269.77 956.592,1269.77 958.661,1269.77 960.722,1269.77 962.774,1269.77 964.817,1269.77 966.851,1269.77 968.877,1269.77 970.895,1269.77 972.904,1269.77 974.905,1269.77 976.897,1269.77 978.881,1269.77 980.857,1269.77 982.825,1269.77 984.784,1269.77 986.735,1269.77 988.678,1269.77 990.612,1269.77 992.539,1269.77 994.458,1269.77 996.368,1269.77 998.271,1269.77 1000.17,1269.77 1002.05,1269.77 1003.93,1269.77 1005.8,1269.77 1007.66,1269.77 1009.52,1269.77 1011.37,1269.77 1013.21,1269.77 1015.04,1269.77 1016.86,1269.77 1018.68,1269.77 1020.49,1269.77 1022.29,1269.77 1024.09,1269.77 1025.87,1269.77 1027.65,1269.77 1029.42,1269.77 1031.19,1269.77 1032.94,1269.77 1034.69,1269.77 1036.44,1269.77 1038.17,1269.77 1039.9,1269.77 1041.62,1269.77 1043.33,1269.77 1045.04,1269.77 1046.74,1269.77 1048.43,1269.77 1050.12,1269.77 1051.79,1269.77 1053.46,1269.77 1055.13,1269.77 1056.78,1269.77 1058.43,1269.77 1060.08,1269.77 1061.71,1269.77 1063.34,1269.77 1064.97,1269.77 1066.58,1269.77 1068.19,1269.77 1069.79,1269.77 1071.39,1269.77 1072.98,1269.77 1074.56,1269.77 1076.13,1269.77 1077.7,1269.77 1079.27,1269.77 1080.82,1269.77 1082.37,1269.77 1083.92,1269.77 1085.45,1269.77 1086.98,1269.77 1088.51,1269.77 1090.02,1269.77 1091.53,1269.77 1093.04,1269.77 1094.54,1269.77 1096.03,1269.77 1097.52,1269.77 1099,1269.77 1100.47,1269.77 1101.94,1269.77 1103.4,1269.77 1104.85,1269.77 1106.3,1269.77 1107.75,1269.77 1109.18,1269.77 1110.61,1269.77 1112.04,1269.77 1113.46,1269.77 1114.87,1269.77 1116.28,1269.77 1117.68,1269.77 1119.08,1269.77 1120.47,1269.77 1121.85,1269.77 1123.23,1269.77 1124.6,1269.77 1125.97,1269.77 1127.33,1269.77 1128.69,1269.77 1130.04,1269.77 1131.38,1269.77 1132.72,1269.77 1134.05,1269.77 1135.38,1269.77 1136.7,1269.77 1138.02,1269.77 1139.33,1269.77 1140.63,1269.77 1141.93,1269.77 1143.23,1269.77 1144.52,1269.77 1145.8,1269.77 1147.08,1269.77 1148.35,1269.77 1149.62,1269.77 1150.88,1269.77 1152.14,1269.77 1153.39,1269.77 1154.64,1269.77 1155.88,1269.77 1157.12,1269.77 1158.35,1269.77 1159.58,1269.77 1160.8,1269.77 1162.02,1269.77 1163.23,1269.77 1164.43,1269.77 1165.63,1269.77 1166.83,1269.77 1168.02,1269.77 1169.21,1269.77 1170.39,1269.77 1171.56,1269.77 1172.74,1269.77 1173.9,1269.77 1175.06,1269.77 1176.22,1269.77 1177.37,1269.77 1178.52,1269.77 1179.66,1269.77 1180.8,1269.77 1181.93,1269.77 1183.06,1269.77 1184.19,1269.77 1185.3,1269.77 1186.42,1269.77 1187.53,1269.77 1188.63,1269.77 1189.73,1269.77 1190.83,1269.77 1191.92,1269.77 1193.01,1269.77 1194.09,1269.77 1195.17,1269.77 1196.24,1269.77 1197.31,1269.77 1198.38,1269.77 1199.44,1269.77 1200.49,1269.77 1201.54,1269.77 1202.59,1269.77 1203.63,1269.77 1204.67,1269.77 1205.7,1269.77 1206.73,1269.77 1207.76,1269.77 1208.78,1269.77 1209.8,1269.77 1210.81,1269.77 1211.82,1269.77 1212.82,1269.77 1213.82,1269.77 1214.82,1269.77 1215.81,1269.77 1216.8,1269.77 1217.78,1269.77 1218.76,1269.77 1219.74,1269.77 1220.71,1269.77 1221.68,1269.77 1222.64,1269.77 1223.6,1269.77 1224.56,1269.77 1225.51,1269.77 1226.46,1269.77 1227.4,1269.77 1228.34,1269.77 1229.28,1269.77 1230.21,1269.77 1231.14,1269.77 1232.06,1269.77 1232.98,1269.77 1233.9,1269.77 1234.81,1269.77 1235.72,1269.77 1236.63,1269.77 1237.53,1269.77 1238.43,1269.77 1239.32,1269.77 1240.21,1269.77 1241.1,1269.77 1241.98,1269.77 1242.86,1269.77 1243.74,1269.77 1244.61,1269.77 1245.48,1269.77 1246.35,1269.77 1247.21,1269.77 1248.07,1269.77 1248.92,1269.77 1249.77,1269.77 1250.62,1269.77 1251.47,1269.77 1252.31,1269.77 1253.14,1269.77 1253.98,1269.77 1254.81,1269.77 1255.63,1269.77 1256.46,1269.77 1257.28,1269.77 1258.1,1269.77 1258.91,1269.77 1259.72,1269.77 1260.53,1269.77 1261.33,1269.77 1262.13,1269.77 1262.93,1269.77 1263.72,1269.77 1264.51,1269.77 1265.3,1269.77 1266.08,1269.77 1266.86,1269.77 1267.64,1269.77 1268.41,1269.77 1269.19,1269.77 1269.95,1269.77 1270.72,1269.77 1271.48,1269.77 1272.24,1269.77 1273,1269.77 1273.75,1269.77 1274.5,1269.77 1275.24,1269.77 1275.99,1269.77 1276.73,1269.77 1277.46,1269.77 1278.2,1269.77 1278.93,1269.77 1279.66,1269.77 1280.38,1269.77 1281.11,1269.77 1281.82,1269.77 1282.54,1269.77 1283.25,1269.77 1283.97,1269.77 1284.67,1269.77 1285.38,1269.77 1286.08,1269.77 1286.78,1269.77 1287.48,1269.77 1288.17,1269.77 1288.86,1269.77 1289.55,1269.77 1290.23,1269.77 1290.91,1269.77 1291.59,1269.77 1292.27,1269.77 1292.94,1269.77 1293.62,1269.77 1294.28,1269.77 1294.95,1269.77 1295.61,1269.77 1296.27,1269.77 1296.93,1269.77 1297.59,1269.77 1298.24,1269.77 1298.89,1269.77 1299.53,1269.77 1300.18,1269.77 1300.82,1269.77 1301.46,1269.77 1302.1,1269.77 1302.73,1269.77 1303.36,1269.77 1303.99,1269.77 1304.62,1269.77 1305.24,1269.77 1305.86,1269.77 1306.48,1269.77 1307.1,1269.77 1307.71,1269.77 1308.32,1269.77 1308.93,1269.77 1309.54,1269.77 1310.14,1269.77 1310.75,1269.77 1311.35,1269.77 1311.94,1269.77 1312.54,1269.77 1313.13,1269.77 1313.72,1269.77 1314.31,1269.77 1314.89,1269.77 1315.47,1269.77 1316.05,1269.77 1316.63,1269.77 1317.21,1269.77 1317.78,1269.77 1318.35,1269.77 1318.92,1269.77 1319.49,1269.77 1320.05,1269.77 1320.61,1269.77 1321.17,1269.77 1321.73,1269.77 1322.29,1269.77 1322.84,1269.77 1323.39,1269.77 1323.94,1269.77 1324.48,1269.77 1325.03,1269.77 1325.57,1269.77 1326.11,1269.77 1326.65,1269.77 1327.18,1269.77 1327.72,1269.77 1328.25,1269.77 1328.78,1269.77 1329.31,1269.77 1329.83,1269.77 1330.35,1269.77 1330.88,1269.77 1331.39,1269.77 1331.91,1269.77 1332.43,1269.77 1332.94,1269.77 1333.45,1269.77 1333.96,1269.77 1334.47,1269.77 1334.97,1269.77 1335.47,1269.77 1335.97,1269.77 1336.47,1269.77 1336.97,1269.77 1337.46,1269.77 1337.96,1269.77 1338.45,1269.77 1338.94,1269.77 1339.43,1269.77 1339.91,1269.77 1340.39,1269.77 1340.88,1269.77 1341.36,1269.77 1341.83,1269.77 1342.31,1269.77 1342.78,1269.77 1343.26,1269.77 1343.73,1269.77 1344.19,1269.77 1344.66,1269.77 1345.13,1269.77 1345.59,1269.77 1346.05,1269.77 1346.51,1269.77 1346.97,1269.77 1347.42,1269.77 1347.88,1269.77 1348.33,1269.77 1348.78,1269.77 1349.23,1269.77 1349.68,1269.77 1350.12,1269.77 1350.57,1269.77 1351.01,1269.77 1351.45,1269.77 1351.89,1269.77 1352.33,1269.77 1352.76,1269.77 1353.2,1269.77 1353.63,1269.77 1354.06,1269.77 1354.49,1269.77 1354.91,1269.77 1355.34,1269.77 1355.76,1269.77 1356.19,1269.77 1356.61,1269.77 1357.03,1269.77 1357.44,1269.77 1357.86,1269.77 1358.27,1269.77 1358.69,1269.77 1359.1,1269.77 1359.51,1269.77 1359.92,1269.77 1360.32,1269.77 1360.73,1269.77 1361.13,1269.77 1361.53,1269.77 1361.93,1269.77 1362.33,1269.77 1362.73,1269.77 1363.13,1269.77 1363.52,1269.77 1363.91,1269.77 1364.31,1269.77 1364.7,1269.77 1365.08,1269.77 1365.47,1269.77 1365.86,1269.77 1366.24,1269.77 1366.62,1269.77 1367.01,1269.77 1367.39,1269.77 1367.77,1269.77 1368.14,1269.77 1368.52,1269.77 1368.89,1269.77 1369.27,1269.77 1369.64,1269.77 1370.01,1269.77 1370.38,1269.77 1370.75,1269.77 1371.11,1269.77 1371.48,1269.77 1371.84,1269.77 1372.21,1269.77 1372.57,1269.77 1372.93,1269.77 1373.29,1269.77 1373.64,1269.77 1374,1269.77 1374.35,1269.77 1374.71,1269.77 1375.06,1269.77 1375.41,1269.77 1375.76,1269.77 1376.11,1269.77 1376.46,1269.77 1376.8,1269.77 1377.15,1269.77 1377.49,1269.77 1377.83,1269.77 1378.18,1269.77 1378.52,1269.77 1378.85,1269.77 1379.19,1269.77 1379.53,1269.77 1379.86,1269.77 1380.2,1269.77 1380.53,1269.77 1380.86,1269.77 1381.19,1269.77 1381.52,1269.77 1381.85,1269.77 1382.18,1269.77 1382.51,1269.77 1382.83,1269.77 1383.15,1269.77 1383.48,1269.77 1383.8,1269.77 1384.12,1269.77 1384.44,1269.77 1384.76,1269.77 1385.08,1269.77 1385.39,1269.77 1385.71,1269.77 1386.02,1269.77 1386.34,1269.77 1386.65,1269.77 1386.96,1269.77 1387.27,1269.77 1387.58,1269.77 1387.89,1269.77 1388.19,1269.77 1388.5,1269.77 1388.81,1269.77 1389.11,1269.77 1389.41,1269.77 1389.72,1269.77 1390.02,1269.77 1390.32,1269.77 1390.62,1269.77 1390.92,1269.77 1391.21,1269.77 1391.51,1269.77 1391.81,1269.77 1392.1,1269.77 1392.39,1269.77 1392.69,1269.77 1392.98,1269.77 1393.27,1269.77 1393.56,1269.77 1393.85,1269.77 1394.14,1269.77 1394.43,1269.77 1394.71,1269.77 1395,1269.77 1395.28,1269.77 1395.57,1269.77 1395.85,1269.77 1396.13,1269.77 1396.42,1269.77 1396.7,1269.77 1396.98,1269.77 1397.26,1269.77 1397.54,1269.77 1397.81,1269.77 1398.09,1269.77 1398.37,1269.77 1398.64,1269.77 1398.92,1269.77 1399.19,1269.77 1399.46,1269.77 1399.74,1269.77 1400.01,1269.77 1400.28,1269.77 1400.55,1269.77 1400.82,1269.77 1401.09,1269.77 1401.35,1269.77 1401.62,1269.77 1401.89,1269.77 1402.15,1269.77 1402.42,1269.77 1402.68,1269.77 1402.95,1269.77 1403.21,1269.77 1403.47,1269.77 1403.74,1269.77 1404,1269.77 1404.26,1269.77 1404.52,1269.77 1404.78,1269.77 1405.04,1269.77 1405.29,1269.77 1405.55,1269.77 1405.81,1269.77 1406.06,1269.77 1406.32,1269.77 1406.58,1269.77 1406.83,1269.77 1407.08,1269.77 1407.34,1269.77 1407.59,1269.77 1407.84,1269.77 1408.1,1269.77 1408.35,1269.77 1408.6,1269.77 1408.85,1269.77 1409.1,1269.77 1409.35,1269.77 1409.6,1269.77 1409.85,1269.77 1410.09,1269.77 1410.34,1269.77 1410.59,1269.77 1410.84,1269.77 1411.08,1269.77 1411.33,1269.77 1411.57,1269.77 1411.82,1269.77 1412.06,1269.77 1412.31,1269.77 1412.55,1269.77 1412.8,1269.77 1413.04,1269.77 1413.28,1269.77 1413.53,1269.77 1413.77,1269.77 1414.01,1269.77 1414.25,1269.77 1414.49,1269.77 1414.74,1269.77 1414.98,1269.77 1415.22,1269.77 1415.46,1269.77 1415.7,1269.77 1415.94,1269.77 1416.18,1269.77 1416.42,1269.77 1416.66,1269.77 1416.9,1269.77 1417.14,1269.77 1417.38,1269.77 1417.62,1269.77 1417.85,1269.77 1418.09,1269.77 1418.33,1269.77 1418.57,1269.77 1418.81,1269.77 1419.05,1269.77 1419.29,1269.77 1419.53,1269.77 1419.76,1269.77 1420,1269.77 1420.24,1269.77 1420.48,1269.77 1420.72,1269.77 1420.96,1269.77 1421.2,1269.77 1421.44,1269.77 1421.68,1269.77 1421.92,1269.77 1422.16,1269.77 1422.4,1269.77 1422.64,1269.77 1422.88,1269.77 1423.12,1269.77 1423.36,1269.77 1423.6,1269.77 1423.85,1269.77 1424.09,1269.77 1424.33,1269.77 1424.58,1269.77 1424.82,1269.77 1425.07,1269.77 1425.31,1269.77 1425.56,1269.77 1425.8,1269.77 1426.05,1269.77 1426.3,1269.77 1426.55,1269.77 1426.8,1269.77 1427.05,1269.77 1427.3,1269.77 1427.56,1269.77 1427.81,1269.77 1428.07,1269.77 1428.32,1269.77 1428.58,1269.77 1428.84,1269.77 1429.1,1269.77 1429.36,1269.77 1429.63,1269.77 1429.89,1269.77 1430.16,1269.77 1430.43,1269.77 1430.7,1269.77 1430.97,1269.77 1431.25,1269.77 1431.52,1269.77 1431.8,1269.77 1432.09,1269.77 1432.37,1269.77 1432.66,1269.77 1432.95,1269.77 1433.25,1269.77 1433.55,1269.77 1433.85,1269.77 1434.16,1269.77 1434.47,1269.77 1434.79,1269.77 1435.11,1269.77 1435.44,1269.77 1435.77,1269.77 1436.11,1269.77 1436.46,1269.77 1436.82,1269.77 1437.18,1269.77 1437.56,1269.77 1437.95,1269.77 1438.35,1269.77 1438.76,1269.77 1439.19,1269.77 1439.65,1269.77 1440.12,1269.77 1440.62,1269.77 1441.16,1269.77 1441.74,1269.76 1442.42,1269.78 1443.31,1269.81 1444.19,1269.8 1445.07,1269.76 1445.94,1269.68 1446.8,1269.56 1447.65,1269.4 1447.49,1269.24 1447.53,1269.07 1447.52,1268.9 1447.52,1268.73 1447.52,1268.57 1447.52,1268.4 1447.52,1268.23 1447.52,1268.07 1447.52,1267.9 1447.52,1267.73 1447.52,1267.57 1447.52,1267.4 1447.52,1267.23 1447.52,1267.07 1447.52,1266.9 1447.52,1266.73 1447.52,1266.57 1447.52,1266.4 1447.52,1266.23 1447.52,1266.07 1447.52,1265.9 1447.52,1265.73 1447.52,1265.57 1447.52,1265.4 1447.52,1265.23 1447.52,1265.07 1447.52,1264.9 1447.52,1264.73 1447.52,1264.57 1447.52,1264.4 1447.52,1264.23 1447.52,1264.07 1447.52,1263.9 1447.52,1263.73 1447.52,1263.57 1447.52,1263.4 1447.52,1263.24 1447.52,1263.07 1447.52,1262.9 1447.52,1262.74 1447.52,1262.57 1447.52,1262.41 1447.52,1262.24 1447.52,1262.07 1447.52,1261.91 1447.52,1261.74 1447.52,1261.58 1447.52,1261.41 1447.52,1261.24 1447.52,1261.08 1447.52,1260.91 1447.52,1260.75 1447.52,1260.58 1447.52,1260.41 1447.52,1260.25 1447.52,1260.08 1447.52,1259.92 1447.52,1259.75 1447.52,1259.59 1447.52,1259.42 1447.52,1259.25 1447.52,1259.09 1447.52,1258.92 1447.52,1258.76 1447.52,1258.59 1447.52,1258.43 1447.52,1258.26 1447.52,1258.1 1447.52,1257.93 1447.52,1257.77 1447.52,1257.6 1447.52,1257.43 1447.52,1257.27 1447.52,1257.1 1447.52,1256.94 1447.52,1256.77 1447.52,1256.61 1447.52,1256.44 1447.52,1256.28 1447.52,1256.11 1447.52,1255.95 1447.52,1255.78 1447.52,1255.62 1447.52,1255.45 1447.52,1255.29 1447.52,1255.12 1447.52,1254.96 1447.52,1254.79 1447.52,1254.63 1447.52,1254.46 1447.52,1254.3 1447.52,1254.13 1447.52,1253.97 1447.52,1253.8 1447.52,1253.64 1447.52,1253.48 1447.52,1253.31 1447.52,1253.15 1447.52,1252.98 1447.52,1252.82 1447.52,1252.65 1447.52,1252.49 1447.52,1252.32 1447.52,1252.16 1447.52,1251.99 1447.52,1251.83 1447.52,1251.67 1447.52,1251.5 1447.52,1251.34 1447.52,1251.17 1447.52,1251.01 1447.52,1250.84 1447.52,1250.68 1447.52,1250.51 1447.52,1250.35 1447.52,1250.19 1447.52,1250.02 1447.52,1249.86 1447.52,1249.69 1447.52,1249.53 "/>
<circle clip-path="url(#clip922)" cx="1447.52" cy="197.162" r="14.4" fill="#009af9" fill-rule="evenodd" fill-opacity="1" stroke="#000000" stroke-opacity="1" stroke-width="3.2"/>
<path clip-path="url(#clip920)" d="M1889.91 1399.45 L3152.76 1399.45 L3152.76 47.2441 L1889.91 47.2441  Z" fill="#ffffff" fill-rule="evenodd" fill-opacity="1"/>
<defs>
  <clipPath id="clip923">
    <rect x="1889" y="47" width="1264" height="1353"/>
  </clipPath>
</defs>
<polyline clip-path="url(#clip923)" style="stroke:#000000; stroke-linecap:round; stroke-linejoin:round; stroke-width:2; stroke-opacity:0.1; fill:none" points="1925.65,1399.45 1925.65,47.2441 "/>
<polyline clip-path="url(#clip923)" style="stroke:#000000; stroke-linecap:round; stroke-linejoin:round; stroke-width:2; stroke-opacity:0.1; fill:none" points="2204.57,1399.45 2204.57,47.2441 "/>
<polyline clip-path="url(#clip923)" style="stroke:#000000; stroke-linecap:round; stroke-linejoin:round; stroke-width:2; stroke-opacity:0.1; fill:none" points="2483.49,1399.45 2483.49,47.2441 "/>
<polyline clip-path="url(#clip923)" style="stroke:#000000; stroke-linecap:round; stroke-linejoin:round; stroke-width:2; stroke-opacity:0.1; fill:none" points="2762.41,1399.45 2762.41,47.2441 "/>
<polyline clip-path="url(#clip923)" style="stroke:#000000; stroke-linecap:round; stroke-linejoin:round; stroke-width:2; stroke-opacity:0.1; fill:none" points="3041.32,1399.45 3041.32,47.2441 "/>
<polyline clip-path="url(#clip923)" style="stroke:#000000; stroke-linecap:round; stroke-linejoin:round; stroke-width:2; stroke-opacity:0.1; fill:none" points="1889.91,1286.76 3152.76,1286.76 "/>
<polyline clip-path="url(#clip923)" style="stroke:#000000; stroke-linecap:round; stroke-linejoin:round; stroke-width:2; stroke-opacity:0.1; fill:none" points="1889.91,1005.06 3152.76,1005.06 "/>
<polyline clip-path="url(#clip923)" style="stroke:#000000; stroke-linecap:round; stroke-linejoin:round; stroke-width:2; stroke-opacity:0.1; fill:none" points="1889.91,723.346 3152.76,723.346 "/>
<polyline clip-path="url(#clip923)" style="stroke:#000000; stroke-linecap:round; stroke-linejoin:round; stroke-width:2; stroke-opacity:0.1; fill:none" points="1889.91,441.637 3152.76,441.637 "/>
<polyline clip-path="url(#clip923)" style="stroke:#000000; stroke-linecap:round; stroke-linejoin:round; stroke-width:2; stroke-opacity:0.1; fill:none" points="1889.91,159.928 3152.76,159.928 "/>
<polyline clip-path="url(#clip920)" style="stroke:#000000; stroke-linecap:round; stroke-linejoin:round; stroke-width:4; stroke-opacity:1; fill:none" points="1889.91,1399.45 3152.76,1399.45 "/>
<polyline clip-path="url(#clip920)" style="stroke:#000000; stroke-linecap:round; stroke-linejoin:round; stroke-width:4; stroke-opacity:1; fill:none" points="1925.65,1399.45 1925.65,1380.55 "/>
<polyline clip-path="url(#clip920)" style="stroke:#000000; stroke-linecap:round; stroke-linejoin:round; stroke-width:4; stroke-opacity:1; fill:none" points="2204.57,1399.45 2204.57,1380.55 "/>
<polyline clip-path="url(#clip920)" style="stroke:#000000; stroke-linecap:round; stroke-linejoin:round; stroke-width:4; stroke-opacity:1; fill:none" points="2483.49,1399.45 2483.49,1380.55 "/>
<polyline clip-path="url(#clip920)" style="stroke:#000000; stroke-linecap:round; stroke-linejoin:round; stroke-width:4; stroke-opacity:1; fill:none" points="2762.41,1399.45 2762.41,1380.55 "/>
<polyline clip-path="url(#clip920)" style="stroke:#000000; stroke-linecap:round; stroke-linejoin:round; stroke-width:4; stroke-opacity:1; fill:none" points="3041.32,1399.45 3041.32,1380.55 "/>
<path clip-path="url(#clip920)" d="M1925.65 1436.77 Q1922.04 1436.77 1920.22 1440.33 Q1918.41 1443.87 1918.41 1451 Q1918.41 1458.11 1920.22 1461.67 Q1922.04 1465.22 1925.65 1465.22 Q1929.29 1465.22 1931.09 1461.67 Q1932.92 1458.11 1932.92 1451 Q1932.92 1443.87 1931.09 1440.33 Q1929.29 1436.77 1925.65 1436.77 M1925.65 1433.06 Q1931.46 1433.06 1934.52 1437.67 Q1937.6 1442.25 1937.6 1451 Q1937.6 1459.73 1934.52 1464.34 Q1931.46 1468.92 1925.65 1468.92 Q1919.84 1468.92 1916.77 1464.34 Q1913.71 1459.73 1913.71 1451 Q1913.71 1442.25 1916.77 1437.67 Q1919.84 1433.06 1925.65 1433.06 Z" fill="#000000" fill-rule="nonzero" fill-opacity="1" /><path clip-path="url(#clip920)" d="M2179.26 1464.31 L2186.9 1464.31 L2186.9 1437.95 L2178.59 1439.61 L2178.59 1435.35 L2186.85 1433.69 L2191.53 1433.69 L2191.53 1464.31 L2199.17 1464.31 L2199.17 1468.25 L2179.26 1468.25 L2179.26 1464.31 Z" fill="#000000" fill-rule="nonzero" fill-opacity="1" /><path clip-path="url(#clip920)" d="M2218.61 1436.77 Q2215 1436.77 2213.17 1440.33 Q2211.37 1443.87 2211.37 1451 Q2211.37 1458.11 2213.17 1461.67 Q2215 1465.22 2218.61 1465.22 Q2222.25 1465.22 2224.05 1461.67 Q2225.88 1458.11 2225.88 1451 Q2225.88 1443.87 2224.05 1440.33 Q2222.25 1436.77 2218.61 1436.77 M2218.61 1433.06 Q2224.42 1433.06 2227.48 1437.67 Q2230.56 1442.25 2230.56 1451 Q2230.56 1459.73 2227.48 1464.34 Q2224.42 1468.92 2218.61 1468.92 Q2212.8 1468.92 2209.72 1464.34 Q2206.67 1459.73 2206.67 1451 Q2206.67 1442.25 2209.72 1437.67 Q2212.8 1433.06 2218.61 1433.06 Z" fill="#000000" fill-rule="nonzero" fill-opacity="1" /><path clip-path="url(#clip920)" d="M2462.26 1464.31 L2478.58 1464.31 L2478.58 1468.25 L2456.64 1468.25 L2456.64 1464.31 Q2459.3 1461.56 2463.88 1456.93 Q2468.49 1452.28 2469.67 1450.93 Q2471.92 1448.41 2472.8 1446.67 Q2473.7 1444.91 2473.7 1443.22 Q2473.7 1440.47 2471.75 1438.73 Q2469.83 1437 2466.73 1437 Q2464.53 1437 2462.08 1437.76 Q2459.65 1438.53 2456.87 1440.08 L2456.87 1435.35 Q2459.69 1434.22 2462.15 1433.64 Q2464.6 1433.06 2466.64 1433.06 Q2472.01 1433.06 2475.2 1435.75 Q2478.4 1438.43 2478.4 1442.92 Q2478.4 1445.05 2477.59 1446.97 Q2476.8 1448.87 2474.69 1451.47 Q2474.11 1452.14 2471.01 1455.35 Q2467.91 1458.55 2462.26 1464.31 Z" fill="#000000" fill-rule="nonzero" fill-opacity="1" /><path clip-path="url(#clip920)" d="M2498.4 1436.77 Q2494.79 1436.77 2492.96 1440.33 Q2491.15 1443.87 2491.15 1451 Q2491.15 1458.11 2492.96 1461.67 Q2494.79 1465.22 2498.4 1465.22 Q2502.03 1465.22 2503.84 1461.67 Q2505.67 1458.11 2505.67 1451 Q2505.67 1443.87 2503.84 1440.33 Q2502.03 1436.77 2498.4 1436.77 M2498.4 1433.06 Q2504.21 1433.06 2507.26 1437.67 Q2510.34 1442.25 2510.34 1451 Q2510.34 1459.73 2507.26 1464.34 Q2504.21 1468.92 2498.4 1468.92 Q2492.59 1468.92 2489.51 1464.34 Q2486.45 1459.73 2486.45 1451 Q2486.45 1442.25 2489.51 1437.67 Q2492.59 1433.06 2498.4 1433.06 Z" fill="#000000" fill-rule="nonzero" fill-opacity="1" /><path clip-path="url(#clip920)" d="M2751.25 1449.61 Q2754.61 1450.33 2756.48 1452.6 Q2758.38 1454.87 2758.38 1458.2 Q2758.38 1463.32 2754.86 1466.12 Q2751.34 1468.92 2744.86 1468.92 Q2742.69 1468.92 2740.37 1468.48 Q2738.08 1468.06 2735.63 1467.21 L2735.63 1462.69 Q2737.57 1463.83 2739.88 1464.41 Q2742.2 1464.98 2744.72 1464.98 Q2749.12 1464.98 2751.41 1463.25 Q2753.73 1461.51 2753.73 1458.2 Q2753.73 1455.15 2751.57 1453.43 Q2749.44 1451.7 2745.63 1451.7 L2741.6 1451.7 L2741.6 1447.85 L2745.81 1447.85 Q2749.26 1447.85 2751.09 1446.49 Q2752.92 1445.1 2752.92 1442.51 Q2752.92 1439.85 2751.02 1438.43 Q2749.14 1437 2745.63 1437 Q2743.7 1437 2741.5 1437.41 Q2739.31 1437.83 2736.67 1438.71 L2736.67 1434.54 Q2739.33 1433.8 2741.64 1433.43 Q2743.98 1433.06 2746.04 1433.06 Q2751.37 1433.06 2754.47 1435.49 Q2757.57 1437.9 2757.57 1442.02 Q2757.57 1444.89 2755.93 1446.88 Q2754.28 1448.85 2751.25 1449.61 Z" fill="#000000" fill-rule="nonzero" fill-opacity="1" /><path clip-path="url(#clip920)" d="M2777.25 1436.77 Q2773.63 1436.77 2771.81 1440.33 Q2770 1443.87 2770 1451 Q2770 1458.11 2771.81 1461.67 Q2773.63 1465.22 2777.25 1465.22 Q2780.88 1465.22 2782.69 1461.67 Q2784.51 1458.11 2784.51 1451 Q2784.51 1443.87 2782.69 1440.33 Q2780.88 1436.77 2777.25 1436.77 M2777.25 1433.06 Q2783.06 1433.06 2786.11 1437.67 Q2789.19 1442.25 2789.19 1451 Q2789.19 1459.73 2786.11 1464.34 Q2783.06 1468.92 2777.25 1468.92 Q2771.44 1468.92 2768.36 1464.34 Q2765.3 1459.73 2765.3 1451 Q2765.3 1442.25 2768.36 1437.67 Q2771.44 1433.06 2777.25 1433.06 Z" fill="#000000" fill-rule="nonzero" fill-opacity="1" /><path clip-path="url(#clip920)" d="M3029.5 1437.76 L3017.69 1456.21 L3029.5 1456.21 L3029.5 1437.76 M3028.27 1433.69 L3034.15 1433.69 L3034.15 1456.21 L3039.08 1456.21 L3039.08 1460.1 L3034.15 1460.1 L3034.15 1468.25 L3029.5 1468.25 L3029.5 1460.1 L3013.89 1460.1 L3013.89 1455.59 L3028.27 1433.69 Z" fill="#000000" fill-rule="nonzero" fill-opacity="1" /><path clip-path="url(#clip920)" d="M3056.81 1436.77 Q3053.2 1436.77 3051.37 1440.33 Q3049.57 1443.87 3049.57 1451 Q3049.57 1458.11 3051.37 1461.67 Q3053.2 1465.22 3056.81 1465.22 Q3060.45 1465.22 3062.25 1461.67 Q3064.08 1458.11 3064.08 1451 Q3064.08 1443.87 3062.25 1440.33 Q3060.45 1436.77 3056.81 1436.77 M3056.81 1433.06 Q3062.62 1433.06 3065.68 1437.67 Q3068.76 1442.25 3068.76 1451 Q3068.76 1459.73 3065.68 1464.34 Q3062.62 1468.92 3056.81 1468.92 Q3051 1468.92 3047.92 1464.34 Q3044.87 1459.73 3044.87 1451 Q3044.87 1442.25 3047.92 1437.67 Q3051 1433.06 3056.81 1433.06 Z" fill="#000000" fill-rule="nonzero" fill-opacity="1" /><path clip-path="url(#clip920)" d="M2520.4 1510.54 L2520.4 1520.66 L2532.46 1520.66 L2532.46 1525.22 L2520.4 1525.22 L2520.4 1544.57 Q2520.4 1548.93 2521.57 1550.17 Q2522.78 1551.41 2526.44 1551.41 L2532.46 1551.41 L2532.46 1556.31 L2526.44 1556.31 Q2519.66 1556.31 2517.09 1553.8 Q2514.51 1551.25 2514.51 1544.57 L2514.51 1525.22 L2510.21 1525.22 L2510.21 1520.66 L2514.51 1520.66 L2514.51 1510.54 L2520.4 1510.54 Z" fill="#000000" fill-rule="nonzero" fill-opacity="1" /><polyline clip-path="url(#clip920)" style="stroke:#000000; stroke-linecap:round; stroke-linejoin:round; stroke-width:4; stroke-opacity:1; fill:none" points="1889.91,1399.45 1889.91,47.2441 "/>
<polyline clip-path="url(#clip920)" style="stroke:#000000; stroke-linecap:round; stroke-linejoin:round; stroke-width:4; stroke-opacity:1; fill:none" points="1889.91,1286.76 1908.81,1286.76 "/>
<polyline clip-path="url(#clip920)" style="stroke:#000000; stroke-linecap:round; stroke-linejoin:round; stroke-width:4; stroke-opacity:1; fill:none" points="1889.91,1005.06 1908.81,1005.06 "/>
<polyline clip-path="url(#clip920)" style="stroke:#000000; stroke-linecap:round; stroke-linejoin:round; stroke-width:4; stroke-opacity:1; fill:none" points="1889.91,723.346 1908.81,723.346 "/>
<polyline clip-path="url(#clip920)" style="stroke:#000000; stroke-linecap:round; stroke-linejoin:round; stroke-width:4; stroke-opacity:1; fill:none" points="1889.91,441.637 1908.81,441.637 "/>
<polyline clip-path="url(#clip920)" style="stroke:#000000; stroke-linecap:round; stroke-linejoin:round; stroke-width:4; stroke-opacity:1; fill:none" points="1889.91,159.928 1908.81,159.928 "/>
<path clip-path="url(#clip920)" d="M1754.58 1272.56 Q1750.97 1272.56 1749.14 1276.13 Q1747.33 1279.67 1747.33 1286.8 Q1747.33 1293.91 1749.14 1297.47 Q1750.97 1301.01 1754.58 1301.01 Q1758.21 1301.01 1760.02 1297.47 Q1761.84 1293.91 1761.84 1286.8 Q1761.84 1279.67 1760.02 1276.13 Q1758.21 1272.56 1754.58 1272.56 M1754.58 1268.86 Q1760.39 1268.86 1763.44 1273.47 Q1766.52 1278.05 1766.52 1286.8 Q1766.52 1295.53 1763.44 1300.13 Q1760.39 1304.72 1754.58 1304.72 Q1748.77 1304.72 1745.69 1300.13 Q1742.63 1295.53 1742.63 1286.8 Q1742.63 1278.05 1745.69 1273.47 Q1748.77 1268.86 1754.58 1268.86 Z" fill="#000000" fill-rule="nonzero" fill-opacity="1" /><path clip-path="url(#clip920)" d="M1774.74 1298.16 L1779.62 1298.16 L1779.62 1304.04 L1774.74 1304.04 L1774.74 1298.16 Z" fill="#000000" fill-rule="nonzero" fill-opacity="1" /><path clip-path="url(#clip920)" d="M1799.81 1272.56 Q1796.2 1272.56 1794.37 1276.13 Q1792.56 1279.67 1792.56 1286.8 Q1792.56 1293.91 1794.37 1297.47 Q1796.2 1301.01 1799.81 1301.01 Q1803.44 1301.01 1805.25 1297.47 Q1807.08 1293.91 1807.08 1286.8 Q1807.08 1279.67 1805.25 1276.13 Q1803.44 1272.56 1799.81 1272.56 M1799.81 1268.86 Q1805.62 1268.86 1808.67 1273.47 Q1811.75 1278.05 1811.75 1286.8 Q1811.75 1295.53 1808.67 1300.13 Q1805.62 1304.72 1799.81 1304.72 Q1794 1304.72 1790.92 1300.13 Q1787.86 1295.53 1787.86 1286.8 Q1787.86 1278.05 1790.92 1273.47 Q1794 1268.86 1799.81 1268.86 Z" fill="#000000" fill-rule="nonzero" fill-opacity="1" /><path clip-path="url(#clip920)" d="M1829.97 1272.56 Q1826.36 1272.56 1824.53 1276.13 Q1822.72 1279.67 1822.72 1286.8 Q1822.72 1293.91 1824.53 1297.47 Q1826.36 1301.01 1829.97 1301.01 Q1833.6 1301.01 1835.41 1297.47 Q1837.24 1293.91 1837.24 1286.8 Q1837.24 1279.67 1835.41 1276.13 Q1833.6 1272.56 1829.97 1272.56 M1829.97 1268.86 Q1835.78 1268.86 1838.84 1273.47 Q1841.91 1278.05 1841.91 1286.8 Q1841.91 1295.53 1838.84 1300.13 Q1835.78 1304.72 1829.97 1304.72 Q1824.16 1304.72 1821.08 1300.13 Q1818.03 1295.53 1818.03 1286.8 Q1818.03 1278.05 1821.08 1273.47 Q1824.16 1268.86 1829.97 1268.86 Z" fill="#000000" fill-rule="nonzero" fill-opacity="1" /><path clip-path="url(#clip920)" d="M1755.57 990.854 Q1751.96 990.854 1750.13 994.419 Q1748.33 997.96 1748.33 1005.09 Q1748.33 1012.2 1750.13 1015.76 Q1751.96 1019.3 1755.57 1019.3 Q1759.21 1019.3 1761.01 1015.76 Q1762.84 1012.2 1762.84 1005.09 Q1762.84 997.96 1761.01 994.419 Q1759.21 990.854 1755.57 990.854 M1755.57 987.15 Q1761.38 987.15 1764.44 991.757 Q1767.52 996.34 1767.52 1005.09 Q1767.52 1013.82 1764.44 1018.42 Q1761.38 1023.01 1755.57 1023.01 Q1749.76 1023.01 1746.68 1018.42 Q1743.63 1013.82 1743.63 1005.09 Q1743.63 996.34 1746.68 991.757 Q1749.76 987.15 1755.57 987.15 Z" fill="#000000" fill-rule="nonzero" fill-opacity="1" /><path clip-path="url(#clip920)" d="M1775.73 1016.46 L1780.62 1016.46 L1780.62 1022.34 L1775.73 1022.34 L1775.73 1016.46 Z" fill="#000000" fill-rule="nonzero" fill-opacity="1" /><path clip-path="url(#clip920)" d="M1794.83 1018.4 L1811.15 1018.4 L1811.15 1022.34 L1789.21 1022.34 L1789.21 1018.4 Q1791.87 1015.65 1796.45 1011.02 Q1801.06 1006.36 1802.24 1005.02 Q1804.48 1002.5 1805.36 1000.76 Q1806.27 999.002 1806.27 997.312 Q1806.27 994.557 1804.32 992.821 Q1802.4 991.085 1799.3 991.085 Q1797.1 991.085 1794.65 991.849 Q1792.22 992.613 1789.44 994.164 L1789.44 989.442 Q1792.26 988.308 1794.72 987.729 Q1797.17 987.15 1799.21 987.15 Q1804.58 987.15 1807.77 989.835 Q1810.97 992.52 1810.97 997.011 Q1810.97 999.141 1810.15 1001.06 Q1809.37 1002.96 1807.26 1005.55 Q1806.68 1006.22 1803.58 1009.44 Q1800.48 1012.64 1794.83 1018.4 Z" fill="#000000" fill-rule="nonzero" fill-opacity="1" /><path clip-path="url(#clip920)" d="M1821.01 987.775 L1839.37 987.775 L1839.37 991.71 L1825.29 991.71 L1825.29 1000.18 Q1826.31 999.835 1827.33 999.673 Q1828.35 999.488 1829.37 999.488 Q1835.15 999.488 1838.53 1002.66 Q1841.91 1005.83 1841.91 1011.25 Q1841.91 1016.83 1838.44 1019.93 Q1834.97 1023.01 1828.65 1023.01 Q1826.47 1023.01 1824.21 1022.64 Q1821.96 1022.27 1819.55 1021.52 L1819.55 1016.83 Q1821.64 1017.96 1823.86 1018.52 Q1826.08 1019.07 1828.56 1019.07 Q1832.56 1019.07 1834.9 1016.96 Q1837.24 1014.86 1837.24 1011.25 Q1837.24 1007.64 1834.9 1005.53 Q1832.56 1003.42 1828.56 1003.42 Q1826.68 1003.42 1824.81 1003.84 Q1822.96 1004.26 1821.01 1005.14 L1821.01 987.775 Z" fill="#000000" fill-rule="nonzero" fill-opacity="1" /><path clip-path="url(#clip920)" d="M1754.58 709.145 Q1750.97 709.145 1749.14 712.709 Q1747.33 716.251 1747.33 723.381 Q1747.33 730.487 1749.14 734.052 Q1750.97 737.594 1754.58 737.594 Q1758.21 737.594 1760.02 734.052 Q1761.84 730.487 1761.84 723.381 Q1761.84 716.251 1760.02 712.709 Q1758.21 709.145 1754.58 709.145 M1754.58 705.441 Q1760.39 705.441 1763.44 710.047 Q1766.52 714.631 1766.52 723.381 Q1766.52 732.108 1763.44 736.714 Q1760.39 741.297 1754.58 741.297 Q1748.77 741.297 1745.69 736.714 Q1742.63 732.108 1742.63 723.381 Q1742.63 714.631 1745.69 710.047 Q1748.77 705.441 1754.58 705.441 Z" fill="#000000" fill-rule="nonzero" fill-opacity="1" /><path clip-path="url(#clip920)" d="M1774.74 734.746 L1779.62 734.746 L1779.62 740.626 L1774.74 740.626 L1774.74 734.746 Z" fill="#000000" fill-rule="nonzero" fill-opacity="1" /><path clip-path="url(#clip920)" d="M1789.85 706.066 L1808.21 706.066 L1808.21 710.001 L1794.14 710.001 L1794.14 718.473 Q1795.15 718.126 1796.17 717.964 Q1797.19 717.779 1798.21 717.779 Q1804 717.779 1807.38 720.95 Q1810.76 724.121 1810.76 729.538 Q1810.76 735.117 1807.28 738.219 Q1803.81 741.297 1797.49 741.297 Q1795.32 741.297 1793.05 740.927 Q1790.8 740.557 1788.4 739.816 L1788.4 735.117 Q1790.48 736.251 1792.7 736.807 Q1794.92 737.362 1797.4 737.362 Q1801.4 737.362 1803.74 735.256 Q1806.08 733.149 1806.08 729.538 Q1806.08 725.927 1803.74 723.821 Q1801.4 721.714 1797.4 721.714 Q1795.53 721.714 1793.65 722.131 Q1791.8 722.547 1789.85 723.427 L1789.85 706.066 Z" fill="#000000" fill-rule="nonzero" fill-opacity="1" /><path clip-path="url(#clip920)" d="M1829.97 709.145 Q1826.36 709.145 1824.53 712.709 Q1822.72 716.251 1822.72 723.381 Q1822.72 730.487 1824.53 734.052 Q1826.36 737.594 1829.97 737.594 Q1833.6 737.594 1835.41 734.052 Q1837.24 730.487 1837.24 723.381 Q1837.24 716.251 1835.41 712.709 Q1833.6 709.145 1829.97 709.145 M1829.97 705.441 Q1835.78 705.441 1838.84 710.047 Q1841.91 714.631 1841.91 723.381 Q1841.91 732.108 1838.84 736.714 Q1835.78 741.297 1829.97 741.297 Q1824.16 741.297 1821.08 736.714 Q1818.03 732.108 1818.03 723.381 Q1818.03 714.631 1821.08 710.047 Q1824.16 705.441 1829.97 705.441 Z" fill="#000000" fill-rule="nonzero" fill-opacity="1" /><path clip-path="url(#clip920)" d="M1755.57 427.436 Q1751.96 427.436 1750.13 431 Q1748.33 434.542 1748.33 441.672 Q1748.33 448.778 1750.13 452.343 Q1751.96 455.884 1755.57 455.884 Q1759.21 455.884 1761.01 452.343 Q1762.84 448.778 1762.84 441.672 Q1762.84 434.542 1761.01 431 Q1759.21 427.436 1755.57 427.436 M1755.57 423.732 Q1761.38 423.732 1764.44 428.338 Q1767.52 432.922 1767.52 441.672 Q1767.52 450.398 1764.44 455.005 Q1761.38 459.588 1755.57 459.588 Q1749.76 459.588 1746.68 455.005 Q1743.63 450.398 1743.63 441.672 Q1743.63 432.922 1746.68 428.338 Q1749.76 423.732 1755.57 423.732 Z" fill="#000000" fill-rule="nonzero" fill-opacity="1" /><path clip-path="url(#clip920)" d="M1775.73 453.037 L1780.62 453.037 L1780.62 458.917 L1775.73 458.917 L1775.73 453.037 Z" fill="#000000" fill-rule="nonzero" fill-opacity="1" /><path clip-path="url(#clip920)" d="M1789.62 424.357 L1811.84 424.357 L1811.84 426.348 L1799.3 458.917 L1794.41 458.917 L1806.22 428.292 L1789.62 428.292 L1789.62 424.357 Z" fill="#000000" fill-rule="nonzero" fill-opacity="1" /><path clip-path="url(#clip920)" d="M1821.01 424.357 L1839.37 424.357 L1839.37 428.292 L1825.29 428.292 L1825.29 436.764 Q1826.31 436.417 1827.33 436.255 Q1828.35 436.07 1829.37 436.07 Q1835.15 436.07 1838.53 439.241 Q1841.91 442.412 1841.91 447.829 Q1841.91 453.408 1838.44 456.509 Q1834.97 459.588 1828.65 459.588 Q1826.47 459.588 1824.21 459.218 Q1821.96 458.847 1819.55 458.107 L1819.55 453.408 Q1821.64 454.542 1823.86 455.097 Q1826.08 455.653 1828.56 455.653 Q1832.56 455.653 1834.9 453.547 Q1837.24 451.44 1837.24 447.829 Q1837.24 444.218 1834.9 442.111 Q1832.56 440.005 1828.56 440.005 Q1826.68 440.005 1824.81 440.422 Q1822.96 440.838 1821.01 441.718 L1821.01 424.357 Z" fill="#000000" fill-rule="nonzero" fill-opacity="1" /><path clip-path="url(#clip920)" d="M1745.39 173.273 L1753.03 173.273 L1753.03 146.907 L1744.72 148.574 L1744.72 144.314 L1752.98 142.648 L1757.66 142.648 L1757.66 173.273 L1765.29 173.273 L1765.29 177.208 L1745.39 177.208 L1745.39 173.273 Z" fill="#000000" fill-rule="nonzero" fill-opacity="1" /><path clip-path="url(#clip920)" d="M1774.74 171.328 L1779.62 171.328 L1779.62 177.208 L1774.74 177.208 L1774.74 171.328 Z" fill="#000000" fill-rule="nonzero" fill-opacity="1" /><path clip-path="url(#clip920)" d="M1799.81 145.726 Q1796.2 145.726 1794.37 149.291 Q1792.56 152.833 1792.56 159.962 Q1792.56 167.069 1794.37 170.634 Q1796.2 174.175 1799.81 174.175 Q1803.44 174.175 1805.25 170.634 Q1807.08 167.069 1807.08 159.962 Q1807.08 152.833 1805.25 149.291 Q1803.44 145.726 1799.81 145.726 M1799.81 142.023 Q1805.62 142.023 1808.67 146.629 Q1811.75 151.213 1811.75 159.962 Q1811.75 168.689 1808.67 173.296 Q1805.62 177.879 1799.81 177.879 Q1794 177.879 1790.92 173.296 Q1787.86 168.689 1787.86 159.962 Q1787.86 151.213 1790.92 146.629 Q1794 142.023 1799.81 142.023 Z" fill="#000000" fill-rule="nonzero" fill-opacity="1" /><path clip-path="url(#clip920)" d="M1829.97 145.726 Q1826.36 145.726 1824.53 149.291 Q1822.72 152.833 1822.72 159.962 Q1822.72 167.069 1824.53 170.634 Q1826.36 174.175 1829.97 174.175 Q1833.6 174.175 1835.41 170.634 Q1837.24 167.069 1837.24 159.962 Q1837.24 152.833 1835.41 149.291 Q1833.6 145.726 1829.97 145.726 M1829.97 142.023 Q1835.78 142.023 1838.84 146.629 Q1841.91 151.213 1841.91 159.962 Q1841.91 168.689 1838.84 173.296 Q1835.78 177.879 1829.97 177.879 Q1824.16 177.879 1821.08 173.296 Q1818.03 168.689 1818.03 159.962 Q1818.03 151.213 1821.08 146.629 Q1824.16 142.023 1829.97 142.023 Z" fill="#000000" fill-rule="nonzero" fill-opacity="1" /><path clip-path="url(#clip920)" d="M1666.31 738.274 L1644.73 738.274 L1644.73 732.417 L1666.09 732.417 Q1671.15 732.417 1673.69 730.444 Q1676.21 728.47 1676.21 724.524 Q1676.21 719.781 1673.18 717.044 Q1670.16 714.275 1664.94 714.275 L1644.73 714.275 L1644.73 708.418 L1680.38 708.418 L1680.38 714.275 L1674.9 714.275 Q1678.15 716.407 1679.74 719.24 Q1681.3 722.041 1681.3 725.765 Q1681.3 731.908 1677.48 735.091 Q1673.66 738.274 1666.31 738.274 M1643.87 723.537 L1643.87 723.537 Z" fill="#000000" fill-rule="nonzero" fill-opacity="1" /><polyline clip-path="url(#clip923)" style="stroke:#000000; stroke-linecap:round; stroke-linejoin:round; stroke-width:2; stroke-opacity:1; fill:none" stroke-dasharray="8, 5" points="1925.65,159.928 3117.02,159.928 "/>
<polyline clip-path="url(#clip923)" style="stroke:#000000; stroke-linecap:round; stroke-linejoin:round; stroke-width:2; stroke-opacity:1; fill:none" stroke-dasharray="8, 5" points="1925.65,1286.76 3117.02,1286.76 "/>
<polyline clip-path="url(#clip923)" style="stroke:#000000; stroke-linecap:round; stroke-linejoin:round; stroke-width:2; stroke-opacity:1; fill:none" points="1925.65,1399.45 1925.65,47.2441 "/>
<polyline clip-path="url(#clip923)" style="stroke:#000000; stroke-linecap:round; stroke-linejoin:round; stroke-width:2; stroke-opacity:1; fill:none" points="3117.02,1399.45 3117.02,47.2441 "/>
<polyline clip-path="url(#clip923)" style="stroke:#009af9; stroke-linecap:round; stroke-linejoin:round; stroke-width:8; stroke-opacity:1; fill:none" points="1925.65,159.928 1926.85,159.928 1928.04,159.928 1929.23,159.928 1930.42,159.928 1931.61,159.928 1932.8,159.928 1933.99,159.928 1935.19,159.928 1936.38,159.928 1937.57,159.928 1938.76,159.928 1939.95,159.928 1941.14,159.928 1942.33,159.928 1943.53,159.928 1944.72,159.928 1945.91,159.928 1947.1,159.928 1948.29,159.928 1949.48,159.928 1950.67,159.928 1951.86,159.928 1953.06,159.928 1954.25,159.928 1955.44,159.928 1956.63,159.928 1957.82,159.928 1959.01,159.928 1960.2,159.928 1961.4,159.928 1962.59,159.928 1963.78,159.928 1964.97,159.928 1966.16,159.928 1967.35,159.928 1968.54,159.928 1969.74,159.928 1970.93,551.497 1972.12,1478.02 1973.31,1229.71 1974.5,1296.22 1975.69,1278.37 1976.88,1283.13 1978.07,1281.83 1979.27,1282.15 1980.46,1282.04 1981.65,1282.05 1982.84,1282.02 1984.03,1282 1985.22,1281.98 1986.41,1281.96 1987.61,1281.94 1988.8,1281.92 1989.99,1281.9 1991.18,1281.88 1992.37,1281.86 1993.56,1281.84 1994.75,1281.82 1995.95,1281.8 1997.14,1281.77 1998.33,1281.75 1999.52,1281.73 2000.71,1281.71 2001.9,1281.69 2003.09,1281.67 2004.28,1281.65 2005.48,1281.63 2006.67,1281.6 2007.86,1281.58 2009.05,1281.56 2010.24,1281.54 2011.43,1281.52 2012.62,1281.49 2013.82,1281.47 2015.01,1281.45 2016.2,1281.43 2017.39,1281.4 2018.58,1281.38 2019.77,1281.36 2020.96,1281.34 2022.15,1281.31 2023.35,1281.29 2024.54,1281.27 2025.73,1281.24 2026.92,1281.22 2028.11,1281.2 2029.3,1281.17 2030.49,1281.15 2031.69,1281.13 2032.88,1281.1 2034.07,1281.08 2035.26,1281.05 2036.45,1281.03 2037.64,1281.01 2038.83,1280.98 2040.03,1280.96 2041.22,1280.93 2042.41,1280.91 2043.6,1280.88 2044.79,1280.86 2045.98,1280.83 2047.17,1280.81 2048.36,1280.78 2049.56,1280.76 2050.75,1280.73 2051.94,1280.71 2053.13,1280.68 2054.32,1280.66 2055.51,1280.63 2056.7,1280.6 2057.9,1280.58 2059.09,1280.55 2060.28,1280.53 2061.47,1280.5 2062.66,1280.47 2063.85,1280.45 2065.04,1280.42 2066.24,1280.39 2067.43,1280.37 2068.62,1280.34 2069.81,1280.31 2071,1280.28 2072.19,1280.26 2073.38,1280.23 2074.57,1280.2 2075.77,1280.17 2076.96,1280.15 2078.15,1280.12 2079.34,1280.09 2080.53,1280.06 2081.72,1280.03 2082.91,1280.01 2084.11,1279.98 2085.3,1279.95 2086.49,1279.92 2087.68,1279.89 2088.87,1279.86 2090.06,1279.83 2091.25,1279.8 2092.45,1279.77 2093.64,1279.74 2094.83,1279.71 2096.02,1279.68 2097.21,1279.65 2098.4,1279.62 2099.59,1279.59 2100.78,1279.56 2101.98,1279.53 2103.17,1279.5 2104.36,1279.47 2105.55,1279.44 2106.74,1279.41 2107.93,1279.38 2109.12,1279.35 2110.32,1279.32 2111.51,1279.29 2112.7,1279.25 2113.89,1279.22 2115.08,1279.19 2116.27,1279.16 2117.46,1279.13 2118.66,1279.09 2119.85,1279.06 2121.04,1279.03 2122.23,1279 2123.42,1278.96 2124.61,1278.93 2125.8,1278.9 2126.99,1278.86 2128.19,1278.83 2129.38,1278.8 2130.57,1278.76 2131.76,1278.73 2132.95,1278.7 2134.14,1278.66 2135.33,1278.63 2136.53,1278.59 2137.72,1278.56 2138.91,1278.52 2140.1,1278.49 2141.29,1278.45 2142.48,1278.42 2143.67,1278.38 2144.87,1278.35 2146.06,1278.31 2147.25,1278.28 2148.44,1278.24 2149.63,1278.2 2150.82,1278.17 2152.01,1278.13 2153.2,1278.1 2154.4,1278.06 2155.59,1278.02 2156.78,1277.98 2157.97,1277.95 2159.16,1277.91 2160.35,1277.87 2161.54,1277.83 2162.74,1277.8 2163.93,1277.76 2165.12,1277.72 2166.31,1277.68 2167.5,1277.64 2168.69,1277.61 2169.88,1277.57 2171.08,1277.53 2172.27,1277.49 2173.46,1277.45 2174.65,1277.41 2175.84,1277.37 2177.03,1277.33 2178.22,1277.29 2179.41,1277.25 2180.61,1277.21 2181.8,1277.17 2182.99,1277.13 2184.18,1277.09 2185.37,1277.05 2186.56,1277.01 2187.75,1276.97 2188.95,1276.92 2190.14,1276.88 2191.33,1276.84 2192.52,1276.8 2193.71,1276.76 2194.9,1276.71 2196.09,1276.67 2197.28,1276.63 2198.48,1276.59 2199.67,1276.54 2200.86,1276.5 2202.05,1276.46 2203.24,1276.41 2204.43,1276.37 2205.62,1276.32 2206.82,1276.28 2208.01,1276.24 2209.2,1276.19 2210.39,1276.15 2211.58,1276.1 2212.77,1276.06 2213.96,1276.01 2215.16,1275.96 2216.35,1275.92 2217.54,1275.87 2218.73,1275.83 2219.92,1275.78 2221.11,1275.73 2222.3,1275.69 2223.49,1275.64 2224.69,1275.59 2225.88,1275.55 2227.07,1275.5 2228.26,1275.45 2229.45,1275.4 2230.64,1275.35 2231.83,1275.31 2233.03,1275.26 2234.22,1275.21 2235.41,1275.16 2236.6,1275.11 2237.79,1275.06 2238.98,1275.01 2240.17,1274.96 2241.37,1274.91 2242.56,1274.86 2243.75,1274.81 2244.94,1274.76 2246.13,1274.71 2247.32,1274.66 2248.51,1274.61 2249.7,1274.55 2250.9,1274.5 2252.09,1274.45 2253.28,1274.4 2254.47,1274.35 2255.66,1274.29 2256.85,1274.24 2258.04,1274.19 2259.24,1274.13 2260.43,1274.08 2261.62,1274.03 2262.81,1273.97 2264,1273.92 2265.19,1273.86 2266.38,1273.81 2267.58,1273.75 2268.77,1273.7 2269.96,1273.64 2271.15,1273.59 2272.34,1273.53 2273.53,1273.47 2274.72,1273.42 2275.91,1273.36 2277.11,1273.3 2278.3,1273.25 2279.49,1273.19 2280.68,1273.13 2281.87,1273.07 2283.06,1273.02 2284.25,1272.96 2285.45,1272.9 2286.64,1272.84 2287.83,1272.78 2289.02,1272.72 2290.21,1272.66 2291.4,1272.6 2292.59,1272.54 2293.79,1272.48 2294.98,1272.42 2296.17,1272.36 2297.36,1272.3 2298.55,1272.24 2299.74,1272.17 2300.93,1272.11 2302.12,1272.05 2303.32,1271.99 2304.51,1271.92 2305.7,1271.86 2306.89,1271.8 2308.08,1271.73 2309.27,1271.67 2310.46,1271.61 2311.66,1271.54 2312.85,1271.48 2314.04,1271.41 2315.23,1271.35 2316.42,1271.28 2317.61,1271.21 2318.8,1271.15 2320,1271.08 2321.19,1271.01 2322.38,1270.95 2323.57,1270.88 2324.76,1270.81 2325.95,1270.74 2327.14,1270.68 2328.33,1270.61 2329.53,1270.54 2330.72,1270.47 2331.91,1270.4 2333.1,1270.33 2334.29,1270.26 2335.48,1270.19 2336.67,1270.12 2337.87,1270.05 2339.06,1269.98 2340.25,1269.9 2341.44,1269.83 2342.63,1269.76 2343.82,1269.69 2345.01,1269.61 2346.2,1269.54 2347.4,1269.47 2348.59,1269.39 2349.78,1269.32 2350.97,1269.25 2352.16,1269.17 2353.35,1269.1 2354.54,1269.02 2355.74,1268.94 2356.93,1268.87 2358.12,1268.79 2359.31,1268.71 2360.5,1268.64 2361.69,1268.56 2362.88,1268.48 2364.08,1268.4 2365.27,1268.33 2366.46,1268.25 2367.65,1268.17 2368.84,1268.09 2370.03,1268.01 2371.22,1267.93 2372.41,1267.85 2373.61,1267.77 2374.8,1267.68 2375.99,1267.6 2377.18,1267.52 2378.37,1267.44 2379.56,1267.36 2380.75,1267.27 2381.95,1267.19 2383.14,1267.1 2384.33,1267.02 2385.52,1266.94 2386.71,1266.85 2387.9,1266.77 2389.09,1266.68 2390.29,1266.59 2391.48,1266.51 2392.67,1266.42 2393.86,1266.33 2395.05,1266.25 2396.24,1266.16 2397.43,1266.07 2398.62,1265.98 2399.82,1265.89 2401.01,1265.8 2402.2,1265.71 2403.39,1265.62 2404.58,1265.53 2405.77,1265.44 2406.96,1265.35 2408.16,1265.25 2409.35,1265.16 2410.54,1265.07 2411.73,1264.98 2412.92,1264.88 2414.11,1264.79 2415.3,1264.69 2416.5,1264.6 2417.69,1264.5 2418.88,1264.41 2420.07,1264.31 2421.26,1264.21 2422.45,1264.12 2423.64,1264.02 2424.83,1263.92 2426.03,1263.82 2427.22,1263.72 2428.41,1263.63 2429.6,1263.53 2430.79,1263.43 2431.98,1263.32 2433.17,1263.22 2434.37,1263.12 2435.56,1263.02 2436.75,1262.92 2437.94,1262.81 2439.13,1262.71 2440.32,1262.61 2441.51,1262.5 2442.71,1262.4 2443.9,1262.29 2445.09,1262.19 2446.28,1262.08 2447.47,1261.97 2448.66,1261.87 2449.85,1261.76 2451.04,1261.65 2452.24,1261.54 2453.43,1261.43 2454.62,1261.32 2455.81,1261.21 2457,1261.1 2458.19,1260.99 2459.38,1260.88 2460.58,1260.77 2461.77,1260.65 2462.96,1260.54 2464.15,1260.43 2465.34,1260.31 2466.53,1260.2 2467.72,1260.08 2468.92,1259.97 2470.11,1259.85 2471.3,1259.73 2472.49,1259.62 2473.68,1259.5 2474.87,1259.38 2476.06,1259.26 2477.25,1259.14 2478.45,1259.02 2479.64,1258.9 2480.83,1258.78 2482.02,1258.66 2483.21,1258.53 2484.4,1258.41 2485.59,1258.29 2486.79,1258.16 2487.98,1258.04 2489.17,1257.91 2490.36,1257.79 2491.55,1257.66 2492.74,1257.53 2493.93,1257.41 2495.13,1257.28 2496.32,1257.15 2497.51,1257.02 2498.7,1256.89 2499.89,1256.76 2501.08,1256.63 2502.27,1256.49 2503.46,1256.36 2504.66,1256.23 2505.85,1256.1 2507.04,1255.96 2508.23,1255.83 2509.42,1255.69 2510.61,1255.55 2511.8,1255.42 2513,1255.28 2514.19,1255.14 2515.38,1255 2516.57,1254.86 2517.76,1254.72 2518.95,1254.58 2520.14,1254.44 2521.33,1254.3 2522.53,1254.15 2523.72,1254.01 2524.91,1253.87 2526.1,1253.72 2527.29,1253.58 2528.48,1253.43 2529.67,1253.28 2530.87,1253.13 2532.06,1252.99 2533.25,1252.84 2534.44,1252.69 2535.63,1252.54 2536.82,1252.38 2538.01,1252.23 2539.21,1252.08 2540.4,1251.93 2541.59,1251.77 2542.78,1251.62 2543.97,1251.46 2545.16,1251.3 2546.35,1251.15 2547.54,1250.99 2548.74,1250.83 2549.93,1250.67 2551.12,1250.51 2552.31,1250.35 2553.5,1250.19 2554.69,1250.02 2555.88,1249.86 2557.08,1249.69 2558.27,1249.53 2559.46,1249.36 2560.65,1249.2 2561.84,1249.03 2563.03,1248.86 2564.22,1248.69 2565.42,1248.52 2566.61,1248.35 2567.8,1248.18 2568.99,1248 2570.18,1247.83 2571.37,1247.66 2572.56,1247.48 2573.75,1247.3 2574.95,1247.13 2576.14,1246.95 2577.33,1246.77 2578.52,1246.59 2579.71,1246.41 2580.9,1246.23 2582.09,1246.04 2583.29,1245.86 2584.48,1245.68 2585.67,1245.49 2586.86,1245.3 2588.05,1245.12 2589.24,1244.93 2590.43,1244.74 2591.63,1244.55 2592.82,1244.36 2594.01,1244.17 2595.2,1243.97 2596.39,1243.78 2597.58,1243.58 2598.77,1243.39 2599.96,1243.19 2601.16,1242.99 2602.35,1242.79 2603.54,1242.59 2604.73,1242.39 2605.92,1242.19 2607.11,1241.98 2608.3,1241.78 2609.5,1241.57 2610.69,1241.37 2611.88,1241.16 2613.07,1240.95 2614.26,1240.74 2615.45,1240.53 2616.64,1240.32 2617.84,1240.1 2619.03,1239.89 2620.22,1239.67 2621.41,1239.45 2622.6,1239.24 2623.79,1239.02 2624.98,1238.8 2626.17,1238.57 2627.37,1238.35 2628.56,1238.13 2629.75,1237.9 2630.94,1237.68 2632.13,1237.45 2633.32,1237.22 2634.51,1236.99 2635.71,1236.76 2636.9,1236.52 2638.09,1236.29 2639.28,1236.05 2640.47,1235.82 2641.66,1235.58 2642.85,1235.34 2644.05,1235.1 2645.24,1234.86 2646.43,1234.61 2647.62,1234.37 2648.81,1234.12 2650,1233.87 2651.19,1233.63 2652.38,1233.38 2653.58,1233.12 2654.77,1232.87 2655.96,1232.62 2657.15,1232.36 2658.34,1232.1 2659.53,1231.84 2660.72,1231.58 2661.92,1231.32 2663.11,1231.06 2664.3,1230.79 2665.49,1230.52 2666.68,1230.25 2667.87,1229.98 2669.06,1229.71 2670.25,1229.44 2671.45,1229.16 2672.64,1228.89 2673.83,1228.61 2675.02,1228.33 2676.21,1228.05 2677.4,1227.77 2678.59,1227.48 2679.79,1227.19 2680.98,1226.91 2682.17,1226.62 2683.36,1226.32 2684.55,1226.03 2685.74,1225.73 2686.93,1225.44 2688.13,1225.14 2689.32,1224.84 2690.51,1224.53 2691.7,1224.23 2692.89,1223.92 2694.08,1223.61 2695.27,1223.3 2696.46,1222.99 2697.66,1222.68 2698.85,1222.36 2700.04,1222.04 2701.23,1221.72 2702.42,1221.4 2703.61,1221.07 2704.8,1220.75 2706,1220.42 2707.19,1220.09 2708.38,1219.75 2709.57,1219.42 2710.76,1219.08 2711.95,1218.74 2713.14,1218.4 2714.34,1218.05 2715.53,1217.71 2716.72,1217.36 2717.91,1217 2719.1,1216.65 2720.29,1216.29 2721.48,1215.94 2722.67,1215.57 2723.87,1215.21 2725.06,1214.85 2726.25,1214.48 2727.44,1214.11 2728.63,1213.73 2729.82,1213.35 2731.01,1212.98 2732.21,1212.59 2733.4,1212.21 2734.59,1211.82 2735.78,1211.43 2736.97,1211.04 2738.16,1210.64 2739.35,1210.25 2740.55,1209.84 2741.74,1209.44 2742.93,1209.03 2744.12,1208.62 2745.31,1208.21 2746.5,1207.79 2747.69,1207.37 2748.88,1206.95 2750.08,1206.52 2751.27,1206.09 2752.46,1205.66 2753.65,1205.23 2754.84,1204.79 2756.03,1204.34 2757.22,1203.9 2758.42,1203.45 2759.61,1203 2760.8,1202.54 2761.99,1202.08 2763.18,1201.61 2764.37,1201.15 2765.56,1200.68 2766.76,1200.2 2767.95,1199.72 2769.14,1199.24 2770.33,1198.75 2771.52,1198.26 2772.71,1197.76 2773.9,1197.27 2775.09,1196.76 2776.29,1196.25 2777.48,1195.74 2778.67,1195.23 2779.86,1194.7 2781.05,1194.18 2782.24,1193.65 2783.43,1193.11 2784.63,1192.57 2785.82,1192.03 2787.01,1191.48 2788.2,1190.93 2789.39,1190.37 2790.58,1189.8 2791.77,1189.24 2792.97,1188.66 2794.16,1188.08 2795.35,1187.5 2796.54,1186.91 2797.73,1186.31 2798.92,1185.71 2800.11,1185.1 2801.3,1184.49 2802.5,1183.87 2803.69,1183.24 2804.88,1182.61 2806.07,1181.97 2807.26,1181.33 2808.45,1180.67 2809.64,1180.02 2810.84,1179.35 2812.03,1178.68 2813.22,1178 2814.41,1177.32 2815.6,1176.63 2816.79,1175.93 2817.98,1175.22 2819.18,1174.51 2820.37,1173.78 2821.56,1173.05 2822.75,1172.31 2823.94,1171.57 2825.13,1170.81 2826.32,1170.05 2827.51,1169.28 2828.71,1168.5 2829.9,1167.71 2831.09,1166.91 2832.28,1166.1 2833.47,1165.28 2834.66,1164.45 2835.85,1163.61 2837.05,1162.77 2838.24,1161.91 2839.43,1161.04 2840.62,1160.16 2841.81,1159.27 2843,1158.36 2844.19,1157.45 2845.38,1156.52 2846.58,1155.58 2847.77,1154.63 2848.96,1153.67 2850.15,1152.69 2851.34,1151.7 2852.53,1150.7 2853.72,1149.68 2854.92,1148.65 2856.11,1147.6 2857.3,1146.54 2858.49,1145.46 2859.68,1144.37 2860.87,1143.26 2862.06,1142.13 2863.26,1140.99 2864.45,1139.83 2865.64,1138.65 2866.83,1137.45 2868.02,1136.23 2869.21,1135 2870.4,1133.74 2871.59,1132.46 2872.79,1131.16 2873.98,1129.84 2875.17,1128.5 2876.36,1127.13 2877.55,1125.74 2878.74,1124.32 2879.93,1122.88 2881.13,1121.41 2882.32,1119.91 2883.51,1118.39 2884.7,1116.84 2885.89,1115.25 2887.08,1113.64 2888.27,1111.99 2889.47,1110.31 2890.66,1108.59 2891.85,1106.84 2893.04,1105.05 2894.23,1103.22 2895.42,1101.36 2896.61,1099.45 2897.8,1097.49 2899,1095.49 2900.19,1093.45 2901.38,1091.35 2902.57,1089.21 2903.76,1087.01 2904.95,1084.75 2906.14,1082.44 2907.34,1080.07 2908.53,1077.63 2909.72,1075.12 2910.91,1072.55 2912.1,1069.9 2913.29,1067.17 2914.48,1064.37 2915.68,1061.47 2916.87,1058.49 2918.06,1055.41 2919.25,1052.24 2920.44,1048.95 2921.63,1045.55 2922.82,1042.04 2924.01,1038.39 2925.21,1034.62 2926.4,1030.69 2927.59,1026.62 2928.78,1022.38 2929.97,1017.96 2931.16,1013.35 2932.35,1008.55 2933.55,1003.52 2934.74,998.252 2935.93,992.73 2937.12,986.928 2938.31,980.823 2939.5,974.384 2940.69,967.581 2941.89,960.376 2943.08,952.727 2944.27,944.586 2945.46,935.894 2946.65,926.587 2947.84,916.586 2949.03,905.799 2950.22,894.113 2951.42,881.395 2952.61,867.479 2953.8,852.161 2954.99,835.184 2956.18,816.22 2957.37,794.846 2958.56,770.469 2959.76,742.417 2960.95,709.187 2962.14,670.821 2963.33,618.342 2964.52,574.209 2965.71,422.644 2966.9,159.93 2968.1,159.928 2969.29,159.928 2970.48,159.928 2971.67,159.929 2972.86,159.97 2974.05,1505.53 2975.24,1236.9 2976.43,1298.6 2977.63,1283.89 2978.82,1287.47 2980.01,1286.59 2981.2,1286.81 2982.39,1286.75 2983.58,1286.77 2984.77,1286.76 2985.97,1286.76 2987.16,1286.76 2988.35,1286.76 2989.54,1286.76 2990.73,1286.76 2991.92,1286.76 2993.11,1286.76 2994.3,1286.76 2995.5,1286.76 2996.69,1286.76 2997.88,1286.76 2999.07,1286.76 3000.26,1286.76 3001.45,1286.76 3002.64,1286.76 3003.84,1286.76 3005.03,1286.76 3006.22,1286.76 3007.41,1286.76 3008.6,1286.76 3009.79,1286.76 3010.98,1286.76 3012.18,1286.76 3013.37,1286.76 3014.56,1286.76 3015.75,1286.76 3016.94,1286.76 3018.13,1286.76 3019.32,1286.76 3020.51,1286.76 3021.71,1286.76 3022.9,1286.76 3024.09,1286.76 3025.28,1286.76 3026.47,1286.76 3027.66,1286.76 3028.85,1286.76 3030.05,1286.76 3031.24,1286.76 3032.43,1286.76 3033.62,1286.76 3034.81,1286.76 3036,1286.76 3037.19,1286.76 3038.39,1286.76 3039.58,1286.76 3040.77,1286.76 3041.96,1286.76 3043.15,1286.76 3044.34,1286.76 3045.53,1286.76 3046.72,1286.76 3047.92,1286.76 3049.11,1286.76 3050.3,1286.76 3051.49,1286.76 3052.68,1286.76 3053.87,1286.76 3055.06,1286.76 3056.26,1286.76 3057.45,1286.76 3058.64,1286.76 3059.83,1286.76 3061.02,1286.76 3062.21,1286.76 3063.4,1286.76 3064.6,1286.76 3065.79,1286.76 3066.98,1286.76 3068.17,1286.76 3069.36,1286.76 3070.55,1286.76 3071.74,1286.76 3072.93,1286.76 3074.13,1286.76 3075.32,1286.76 3076.51,1286.76 3077.7,1286.76 3078.89,1286.76 3080.08,1286.76 3081.27,1286.76 3082.47,1286.76 3083.66,1286.76 3084.85,1286.76 3086.04,1286.76 3087.23,1286.76 3088.42,1286.76 3089.61,1286.76 3090.81,1286.76 3092,1286.76 3093.19,1286.76 3094.38,1286.76 3095.57,1286.76 3096.76,1286.76 3097.95,1286.76 3099.14,1286.76 3100.34,1286.76 3101.53,1286.76 3102.72,1286.76 3103.91,1286.76 3105.1,1286.76 3106.29,1286.76 3107.48,1286.76 3108.68,1286.76 3109.87,1286.76 3111.06,1286.76 3112.25,1286.76 3113.44,1286.76 3114.63,1286.76 3115.82,1286.76 3117.02,1286.76 "/>
</svg>
